<svg xmlns="http://www.w3.org/2000/svg" width="68" height="72" viewBox="0 0 68 72"><path fill="#FFF" d="M48.961 71.924h.596v-4.641h-.596v4.641zm4.391-1.928l.447-1.341c.089-.283.163-.572.224-.841h.021c.067.269.135.545.229.847l.453 1.335h-1.374zm1.057-2.713h-.711l-1.549 4.641h.609l.474-1.46h1.616l.487 1.46h.629l-1.555-4.641zm-28.068.51h1.386v4.131h.596v-4.131h1.394v-.51h-3.375v.51zm18.182-.51h-.596v4.641h2.544v-.502h-1.948v-4.139zm-5.779 2.713l.447-1.341c.087-.283.162-.572.223-.841h.021c.067.269.135.545.229.847l.453 1.335h-1.373zm.344-2.713l-1.549 4.641h.609l.474-1.46h1.616l.487 1.46h.629l-1.556-4.641h-.71zm-5.63 2.176h-.601v-1.686c.101-.027.297-.055.58-.055.623 0 1.049.261 1.049.861 0 .53-.398.88-1.028.88m.766.255v-.021c.473-.165.859-.572.859-1.177 0-.364-.135-.682-.359-.882-.284-.261-.697-.385-1.325-.385-.4 0-.833.04-1.131.103v4.571h.589v-2.011h.554c.535.021.785.261.92.902.122.578.224.971.298 1.108h.609c-.087-.179-.197-.627-.345-1.273-.115-.481-.325-.81-.669-.935m-11.376-.42c-.628-.248-.905-.462-.905-.887 0-.318.236-.696.859-.696.412 0 .716.131.859.22l.163-.496c-.197-.111-.541-.22-1.001-.22-.887 0-1.477.537-1.477 1.26 0 .646.461 1.047 1.206 1.308.615.234.859.489.859.923 0 .467-.352.784-.955.784-.405 0-.785-.13-1.048-.296l-.157.496c.243.166.724.304 1.164.304 1.075 0 1.59-.627 1.59-1.336.001-.683-.385-1.055-1.157-1.364m-4.892.743c0 1.02-.44 1.474-1.11 1.474-.609 0-1.062-.44-1.062-1.474v-2.754h-.596v2.734c0 1.446.703 1.982 1.637 1.982.988 0 1.725-.578 1.725-2.004v-2.712h-.594v2.754zm-7.748-.041l.447-1.341c.087-.283.162-.572.223-.841h.021c.067.269.135.545.229.847l.453 1.335h-1.373zm.345-2.713l-1.549 4.641h.609l.473-1.46h1.618l.487 1.46h.629l-1.557-4.641h-.71zm1.256-4.24a6.409 6.409 0 0 1-2.805-.685l-.545 2.43c.609.326 1.875.668 3.174.668 3.158 0 4.599-1.614 4.599-3.505 0-1.533-.865-2.577-2.804-3.31-1.363-.523-1.94-.734-1.94-1.289 0-.489.482-.815 1.363-.815 1.075 0 1.875.309 2.34.521l.609-2.363c-.705-.31-1.634-.555-2.917-.555-2.725 0-4.344 1.5-4.344 3.44 0 1.631 1.219 2.642 3.045 3.31 1.219.425 1.699.718 1.699 1.256 0 .555-.481.897-1.474.897m22.535-2.495c0 1.744-.562 2.594-1.716 2.594-1.139 0-1.699-.929-1.699-2.594v-6.243h-2.9v5.999c0 3.522 1.57 5.17 4.519 5.17 3.029 0 4.696-1.713 4.696-5.104v-6.064h-2.9v6.242zm-12.273 2.594h-.034c-1.394 0-2.26-1.371-2.243-3.343 0-1.908.85-3.342 2.243-3.342 1.412 0 2.245 1.434 2.245 3.325 0 1.989-.818 3.36-2.211 3.36m.031-9.016c-3.317 0-5.37 2.542-5.37 5.739 0 3.048 1.843 5.609 5.194 5.609h.017c3.317 0 5.401-2.251 5.401-5.788-.001-2.937-1.763-5.56-5.242-5.56m24.077.179h-8.463v2.478h2.757v8.51h2.9v-8.51h2.805v-2.478zm3.373 10.988v-4.337h3.51v4.337h2.901V54.305h-2.901v4.076h-3.51v-4.076h-2.9v10.988M68 25.1L30.265 1.115 0 20.35l9.003 28.183 15.121-9.611h.001V22.721h19.751v23.913l12.089 4.721z"/><path fill="#FFF" d="M42.324 24.299H25.677v15.229l.99.386V26.557h12.107v18.085l3.55 1.385z"/><path fill="#FFF" d="M28.219 28.135v2.258h6.118V42.91l2.885 1.126V28.135z"/><path opacity=".8" fill="#FFF" d="M55.965 0l-6.938 13.04L68 25.101z"/></svg>