<svg id="Layer_1" xmlns="http://www.w3.org/2000/svg" width="560.8" height="317.8" viewBox="290.4 -133.8 560.8 317.8"><style>.st0{fill:#002856}.st1{fill:#3e577d}</style><path class="st0" d="M361.1-86.9c0-5.6 2.4-8.5 7.7-8.8l.6.3c6.5 0 10.6.9 12.1 2.4 1.8 1.8 2.7 5.9 2.7 12.4-.3 33.9-.3 51.3-.3 52.5-.3 4.4-.3 10.6 0 18 0 9.1.3 15.3.3 18 0 13.6-2.1 24.5-5.6 32.1-5 10.3-12.7 16.8-23.3 19.5-11.8 2.9-28.3 2.4-49.2-1.8-5-.9-8-2.9-8.8-5.9-1.5-6.2-1.2-11.2.9-15 1.2-2.4 3.5-3.2 6.5-2.7 3.8.6 11.2 2.1 21.2 4.1 10.9 2.1 19.2 0 25-6.2 2.4-2.4 3.8-4.4 4.1-6.5 2.1-9.1 2.7-16.5 1.8-22.1-10.9 5-16.5 7.7-17.4 8-10.6 4.1-20.3 2.9-29.2-3.5C300.5.8 294-9.5 291.3-22.7c-1.2-6.2-1.2-14.7.3-25 1.5-11.2 3.8-20.3 6.8-27.7 3.8-8.5 10.9-14.4 21.2-17.4 15.3-4.4 27.7-.6 37.7 11.2l3.5 3.5.3-8.8zm-39.8 66c3.5 13.3 11.8 17.1 24.8 10.9 5-2.4 8-5.9 8.8-10.9 1.2-5.6 2.4-13.6 3.5-24.2.9-8.5-1.8-16.5-8.5-24.2-5.3-6.2-10.9-8.3-17.1-6.5-5.9 1.5-9.7 5.3-11.2 11.5 0 .9-1.2 7.4-3.5 19.5 2.3 15 3.2 23 3.2 23.9zM407.7.3c-7.1-5.9-11.2-13-12.7-21.5-1.8-9.4-2.9-15.6-3.2-19.2-1.5-11.8-.3-21.8 3.5-30.4 5.3-11.2 14.1-18.3 26.5-20.6 8.3-1.5 15.3-2.1 20.6-1.2 2.7.3 4.1.6 4.7.6 7.7 3.5 14.1 8.3 18.9 14.1.9 1.2 2.1 4.1 3.8 8.8 3.8 10.6 5.6 18 5.3 22.1 0 9.7-2.1 18.6-5.6 27.1-2.4 4.7-4.4 9.1-6.5 13.3-3.5 5.9-8.5 9.7-15.6 11.5-.9 0-6.8 1.2-17.4 2.7-7.9 1-15.3-1.7-22.3-7.3zM448.6-53c-1.5-8-4.4-14.1-9.1-18-5.9-5.3-10.9-5.6-15.3-.9-2.4 2.4-3.8 4.4-4.7 6.2-6.2 15.3-7.1 29.8-2.7 42.7.9 2.4 2.1 4.7 3.8 6.8 3.8 4.4 8.3 6.5 13.6 5.6 5.6-.9 9.4-3.8 11.8-9.1 2.4-5.9 3.8-13.6 4.1-22.7-.9-6.5-1.5-10.3-1.5-10.6zM496.1.3c-7.1-5.9-11.2-13-12.7-21.5-1.8-9.4-2.9-15.6-3.2-19.2-1.5-11.8-.3-21.8 3.5-30.4 5.3-11.2 14.1-18.3 26.5-20.6 8.3-1.5 15.3-2.1 20.6-1.2 2.7.3 4.1.6 4.7.6 7.7 3.5 14.1 8.3 18.9 14.1.9 1.2 2.1 4.1 3.8 8.8 3.8 10.6 5.6 18 5.3 22.1 0 9.7-2.1 18.6-5.6 27.1-2.4 4.7-4.4 9.1-6.5 13.3-3.5 5.9-8.5 9.7-15.6 11.5-.9 0-6.8 1.2-17.4 2.7-8.2 1-15.2-1.7-22.3-7.3zM537-53c-1.5-8-4.4-14.1-9.1-18-5.9-5.3-10.9-5.6-15.3-.9-2.4 2.4-3.8 4.4-4.7 6.2-6.2 15.3-7.1 29.8-2.7 42.7.9 2.4 2.1 4.7 3.8 6.8 3.8 4.4 8.3 6.5 13.6 5.6 5.6-.9 9.4-3.8 11.8-9.1 2.4-5.9 3.8-13.6 4.1-22.7-.9-6.5-1.5-10.3-1.5-10.6zm88.2-56.3c0-7.1 0-13.6.3-18.9 0-3.5 2.1-5.6 5.6-5.6 2.9 0 6.8 0 11.5.3 2.9.3 4.7 1.8 5.3 4.7.3 2.7.6 3.8.6 3.8 0 48.3-.3 72.5-.3 72.8 0 30.9.3 47.4.6 48.9.2 1.8.2 3.3.2 4.2-.3 2.9-1.8 4.1-4.4 3.8-5-.3-8.8-.9-11.5-1.2-3.8-.6-5.9-3.5-6.5-8.8-6.8 4.1-10.3 6.5-10.6 6.8-8.3 5-17.1 5-26.5-.3-13-7.4-20-18.3-21.2-32.4-1.2-12.7-.6-23.6 1.8-31.8 1.5-5.3 4.4-11.8 9.4-19.5 2.7-3.8 7.1-6.8 13.6-8.3 6.8-1.8 12.7-1.5 17.1 1.5.6.3 5.6 3.5 15 10v-30zM593-47.4v5.3c0 8.5 1.2 15.9 3.8 22.4 3.5 8.5 9.4 10 17.1 4.7 5.3-3.8 8.5-8.8 9.4-15 .3-2.1.9-8.8 1.5-20.3.3-8-2.4-15-8.3-20.6-8.3-8.3-14.7-7.7-19.5 1.8-1.5 3.2-2.7 6.2-3.2 8.8-.2.8-.5 4.9-.8 12.9z"/><path class="st1" d="M827.6 44.8l-3.5-3.5c-10-11.8-22.4-15.6-37.7-11.2C776 33 769 38.9 765.1 47.5c-3.2 7.4-5.3 16.5-6.8 27.7-1.5 10.6-1.5 18.9-.3 25 2.9 13.3 9.1 23.6 18.9 30.6 8.8 6.5 18.6 7.7 29.2 3.5.6-.3 6.5-2.9 17.4-8 .6 5.6 0 13-1.8 22.1-.3 1.8-1.8 3.8-4.1 6.5-5.9 6.2-14.1 8.3-25 6.2-10.3-2.1-17.4-3.2-21.2-4.1-3.2-.6-5.3.3-6.5 2.7-2.1 3.8-2.4 9.1-.9 15 .6 2.9 3.5 5 8.8 5.9 20.9 3.8 37.4 4.4 49.2 1.8 10.6-2.7 18.3-9.1 23.3-19.5 3.8-7.7 5.6-18.6 5.9-32.1 0-2.9 0-8.8-.3-18-.3-7.7-.3-13.6 0-18 0-.9 0-18.6.3-52.5 0-6.5-.9-10.6-2.7-12.4-1.5-1.5-5.6-2.4-12.1-2.4l-.6-.3c-5.3.3-7.7 3.2-7.7 8.8l-.5 8.8zm-42.4 33.6c2.1-12.1 3.2-18.9 3.5-19.5 1.5-6.2 5.3-10 11.2-11.5 6.2-1.8 12.1.6 17.1 6.5 6.8 7.7 9.4 15.6 8.5 24.2-1.2 10.6-2.4 18.6-3.5 24.2-.9 5-4.1 8.5-8.8 10.9-13.3 6.2-21.5 2.4-25-10.9-.1-.9-1.3-8.6-3-23.9M669.1 61c0 6.5-.3 15.6-.9 27.1-.3 13-.6 21.8-.6 27.1-.3 8.5 3.8 13 12.7 13.3 0 0 .9 0 2.7-.3 5.3-.6 8.3-3.5 8-8.8 0-3.2 0-9.1-.3-17.4-.3-7.4-.3-13-.3-17.4 0-5.6.3-12.7 1.2-21.2.6-5.3 3.8-9.4 9.7-12.4 11.5-5.3 17.7-1.8 19.2 9.7.6 6.8 1.2 17.1 1.5 30.9 0 .6 0 9.4-.3 26.8 0 3.8 1.5 6.2 4.7 7.1 4.1.9 7.1 1.5 8.8 1.8 5 .3 8-2.1 8.8-7.1.3-1.8.3-4.7.3-9.1 0-16.5 0-28.9-.3-37.1 0-10.6-1.8-19.5-4.7-26.8-4.1-9.4-11.2-15-20.9-16.5s-17.4.9-23.6 7.7c0 0-1.2 1.2-3.8 3.2-.9-3.2-1.5-5-1.5-5.3-1.2-3.2-3.2-4.7-6.2-4.7-.9 0-5.6.3-14.1.6l-.1 28.8zm-41.3-28.9c-.6 4.1-.9 6.5-.9 6.8 0 2.1.3 5.9.9 11.8.3 5 .3 8.8.6 11.8.3 18.6.6 35.4.6 50.4 0 10.3 5 15.3 15.3 14.7 2.9-.3 5.3-2.1 6.8-5.6v-10.3c0-16.2-.3-25.6-.3-27.7 0 3.8 0-9.7.3-41 0-5.3-1.2-8.8-3.8-10.9h-19.5zm-50.1 68.7c-1.2-2.7-2.1-4.1-2.1-4.1-4.4-13.9-7.1-22.4-8-25.9-2.4-8.5-5.6-20-9.1-34.2-.9-2.9-2.7-4.4-5.6-4.4-7.1 0-10.9-.3-11.5-.3-4.4 0-6.2 2.4-5 6.8 2.4 9.4 5 18.6 7.7 27.4 1.2 3.5 2.7 8.5 4.7 14.7 2.4 6.8 3.8 11.5 4.7 14.7.9 2.9 2.4 7.1 3.8 12.4 1.5 6.2 2.7 10 3.5 12.4 1.5 4.7 4.4 7.1 9.1 7.1l12.7.3c4.1.3 7.1-1.5 8.8-5.6.3-.9 1.5-4.4 3.5-11.2 6.2-19.5 9.1-29.8 9.7-30.6 1.5-4.7 3.8-11.2 6.8-19.5 3.2-9.7 5.6-16.2 6.8-19.5 1.5-4.1.6-6.8-2.4-7.4-6.2-1.2-11.5-.9-16.5 1.5-.6.3-1.2 1.2-1.8 2.9-1.2 3.5-2.7 8-4.1 13.3-2.7 8.3-6.5 20.6-11.5 37.1l-.3.3c-.4-.3-1.5 3.5-3.9 11.8M504 32.1c-.6 4.1-.9 6.5-.9 6.8 0 2.1.3 5.9.9 11.8.3 5 .3 8.8.6 11.8.3 18.6.6 35.4.9 50.4 0 10.3 5 15.3 15.3 14.7 2.9-.3 5.3-2.1 6.8-5.6v-10.3c0-16.2-.3-25.6-.3-27.7 0 3.8 0-9.7.3-41 0-5.3-1.2-8.8-3.8-10.9H504zm-40.9 25.1V84c0-1.5 0 10.3-.3 34.8 0 4.7 1.8 7.4 5.9 8 3.5.6 7.1.6 10.3.3 4.1-.6 6.2-2.7 6.2-6.8.3-13.3.6-25.9.6-37.7 0-3.5.3-14.7.6-60.4V10.6c-.3-3.8-2.4-6.2-6.5-6.8-.6 0-3.5-.3-9.1-.9-5-.3-7.4 1.8-7.4 6.8 0 2.1 0 5 .3 9.1 0 4.1.3 7.1.3 9.1v29.5l-.9-.2z"/><path class="st0" d="M307.2 179.7c-3 .3-5.5-1-7.6-3.7-1.4-1.8-2.4-4.2-3-7.1-.8-4.4-.3-8.6 1.6-12.7.9-2 2.3-3.7 4.1-5.2.2-.1.4-.3.5-.3 2.7-1.4 5.4-1.8 8-1.2.6.1 1 .4 1.4.7.2.2.3.5.2.7-.1.3-.3.3-.6.2-.6-.2-1.7-.4-3.2-.4-1.3 0-2.7.2-4 .8-1.5.7-2.8 1.8-3.9 3.4-2.1 3.1-3 6.7-2.9 10.6.1 2.6.7 4.9 1.6 6.9.8 1.8 2 3.2 3.5 4.4 1.1.9 2.3 1.3 3.6 1.2.9 0 1.7 0 2.2-.1 1.1-.1 2-.3 2.6-.6.4-.2.8-.3 1.1-.2.7.2.8.6.3 1.2-.2.2-.4.3-.7.5-1 .6-2.3.9-3.8.9h-1zm10.6-17.1c.6-2.8 2.4-4.5 5.3-5.1 1.6-.3 3 .1 4.5 1.4 1.4 1.2 2.4 2.6 2.8 4 .4 1.4.6 2.8.7 4.3.1 2.5-.1 4.6-.5 6.2-.3 1.2-.6 2-.8 2.7-.8 2.1-2.4 3.4-4.8 4-1.6.4-3.1-.1-4.7-1.3-1.4-1.1-2.3-2.8-2.7-5.2-.4-2-.5-3.7-.4-5.2.1-2.9.3-4.8.6-5.8zm11.8 3.6c0-1.6-.4-3.1-1.3-4.5-1.6-2.5-3.6-3.4-6-2.5-.7.3-1.3.6-1.8 1.1-.8.8-1.4 2-1.6 3.6-.4 3-.5 5.5-.3 7.7.2 1.3.5 2.5.9 3.6.6 1.3 1.4 2.3 2.5 2.9 3 1.5 5.1.7 6.3-2.5 1-2.5 1.4-4.9 1.3-7.4v-2zm10.6-7.6c1.9-1.3 3.8-1.5 5.8-.6.7.3 1.2.8 1.5 1.6.8 1.9 1.2 3.6 1.3 5.1v9c.1.7.1 1.1.1 1.3.1 1.9.1 2.9.2 3.1.1.4.1.8 0 1.2 0 .2-.2.5-.4.8-.3.4-.6.3-.8-.2-.1-.3-.2-.6-.2-.8-.1-1.4-.1-2.7-.1-3.7s-.1-2.5-.1-4.7c0-2-.1-3.5-.1-4.7 0-2-.4-3.8-1-5.2-.5-1.1-1.2-1.7-2.4-1.8-.8-.1-1.5 0-2.3.4-1.9.9-3.1 2.1-3.6 3.8-.1.4-.2 1-.2 1.6v9.5c0-.9 0 .6.2 4.6 0 .4 0 .9-.1 1.3 0 .1-.2.3-.4.4-.3.1-.5 0-.6-.3-.2-.6-.3-1-.3-1.4-.2-1.5-.3-4.5-.3-9.1V158c0-.2 0-.5.1-.8.1-.4.3-.4.6-.2s.5.6.5 1.2c0 .1.1.9.2 2.3 1.5-1.2 2.3-1.8 2.4-1.9zm18.6 0c1.9-1.3 3.8-1.5 5.8-.6.7.3 1.2.8 1.5 1.6.8 1.9 1.2 3.6 1.3 5.1v9c.1.7.1 1.1.1 1.3.1 1.9.1 2.9.2 3.1.1.4.1.8 0 1.2 0 .2-.2.5-.4.8-.3.4-.6.3-.8-.2-.1-.3-.2-.6-.2-.8-.1-1.4-.1-2.7-.1-3.7s-.1-2.5-.1-4.7c0-2-.1-3.5-.1-4.7 0-2-.4-3.8-1-5.2-.5-1.1-1.2-1.7-2.4-1.8-.8-.1-1.5 0-2.3.4-1.9.9-3.1 2.1-3.6 3.8-.1.4-.2 1-.2 1.6v9.5c0-.9 0 .6.2 4.6 0 .4 0 .9-.1 1.3 0 .1-.2.3-.4.4-.3.1-.5 0-.6-.3-.2-.6-.3-1-.3-1.4-.2-1.5-.3-4.5-.3-9.1V158c0-.2 0-.5.1-.8.1-.4.3-.4.6-.2s.5.6.5 1.2c0 .1.1.9.2 2.3 1.6-1.2 2.3-1.8 2.4-1.9zm25.9 2.8c.6 1.5.8 3 .6 4.4-.2 1-.3 1.6-.3 1.8-.1.7-.6 1.2-1.4 1.2-.9.1-1.6.1-1.9.1h-3c-1.5.1-2.5.1-3 .1-.1 0-.5.1-1.4.2-.2 1.3-.1 2.4.3 3.3.7 1.8 1.3 3 2 3.7.6.7 1.4 1.2 2.4 1.5 1.7.5 3.2.3 4.5-.5.5-.3.9-.1 1.4.4-.3.6-.8 1-1.4 1.3-4.2 1.8-7.3.6-9.3-3.7-.8-1.6-1.2-3.3-1.2-5 0-.1 0-.4-.1-.8 0 .8.1.2.2-1.9.1-.4.1-.6.1-.8 0-1.8.5-3.6 1.7-5.3 1.1-2 2.8-3 5-3.2.3 0 .6 0 .8.1 1.3.4 2.3.9 3 1.5.4.6.8 1.1 1 1.6zm-.9 5.8c.5-1.7.5-3.4-.2-5.1-.1-.4-.3-.7-.6-.8-1-.9-2.2-1.4-3.3-1.4-1.6 0-2.8.7-3.7 2.1-.7 1.1-1.2 2.3-1.4 3.6-.2 1.1-.3 1.8-.2 2.1 2.9-.1 4.4-.1 4.7-.2 3.9-.4 5.4-.5 4.7-.3zm16.9-7.7c-.2-.1-.3-.1-.4-.1-1.6-.7-3.5-.5-5.6.5-.3.1-.7.4-1.1.8-.9 1-1.5 2.3-1.8 4-.3 1.8-.5 3.2-.5 4 0 2.5.4 4.6 1.3 6.2 1 1.8 2.6 3 4.8 3.6 1.3.4 2.4.3 3.5 0 .5-.2.9-.1 1.3.2.1.5-.1.9-.5 1.1-.5.2-.9.4-1.2.4-3.5.4-6.4-.9-8.6-3.7-.6-.7-1-1.8-1.4-3.2-.7-3-.7-6 .1-9.1.4-1.5.9-2.6 1.5-3.5.6-.8 1.2-1.4 1.9-1.8 2.6-1.5 5.2-1.5 7.6 0-.2.4-.4.7-.9.6zm10.9-1.5h1.4c.3.1.5.2.7.4.2.2.3.4.2.7-.1.3-.3.4-.5.4H410c-.3.9-.4 2.2-.3 4 .1 4 .2 6.2.2 6.5 0 2.6.1 4.4.3 5.5.1.8.3 1.4.4 1.9.3.8.9 1.2 1.7 1.1.7-.1.9-.1.7-.1.3 0 .4.1.5.2.1.3.1.5 0 .7-.3.3-.5.5-.8.6-1.6.4-2.7-.2-3.4-1.6-.4-.8-.6-1.7-.7-2.7-.1-1.1-.2-3.6-.3-7.6 0-.6-.1-1.5-.1-2.6-.1-1.2-.1-2.1-.1-2.6v-3c-.5-.1-.7-.2-.7-.2-.2 0-.6-.1-1.1-.1-.5 0-.9-.1-1.1-.1-.7-.1-.8-.5-.5-1.4 3-.2 4.1-.2 3.5 0 .3-.7.4-1.7.3-3.1-.1-.5-.1-1.1-.1-1.7 0-.4.2-.5.6-.3.4.2.6.6.6 1.1 0 .3.1 1.5.3 3.8.4.1.9.2 1.7.2zm34.2 16.1s0-.1.1-.2c.2-.9.5-2.1.8-3.6.4-1.8.7-3 .8-3.6.6-2.6 1-4.3 1.3-5.2.1-.6.5-1.8 1.1-3.6.1-.4.4-.5.8-.4.5.1.6.4.6.9 0 0 0 .1-.1.4-.5 1.4-.9 3.3-1.4 5.6-.1.6-.3 1.4-.6 2.3-.3 1.1-.5 1.9-.6 2.3-.2.7-.4 1.7-.7 3-.3 1.4-.5 2.4-.7 3-.3 1.4-.6 2.7-1 3.9-.2.7-.8 1.2-1.7 1.3-.3-.5-.5-.8-.5-.8-.6-1.4-1.1-2.8-1.4-4.3-.1-.3-.9-3.3-2.5-9-.3-.9-.5-1.7-.6-2.3-.2-.7-.6-1.9-1.3-3.6l-.3.6c-.5 3-.7 4.5-.6 4.4 0-.1-.5 2.4-1.4 7.4-.1.8-.5 2.6-1.1 5.4-.1.4-.2.7-.4 1.1-.2.5-.5.7-1 .6-.9-.2-1.4-.6-1.6-1.2-.2-.7-.5-1.9-1-3.6-.6-2.1-1.2-3.8-1.6-5.1-.1-.3-1.1-4-3-11.3-.1-.4-.1-.8.2-1h.4c.1 0 .3.1.7.3 1.1 4.4 1.6 6.7 1.7 7 .3 1 1 3.4 2.2 7.2-.1-.4.3.8 1.3 3.8 0 .1.1.5.4 1.4.2-.1.3-.1.3-.2.1-.1.1-.3.2-.4.6-3.2 1.1-5.4 1.3-6.7.1-.5.2-1.2.3-2 .2-1 .3-1.7.4-2 0-.2.2-1.1.5-2.6.5-2.4.8-4 .9-4.6 0 0 .1-.2.2-.5.3-.1.4-.1.5-.1.9 0 1.5.4 1.7 1.2.3.9.7 1.8 1.1 2.7.3.6.6 1.5.9 2.8-.1-.4.8 3 2.7 10.3.2.7.3 1.3.5 1.8 0 0 .2.2.4.6.5-2.3.8-3.4.8-3.4zm10.5-21.7c-.3 0-.5-.1-.8-.3-1.2-1-1.2-2.1.2-3.4.1-.1.3-.1.4-.1 1.2.1 1.8.7 1.9 1.9.1 1.3-.5 1.9-1.7 1.9zm.8 16.7c0 .7 0 1.8-.1 3.2-.1 1.2 0 3.2.2 6.2 0 0 .1.3.2 1 .1.4-.1.7-.5.9-.4.2-.7 0-.9-.4l-.3-1.2c-.1-3.1-.1-5.2-.1-6.4v-8.8c-.1-1.1-.1-2.6-.2-4.6v-1.6c.1-.8.5-.9 1.3-.4.2 7 .4 11 .4 12.1zM468 158h1.4c.3.1.5.2.7.4.2.2.3.4.2.7-.1.3-.3.4-.5.4h-3.4c-.3.9-.4 2.2-.3 4 .1 4 .2 6.2.2 6.5 0 2.6.1 4.4.3 5.5.1.8.3 1.4.4 1.9.3.8.9 1.2 1.7 1.1.7-.1.9-.1.7-.1.3 0 .4.1.5.2.1.3.1.5 0 .7-.3.3-.5.5-.8.6-1.6.4-2.7-.2-3.4-1.6-.4-.8-.6-1.7-.7-2.7-.1-1.1-.2-3.6-.3-7.6 0-.6-.1-1.5-.1-2.6-.1-1.2-.1-2.1-.1-2.6v-3c-.5-.1-.7-.2-.7-.2-.2 0-.6-.1-1.1-.1-.5 0-.9-.1-1.1-.1-.7-.1-.8-.5-.5-1.4 3-.2 4.1-.2 3.5 0 .3-.7.4-1.7.3-3.1-.1-.5-.1-1.1-.1-1.7 0-.4.2-.5.5-.3.4.2.6.6.6 1.1 0 .3.1 1.5.3 3.8.5.1 1 .2 1.8.2zm8.9 3.1c.2-.3.6-.6 1-1l1-1c.8-.8 1.8-1.3 3-1.6 1-.2 2 0 3 .6 0 0 .1.1.2.1.1.1.1.1.2.1 1.7 1 2.6 2.8 2.7 5.3.1 1 .1 2.3 0 3.7 0 .6-.1 1.4-.1 2.4-.1 1.2-.1 2-.2 2.4v2c-.1 3.7-.1 5.4-.1 4.9 0 .4-.2.8-.5.9-.4.2-.6.1-.7-.3-.1-.5-.2-1-.2-1.3v-3.2c0 .2.1-1.9.3-6.5.1-.9.1-2.7 0-5.5 0-.1-.1-.5-.2-1.2-.2-1.5-1.1-2.5-2.5-3.2-1.1-.5-2.2-.3-3.3.5-1.3 1-2.5 2.3-3.6 3.9-.3.4-.4.9-.5 1.4v5c.1 1.4.1 2.4.1 3.1v6.5c-.1.4-.4.6-.8.6-.3 0-.5-.2-.6-.5-.1-.4-.1-.8-.1-1.2-.1-3.2-.1-5.7-.1-7.6v-6.1c0-3.4-.1-5.6-.2-6.7-.1-1.5-.1-3.9 0-7.3 0-1.2.1-2 .1-2.4 0-.4.1-.7.1-1 .1-.3.3-.4.6-.3.3.1.4.2.5.4.1.1.1.4.1.8v2.7c0 1.2-.1 2.1-.1 2.8 0 .1 0 .8.1 2.1.1 2.8.1 4.6.2 5.2l.1.7c.3 0 .5-.2.5-.2zm27.6 16.5c.8.4 2 .7 3.6.9 1.5.2 2.8-.1 3.9-.9 1.2-.8 1.9-1.9 2-3.5v-.9c.3-2-.5-3.8-2.2-5.5-.2-.2-1.2-1-3-2.5-1.3-1.1-2.4-2.3-3.3-3.4-.7-.9-1.1-1.9-1.3-2.9-.6-3-.1-5.5 1.6-7.7.7-.9 1.7-1.5 3-1.6 1.8-.3 3.7 0 5.7.9.1 0 .1.1.2.2.3.3.3.5.2.6-.2.2-.4.3-.6.3l-.8-.2c-1.6-.5-3.2-.6-4.7-.4-.8.1-1.5.6-2 1.2-1.5 1.9-1.8 4.3-.9 7.2.1.2.3.6.8 1.2 1.1 1.5 2.6 3 4.6 4.6 1.2 1 1.9 1.6 2.1 1.8 1.4 1.5 2.1 3.1 2.2 4.9 0 .8-.1 1.8-.2 2.9-.2 1.6-1 3-2.4 4-1.5 1-3.2 1.4-5.2 1.2-1.3-.1-2.6-.5-4.1-1.1-.5-.2-.8-.6-.9-1.3.5-.3 1.1-.3 1.7 0zm25.1-7.1c-2.5.1-4.4.3-5.7.4-.4.5-.6 1-.8 1.6-.9 3.1-1.3 4.3-1 3.4-.3.8-.6 1.9-1 3.1-.1.3-.3.6-.4.9-.2.3-.4.4-.7.3-.3-.1-.5-.4-.5-.7v-.6c.5-1.5 1-3 1.5-4.6 2-6.2 3.1-9.4 3.2-9.7.9-2.8 1.8-5.5 2.8-8.1.2-.4 1.1-2.5 2.7-6.1 0 0 .2-.4.5-1.2.4-.1.8 0 1.1.4.1.2.3.4.3.6.7 1.8 1.2 3.2 1.4 4.2 0 .1.5 2.4 1.6 7.1.6 2.5.8 3.4.6 2.6.5 1.7.9 3.4 1.4 5.2.5 1.7 1.1 3.8 1.8 6.2.1.3.4 1 .8 2.2.2.6.2 1 .1 1.3-.1.3-.3.4-.5.5-.3.1-.5 0-.6-.3-.2-.4-.4-1-.6-1.5.5 1.7-.2-.6-2.1-6.9l-.3-.8c-1 .3-2.9.4-5.6.5zm2.4-1.6s.8-.1 2.3-.2l.6-.1v-.2c-1.7-7.2-2.6-10.8-2.6-11 .3 1.2 0-.3-1-4.8 0 0-.2-.4-.4-1.2-.5.7-1 1.8-1.6 3.3-1.5 3.7-2.9 7.8-4.3 12.2 0 .1-.3.8-.8 2.4 5.2-.2 7.8-.4 7.8-.4zm13.3-20.7c-.5 1.4-.9 3.4-1.4 6-.1.3-.2.7-.3 1.2 0 .2-.1.3-.1.4-.3.5-.6.7-1.1.4-.3-.2-.4-.5-.3-.8.5-2 .9-3.7 1.2-5.3.1-.4.3-1.2.7-2.5.1-.2.1-.5.2-.7.2-.4.5-.5.8-.2 0 0 .2.3.5.7-.1.5-.2.8-.2.8zm9.6 9.5c.7-.1 1.7.2 2.9.9.4.3.5.6.3.9-.2.3-.5.4-.9.1-.6-.4-1.5-.5-2.9-.5-1.1.1-2.1.6-2.9 1.6-.5.6-.7 1.6-.8 3.1 0 .3.2.7.6 1.2.4.4.9.8 1.4 1.1 1.3.7 2.9 2.1 4.9 4 1.6 1.6 2 3.6 1.2 6-.7 2.3-2.4 3.7-4.9 4.3-.5.1-1 .1-1.8-.2-.5-.2-1.6-.6-3.3-1.3-.1-.1-.3-.2-.4-.4-.2-.2-.3-.5-.1-.8.1-.2.3-.3.6-.3.7.2 1.1.4 1.4.4.2.1.4.1.7.3.3.1.5.3.6.3 1.6.6 3 .4 4.4-.7 1.4-1.1 1.9-2.5 1.7-4.3-.1-.8-.4-1.6-1.1-2.2-.9-.8-2-1.8-3.3-2.9-.7-.6-1.5-1.2-2.3-1.7-1.2-.7-1.7-2-1.6-3.8.1-3.2 1.8-5 5-5.2l.6.1zm29.9 3.7c.6 1.5.8 3 .6 4.4-.2 1-.3 1.6-.3 1.8-.1.7-.6 1.2-1.4 1.2-.9.1-1.6.1-1.9.1h-3c-1.5.1-2.5.1-3 .1-.1 0-.5.1-1.4.2-.2 1.3-.1 2.4.3 3.3.7 1.8 1.3 3 2 3.7.6.7 1.4 1.2 2.4 1.5 1.7.5 3.2.3 4.5-.5.5-.3.9-.1 1.4.4-.3.6-.8 1-1.4 1.3-4.2 1.8-7.3.6-9.3-3.7-.8-1.6-1.2-3.3-1.2-5 0-.1 0-.4-.1-.8 0 .8.1.2.2-1.9.1-.4.1-.6.1-.8 0-1.8.5-3.6 1.7-5.3 1.1-2 2.8-3 5-3.2.3 0 .6 0 .8.1 1.3.4 2.3.9 3 1.5.5.6.8 1.1 1 1.6zm-.9 5.8c.5-1.7.5-3.4-.2-5.1-.1-.4-.3-.7-.5-.8-1-.9-2.2-1.4-3.3-1.4-1.6 0-2.8.7-3.7 2.1-.7 1.1-1.2 2.3-1.4 3.6-.2 1.1-.3 1.8-.2 2.1 2.9-.1 4.4-.1 4.7-.2 3.9-.4 5.4-.5 4.6-.3zm10.6-8.6c1.9-1.3 3.8-1.5 5.8-.6.7.3 1.2.8 1.5 1.6.8 1.9 1.2 3.6 1.3 5.1v9c.1.7.1 1.1.1 1.3.1 1.9.1 2.9.2 3.1.1.4.1.8 0 1.2 0 .2-.2.5-.4.8-.3.4-.6.3-.8-.2-.1-.3-.2-.6-.2-.8-.1-1.4-.1-2.7-.1-3.7s-.1-2.5-.1-4.7c0-2-.1-3.5-.1-4.7 0-2-.4-3.8-1-5.2-.5-1.1-1.2-1.7-2.4-1.8-.8-.1-1.5 0-2.3.4-1.9.9-3.1 2.1-3.6 3.8-.1.4-.2 1-.2 1.6v9.5c0-.9 0 .6.2 4.6 0 .4 0 .9-.1 1.3 0 .1-.2.3-.4.4-.3.1-.5 0-.6-.3-.2-.6-.3-1-.3-1.4-.2-1.5-.3-4.5-.3-9.1V158c0-.2 0-.5.1-.8.1-.4.3-.4.6-.2s.5.6.5 1.2c0 .1.1.9.2 2.3 1.6-1.2 2.3-1.8 2.4-1.9zm20.4 17c.2-.5.3-1.1.5-1.9.4-1.8.9-3.8 1.6-6.2.1-.1.9-3.1 2.7-8.9.2-.6.3-1 .4-1.3.2-.4.5-.5.8-.2l.2.2s.1.1.3.4c-.1.4-.3.8-.3 1.1-1.1 3.8-1.7 6-1.9 6.5-.5 1.9-.7 2.5-.5 1.8-1.5 5.8-2.2 8.3-2 7.7-.1.3-.5 1.5-1.1 3.5-.1.1-.2.3-.3.7-.2.4-.5.5-.9.5-.5 0-.7-.2-.9-.6-1.1-3.2-1.7-5-1.9-5.3 0 .1-1-3.7-3.1-11.4-.1-.3-.3-.8-.4-1.3-.2-.7-.3-1.1-.4-1.4-.2-.5-.3-1-.4-1.4-.1-.5 0-.8.3-.8.3-.1.6.1.8.5.4 1 .6 1.6.8 2 .1.3.5 2 1.4 5.3.1.3.1.5.2.6.4 1 .8 2.4 1.3 4.2.5 2 .9 3.4 1.2 4.2.8 2.4 1.2 3.4 1 2.9l.2.2c-.1-.2.1-.7.4-1.6zm11.4-23.2c-.3 0-.5-.1-.8-.3-1.2-1-1.2-2.1.2-3.4.1-.1.3-.1.4-.1 1.2.1 1.8.7 1.9 1.9.1 1.3-.5 1.9-1.7 1.9zm.8 16.7c0 .7 0 1.8-.1 3.2-.1 1.2 0 3.2.2 6.2 0 0 .1.3.2 1 .1.4-.1.7-.5.9-.4.2-.7 0-.9-.4l-.3-1.2c-.1-3.1-.1-5.2-.1-6.4v-8.8c-.1-1.1-.1-2.6-.2-4.6v-1.6c.1-.8.5-.9 1.3-.4.2 7 .4 11 .4 12.1zm7.4-8.7c.2.1.4 0 .6-.2.6-.8.9-1.2.9-1.1 1.2-1.3 2.6-1.8 4.2-1.4.4.1.6.3.5.6 0 .2-.1.4-.3.7-.1.1-.2.1-.4.2h-.5c-1-.1-1.9.3-2.7 1.2-.5.6-1.2 1.8-2 3.4-.1.1-.1.5 0 1.2.2 4.4.3 6.2.3 5.2v5.4c0 1.1 0 2.4.1 3.7 0 .4-.1.6-.3.8-.3.4-.6.4-.9.3-.3-.1-.4-.4-.4-.7-.1-1.6-.1-3 0-4.3.1-3.6 0-7.5-.4-11.7 0-.3-.1-1.8-.2-4.6v-.6c.1-.4.3-.6.7-.5 0 0 .2.1.5.3.2.4.2 1.3.3 2.1zm9.7 2.2c.6-2.8 2.4-4.5 5.3-5.1 1.6-.3 3 .1 4.5 1.4 1.4 1.2 2.4 2.6 2.8 4 .4 1.4.6 2.8.7 4.3.1 2.5-.1 4.6-.5 6.2-.3 1.2-.6 2-.8 2.7-.8 2.1-2.4 3.4-4.8 4-1.5.4-3.1-.1-4.7-1.3-1.4-1.1-2.3-2.8-2.7-5.2-.4-2-.5-3.7-.4-5.2.1-2.9.4-4.8.6-5.8zm11.8 3.6c0-1.6-.4-3.1-1.3-4.5-1.6-2.5-3.6-3.4-6-2.5-.7.3-1.3.6-1.8 1.1-.8.8-1.4 2-1.6 3.6-.4 3-.5 5.5-.3 7.7.2 1.3.5 2.5.9 3.6.6 1.3 1.4 2.3 2.5 2.9 3 1.5 5.1.7 6.3-2.5 1-2.5 1.4-4.9 1.3-7.4v-2zm10.6-7.6c1.9-1.3 3.8-1.5 5.8-.6.7.3 1.2.8 1.5 1.6.8 1.9 1.2 3.6 1.3 5.1v9c.1.7.1 1.1.1 1.3.1 1.9.1 2.9.2 3.1.1.4.1.8 0 1.2 0 .2-.2.5-.4.8-.3.4-.6.3-.8-.2-.1-.3-.2-.6-.2-.8-.1-1.4-.1-2.7-.1-3.7s-.1-2.5-.1-4.7c0-2-.1-3.5-.1-4.7 0-2-.4-3.8-1-5.2-.5-1.1-1.2-1.7-2.4-1.8-.8-.1-1.5 0-2.3.4-1.9.9-3.1 2.1-3.6 3.8-.1.4-.2 1-.2 1.6v9.5c0-.9 0 .6.2 4.6 0 .4 0 .9-.1 1.3 0 .1-.2.3-.4.4-.3.1-.5 0-.6-.3-.2-.6-.3-1-.3-1.4-.2-1.5-.3-4.5-.3-9.1V158c0-.2 0-.5.1-.8.1-.4.3-.4.6-.2s.5.6.5 1.2c0 .1.1.9.2 2.3 1.6-1.2 2.3-1.8 2.4-1.9zm25.5 10.7c.1-2.7 0-5.3-.3-7.6-.2-1.5-.9-2.4-2.2-2.8-1.4-.3-2.5-.1-3.4.7-1.4 1.2-2.4 2.7-3 4.6-.1.3-.1 1-.1 2 0 4 .1 7.5.1 10.4 0 .3 0 .7.1 1.2.1.6.1 1 .1 1.2 0 .4-.1.7-.2 1-.1.2-.3.3-.5.4-.3 0-.5-.2-.6-.5v-.4c-.1-2.1-.1-3.4-.1-4-.1-6.5-.2-11.2-.2-14.2 0-.6 0-1.8.1-3.6 0-.3.1-.5.4-.4.2 0 .4.1.6.3.1.1.1.2.1.4v.9c0 .9.1 1.5.3 2 1-1.2 1.5-1.8 1.6-1.9.5-.5 1-.9 1.6-1.3.7-.4 1.5-.6 2.6-.5 2 .1 3.4 1.3 4.2 3.7.9-1.1 1.3-1.7 1.4-1.7.6-.8 1.4-1.4 2.5-1.7 2.5-.9 4.5-.2 5.8 2 .8 1.4 1.2 2.8 1.2 4.3v7.9c0 2-.1 3.4-.1 4.3v3c0 .8-.3 1.1-.8 1-.4-.1-.6-.4-.6-1v-1.6c.1-5.2.2-9.8.2-13.7 0-1.8-.6-3.3-1.9-4.4-.4-.4-1-.6-1.7-.7-1.6-.1-3 .5-4.2 2-.2.2-.7 1.2-1.6 3-.1.1-.1.5-.1 1 .1 3 .1 4.4.1 4v3.3c-.1 1.7-.1 2.8-.1 3.3v4c0 .4-.2.7-.5.8-.2.1-.5 0-.8-.4-.3-.5-.2-4 0-10.3zm28.7-7.9c.6 1.5.8 3 .6 4.4-.2 1-.3 1.6-.3 1.8-.1.7-.6 1.2-1.4 1.2-.9.1-1.5.1-1.9.1h-3c-1.5.1-2.5.1-3 .1-.1 0-.5.1-1.4.2-.2 1.3-.1 2.4.3 3.3.7 1.8 1.3 3 2 3.7.6.7 1.4 1.2 2.4 1.5 1.7.5 3.2.3 4.5-.5.5-.3.9-.1 1.4.4-.3.6-.8 1-1.4 1.3-4.2 1.8-7.3.6-9.3-3.7-.8-1.6-1.2-3.3-1.2-5 0-.1 0-.4-.1-.8 0 .8.1.2.2-1.9.1-.4.1-.6.1-.8 0-1.8.5-3.6 1.7-5.3 1.1-2 2.8-3 5-3.2.3 0 .6 0 .8.1 1.3.4 2.3.9 3 1.5.5.6.8 1.1 1 1.6zm-.9 5.8c.5-1.7.5-3.4-.2-5.1-.1-.4-.3-.7-.5-.8-1-.9-2.2-1.4-3.3-1.4-1.6 0-2.8.7-3.7 2.1-.7 1.1-1.2 2.3-1.4 3.6-.2 1.1-.3 1.8-.2 2.1 2.9-.1 4.4-.1 4.7-.2 3.8-.4 5.4-.5 4.6-.3zm10.6-8.6c1.9-1.3 3.8-1.5 5.8-.6.7.3 1.2.8 1.5 1.6.8 1.9 1.2 3.6 1.3 5.1v9c.1.7.1 1.1.1 1.3.1 1.9.1 2.9.2 3.1.1.4.1.8 0 1.2 0 .2-.2.5-.4.8-.3.4-.6.3-.8-.2-.1-.3-.2-.6-.2-.8-.1-1.4-.1-2.7-.1-3.7s-.1-2.5-.1-4.7c0-2-.1-3.5-.1-4.7 0-2-.4-3.8-1-5.2-.5-1.1-1.2-1.7-2.4-1.8-.8-.1-1.5 0-2.3.4-1.9.9-3.1 2.1-3.6 3.8-.1.4-.2 1-.2 1.6v9.5c0-.9 0 .6.2 4.6 0 .4 0 .9-.1 1.3 0 .1-.2.3-.4.4-.3.1-.5 0-.6-.3-.2-.6-.3-1-.3-1.4-.2-1.5-.3-4.5-.3-9.1V158c0-.2 0-.5.1-.8.1-.4.3-.4.6-.2s.5.6.5 1.2c0 .1.1.9.2 2.3 1.6-1.2 2.3-1.8 2.4-1.9zm18.2-1.6h1.5c.3.1.5.2.8.4.2.2.3.5.2.7-.1.3-.3.4-.5.4h-3.6c-.3.9-.4 2.3-.3 4.2.1 4.2.2 6.5.2 6.8 0 2.7.1 4.6.3 5.7.1.8.3 1.5.4 2 .3.8.9 1.2 1.8 1.2.7-.1 1-.1.8-.1.3 0 .4.1.5.2.1.3.1.6 0 .7-.3.3-.5.5-.8.6-1.7.4-2.9-.2-3.5-1.7-.4-.8-.6-1.8-.8-2.8-.1-1.2-.2-3.8-.3-7.9 0-.6-.1-1.5-.1-2.7-.1-1.2-.1-2.2-.1-2.7v-3.2c-.5-.1-.7-.2-.8-.2-.2 0-.6-.1-1.2-.1-.5 0-.9-.1-1.2-.1-.7-.1-.9-.6-.5-1.4 3.1-.2 4.3-.2 3.7 0 .3-.7.4-1.8.3-3.2-.1-.5-.1-1.1-.1-1.8 0-.4.2-.5.6-.3.4.2.6.6.7 1.1 0 .3.1 1.6.3 4 .3.1.8.2 1.7.2z"/></svg>