<svg xmlns="http://www.w3.org/2000/svg" width="175" height="60" viewBox="-241.5 84.5 175 60"><path fill="#878787" d="M-78.835 131.798v-8.215h6.752v8.215h5.58v-20.816h-5.58v7.721h-6.752v-7.721h-5.578v20.816m-.908-20.817h-16.276v4.696h5.303v16.12h5.58v-16.12h5.394v-4.696zm-46.309-.339c-6.379 0-10.328 4.818-10.328 10.871 0 5.776 3.549 10.625 9.991 10.625h.029c6.381 0 10.39-4.262 10.39-10.965 0-5.559-3.391-10.531-10.082-10.531m-.061 17.081h-.061c-2.683 0-4.344-2.597-4.313-6.333 0-3.611 1.634-6.33 4.313-6.33 2.715 0 4.315 2.719 4.315 6.299 0 3.767-1.572 6.364-4.254 6.364m23.606-4.911c0 3.303-1.08 4.911-3.298 4.911-2.19 0-3.27-1.762-3.27-4.911v-11.828h-5.578v11.366c0 6.67 3.022 9.79 8.693 9.79 5.827 0 9.031-3.244 9.031-9.67v-11.486h-5.579v11.828zm-43.34 4.723c-2.097 0-4.131-.649-5.396-1.299l-1.049 4.606c1.176.616 3.609 1.263 6.104 1.263 6.072 0 8.847-3.057 8.847-6.641 0-2.902-1.664-4.879-5.394-6.27-2.62-.986-3.73-1.389-3.73-2.438 0-.926.925-1.543 2.621-1.543 2.063 0 3.604.586 4.501.988l1.169-4.479c-1.357-.586-3.143-1.05-5.61-1.05-5.24 0-8.352 2.842-8.352 6.516 0 3.09 2.343 5.003 5.856 6.27 2.344.804 3.267 1.36 3.267 2.378.001 1.05-.921 1.699-2.834 1.699m-2.414 8.033l-2.981 8.789h1.173l.911-2.764h3.109l.938 2.764h1.208l-2.99-8.789h-1.368zm-.664 5.137l.859-2.542c.168-.534.312-1.084.429-1.591h.04c.129.507.259 1.029.441 1.601l.873 2.53h-2.643v.002zm14.902.08c0 1.927-.847 2.791-2.136 2.791-1.172 0-2.044-.835-2.044-2.791v-5.22h-1.145v5.18c0 2.738 1.353 3.755 3.149 3.755 1.897 0 3.317-1.098 3.317-3.797v-5.138h-1.145v5.22h.004zm9.408-1.408c-1.211-.472-1.744-.876-1.744-1.683 0-.602.456-1.318 1.652-1.318.794 0 1.379.247 1.653.418l.312-.941c-.377-.208-1.041-.416-1.927-.416-1.703 0-2.836 1.016-2.836 2.386 0 1.228.887 1.981 2.316 2.479 1.186.443 1.652.926 1.652 1.747 0 .888-.677 1.485-1.836 1.485a3.921 3.921 0 0 1-2.016-.562l-.3.942c.468.311 1.392.572 2.237.572 2.068 0 3.059-1.187 3.059-2.53.002-1.29-.739-1.995-2.222-2.579m21.877.794v-.04c.913-.314 1.652-1.081 1.652-2.229 0-.693-.26-1.292-.69-1.672-.546-.496-1.339-.729-2.552-.729-.766 0-1.598.077-2.17.196v8.658h1.133v-3.807h1.065c1.029.037 1.508.495 1.771 1.707.235 1.097.431 1.839.571 2.1h1.17c-.166-.34-.376-1.188-.661-2.412-.223-.911-.624-1.536-1.289-1.772m-1.472-.482h-1.155v-3.197c.195-.053.571-.104 1.118-.104 1.197 0 2.018.495 2.018 1.628-.001 1.006-.769 1.673-1.981 1.673m10.831-4.121l-2.982 8.789h1.173l.909-2.764h3.111l.936 2.764h1.213l-2.992-8.789h-1.368zm-.663 5.137l.856-2.542c.17-.534.312-1.084.43-1.591h.039c.131.507.259 1.029.441 1.601l.872 2.53h-2.639v.002zm11.112-5.137h-1.146v8.789h4.895v-.954h-3.748v-7.835zm-34.971.965h2.668v7.824h1.146v-7.824h2.681v-.965h-6.495v.965zm53.986-.965h-1.365l-2.981 8.789h1.173l.91-2.764h3.11l.938 2.764h1.209l-2.994-8.789zm-2.031 5.137l.859-2.542c.171-.534.312-1.084.43-1.591h.04c.131.507.26 1.029.443 1.601l.871 2.53h-2.644v.002zm-8.446 3.652h1.145v-8.789h-1.145v8.789z"/><path fill="#E30613" d="M-161.024 113.755l-44.66-27.954-35.816 22.421 10.654 32.846 17.898-11.201v.001-18.885h23.374v27.871l14.306 5.503"/><path fill="#EF7900" d="M-191.412 112.822h-19.701v17.75l1.172.449v-15.568h14.33v21.08l4.203 1.616"/><path fill="#FCBF00" d="M-208.104 117.294v2.63h7.24v14.59l3.414 1.313v-18.533"/><path fill="#B51F1F" d="M-175.268 84.5l-8.21 15.201 22.455 14.054"/></svg>