<svg xmlns="http://www.w3.org/2000/svg" viewBox="0 0 63.13 62.37">
  <defs>
    <style>
      .a {
        fill: #fff;
      }
    </style>
  </defs>
  <title>Asset 10</title>
  <g>
    <path class="a" d="M14.11,35.74a5.28,5.28,0,0,0,1.36-.22V33.25h-1.7v.66h.89V35a2.25,2.25,0,0,1-.55.06,1.39,1.39,0,0,1-1.43-1.5A1.43,1.43,0,0,1,14.21,32a2.79,2.79,0,0,1,1.08.22l.05-.71a4.16,4.16,0,0,0-1.24-.17,2.09,2.09,0,0,0-2.31,2.25,2,2,0,0,0,2.31,2.1"/>
    <path class="a" d="M17.89,33.11a.82.82,0,0,1,.78.92c0,.52-.16,1.07-.78,1.07s-.78-.56-.78-1.07a.83.83,0,0,1,.78-.92m0,2.62a1.53,1.53,0,0,0,1.63-1.6,1.63,1.63,0,1,0-3.25,0,1.53,1.53,0,0,0,1.62,1.6"/>
    <polygon class="a" points="23.23 32.56 22.42 32.56 21.67 34.82 21.66 34.82 20.89 32.56 20.02 32.56 21.17 35.66 22.08 35.66 23.23 32.56"/>
    <path class="a" d="M25.34,33.08c.45,0,.63.34.66.73H24.62a.7.7,0,0,1,.72-.73m1.2,2.41v-.66a2.09,2.09,0,0,1-1,.31.81.81,0,0,1-.89-.78h2.15c0-1.08-.33-1.87-1.48-1.87a1.45,1.45,0,0,0-1.44,1.64,1.47,1.47,0,0,0,1.62,1.61,2.13,2.13,0,0,0,1.07-.25"/>
    <path class="a" d="M28.47,34.53c0-.45,0-1.27.66-1.27a.83.83,0,0,1,.36.07v-.81l-.25,0a1,1,0,0,0-.85.78h0v-.71h-.72v3.1h.81Z"/>
    <path class="a" d="M30.35,32.56v3.1h.81V34.15c0-.4.13-1,.71-1s.53.51.53.89v1.66h.81v-2c0-.7-.32-1.22-1.06-1.22a1.16,1.16,0,0,0-1,.49h0v-.42Z"/>
    <path class="a" d="M38.92,33.71c0-.69-.22-1.22-1-1.22A1.06,1.06,0,0,0,37,33a.91.91,0,0,0-.92-.55,1.1,1.1,0,0,0-.92.51h0v-.43h-.75v3.1h.81V34.16c0-.4.07-1,.6-1s.46.41.46.7v1.85H37V34.16c0-.4.07-1,.6-1s.46.41.46.7v1.85h.81Z"/>
    <path class="a" d="M41.26,33.08c.45,0,.63.34.66.73H40.55a.7.7,0,0,1,.72-.73m1.2,1.75a2.09,2.09,0,0,1-1,.31.81.81,0,0,1-.89-.78h2.15c0-1.08-.33-1.87-1.48-1.87a1.45,1.45,0,0,0-1.44,1.64,1.47,1.47,0,0,0,1.62,1.61,2.13,2.13,0,0,0,1.07-.25Z"/>
    <path class="a" d="M44.34,33v-.42h-.77v3.1h.81V34.15c0-.4.13-1,.71-1s.53.51.53.89v1.66h.81v-2c0-.7-.32-1.22-1.05-1.22a1.16,1.16,0,0,0-1,.49Z"/>
    <path class="a" d="M47.7,34.73a.91.91,0,0,0,1,1,2.14,2.14,0,0,0,.6-.07l0-.64a.72.72,0,0,1-.37.08c-.31,0-.38-.25-.38-.51V33.15h.72v-.59h-.72v-.88l-.81.26v.62h-.6v.59h.6Z"/>
    <path class="a" d="M4.42,39a.82.82,0,0,1,.78.92C5.21,40.48,5,41,4.42,41s-.78-.56-.78-1.07A.82.82,0,0,1,4.42,39m0,2.62a1.53,1.53,0,0,0,1.63-1.6,1.56,1.56,0,0,0-1.63-1.65A1.55,1.55,0,0,0,2.8,40.05a1.53,1.53,0,0,0,1.62,1.6"/>
    <path class="a" d="M7.22,41.58H8V39.07h.71v-.59H8v-.39c0-.24.08-.48.36-.48a.63.63,0,0,1,.35.11l.07-.67A2.93,2.93,0,0,0,8.21,37a1,1,0,0,0-1,1.06v.43h-.6v.59h.6Z"/>
    <path class="a" d="M13.21,40.45c0,.38-.43.54-.75.54a2,2,0,0,1-1-.26l-.08.76a3.69,3.69,0,0,0,1.08.16c.85,0,1.58-.35,1.58-1.27,0-1.41-1.84-1.11-1.84-1.83a.58.58,0,0,1,.66-.59,2.21,2.21,0,0,1,.86.18l.08-.69a3.17,3.17,0,0,0-1-.15c-.74,0-1.47.34-1.47,1.28,0,1.39,1.84,1.06,1.84,1.86"/>
    <path class="a" d="M16.45,41c-.61,0-.78-.56-.78-1.07a.79.79,0,1,1,1.56,0c0,.52-.16,1.07-.78,1.07m0-2.62a1.55,1.55,0,0,0-1.62,1.64,1.53,1.53,0,0,0,1.62,1.6,1.53,1.53,0,0,0,1.63-1.6,1.55,1.55,0,0,0-1.63-1.64"/>
    <path class="a" d="M21.8,41.58v-3.1H21V40c0,.4-.13,1-.71,1s-.53-.51-.53-.89V38.48H19v2c0,.7.32,1.22,1.05,1.22a1.3,1.3,0,0,0,1-.49h0v.42Z"/>
    <path class="a" d="M24.13,41.66a2,2,0,0,0,.6-.07l0-.64a.72.72,0,0,1-.37.08c-.31,0-.38-.25-.38-.51V39.07h.72v-.59H24V37.6l-.81.26v.62h-.6v.59h.6v1.58a.91.91,0,0,0,1,1"/>
    <path class="a" d="M28.32,41.58v-2c0-.7-.32-1.22-1.06-1.22a1.16,1.16,0,0,0-1,.49h0V37.06h-.81v4.52h.81V40.07c0-.4.13-1,.71-1s.52.51.52.89v1.66Z"/>
    <path class="a" d="M33,38.22h0L33.66,40H32.43Zm-.85,2.4H33.9l.36,1h.93l-1.65-4.21h-1L31,41.58h.88Z"/>
    <path class="a" d="M38.76,41.58v-3.1H38V40c0,.4-.13,1-.71,1s-.52-.51-.52-.89V38.48h-.81v2c0,.7.32,1.22,1.06,1.22a1.29,1.29,0,0,0,1-.49h0v.42Z"/>
    <path class="a" d="M40.51,41.07a1.78,1.78,0,0,1-.8-.2l0,.66a3.6,3.6,0,0,0,.92.13c.66,0,1.3-.29,1.3-1,0-1.12-1.4-.81-1.4-1.3,0-.27.26-.34.47-.34a2,2,0,0,1,.72.13l.06-.61a3.75,3.75,0,0,0-.88-.11c-.63,0-1.22.29-1.22,1,0,1.12,1.4.71,1.4,1.32,0,.3-.32.38-.53.38"/>
    <path class="a" d="M44,41.66a2,2,0,0,0,.6-.07l0-.64a.73.73,0,0,1-.37.08c-.31,0-.38-.25-.38-.51V39.07h.72v-.59h-.72V37.6l-.81.26v.62h-.6v.59H43v1.58a.91.91,0,0,0,1,1"/>
    <path class="a" d="M46.09,39.19h0v-.71h-.72v3.1h.81V40.45c0-.45,0-1.27.66-1.27a.81.81,0,0,1,.36.07v-.82l-.25,0a1,1,0,0,0-.85.78"/>
    <path class="a" d="M49.58,40.79a.68.68,0,0,1-.57.28c-.29,0-.51-.11-.51-.38,0-.48.54-.54.9-.54h.35a1,1,0,0,1-.17.64m-1.51-2.15,0,.69a1.63,1.63,0,0,1,1-.34c.48,0,.7.17.7.67H49.3a2.47,2.47,0,0,0-1,.18.91.91,0,0,0-.53.89,1,1,0,0,0,1.09.92,1.11,1.11,0,0,0,1-.54h0a3.81,3.81,0,0,0,0,.46h.71c0-.24,0-.46,0-.69s0-.46,0-.78v-.4c0-.92-.39-1.31-1.34-1.31a2.75,2.75,0,0,0-1.08.24"/>
    <rect class="a" x="51.54" y="37.06" width="0.81" height="4.52"/>
    <rect class="a" x="53.46" y="37.14" width="0.81" height="0.77"/>
    <rect class="a" x="53.46" y="38.48" width="0.81" height="3.1"/>
    <path class="a" d="M56.83,40.15h.35a1,1,0,0,1-.17.64.69.69,0,0,1-.57.28c-.29,0-.51-.11-.51-.38,0-.48.54-.54.9-.54m-.58,1.51a1.11,1.11,0,0,0,1-.54h0a3.84,3.84,0,0,0,0,.46H58c0-.24,0-.46,0-.69s0-.46,0-.78v-.4c0-.92-.39-1.31-1.34-1.31a2.78,2.78,0,0,0-1.08.23l0,.69a1.63,1.63,0,0,1,1-.34c.48,0,.7.17.7.67h-.45a2.49,2.49,0,0,0-1,.18.92.92,0,0,0-.53.89,1,1,0,0,0,1.09.92"/>
    <path class="a" d="M30.1,1.31a12.52,12.52,0,0,1,12.69,9.84l1.27-.26A13.82,13.82,0,0,0,17,11.11l1.28.24a12.52,12.52,0,0,1,11.82-10"/>
    <path class="a" d="M44.14,16.37l-1.28-.23a12.52,12.52,0,0,1-24.56.21L17,16.6a13.82,13.82,0,0,0,27.11-.24"/>
    <rect class="a" x="2.83" y="45.21" width="55.46" height="1.23"/>
    <path class="a" d="M30.22,6.4A7.37,7.37,0,1,1,23.12,14a7.37,7.37,0,0,1,7.1-7.64m.55,15A7.59,7.59,0,1,0,22.9,14a7.59,7.59,0,0,0,7.86,7.31"/>
    <path class="a" d="M27.84,11.72c-.09-.14-.23-.19-.27-.31l.06-.17.14.1c0-.12-.22-.29-.06-.41l.13.12c.07.15.25.28.19.45l-.05.23a2.5,2.5,0,0,0,0,.63.31.31,0,0,1-.4-.08,1.36,1.36,0,0,1,0-.22c.17,0,.23.08.29,0l-.31-.33.06,0h.19l.07,0v0m0-1.17c.11,0,.09.13.13.2,0,.24.09.34,0,.45a1.87,1.87,0,0,1-.28-.47l.1-.19m.36-.43,0,0a1.88,1.88,0,0,0,0,.26,1.3,1.3,0,0,1-.11.6A5.45,5.45,0,0,0,28,10.4c.05-.1.12-.27.25-.28m.18,2.55v-.23c.15.12.09.35.15.51s.2.3.32.45l0,.06c.06.18.21.37.12.58s-.15.22-.3.21l-.07-.16c-.07-.05-.12.06-.23,0-.14-.2,0-.26,0-.37-.11,0-.2.17-.35.13l-.07-.15a.35.35,0,0,1,.14-.24c-.12,0-.29.13-.39,0l0-.09h0l.08-.07.23-.11c-.2-.13-.28-.22-.27-.32l.16-.05c.09,0,.16.13.27.13l0-.16c0-.08-.09-.14,0-.24s.15.11.22.09m1.24,2.42,0-.15c0-.09,0-.18.08-.28a2,2,0,0,0,0-.7c.08-.14.28-.06.4-.13a.73.73,0,0,0,.48-.43l0-.16c0-.1,0-.23.14-.27s.22.13.28.23l.06.18h0a1.25,1.25,0,0,1,0,.6,2.24,2.24,0,0,0,0,1v0h0c0,.12.13.21.12.33.17.19,0,.41,0,.63a2.65,2.65,0,0,1-.29.73h0l0,.06c0,.13,0,.13,0,.2a1.63,1.63,0,0,1-.32.66c-.07.08-.14.26-.29.23a1.73,1.73,0,0,1-.56-1c.08-.09.09,0,.13-.06L30,16.77l-.06-.12a.91.91,0,0,1-.11-.6l-.13,0c-.07-.09-.06-.24-.12-.33l0-.2c0-.15.11-.3.15-.45m-.06-2.34.22,0,.18,0c.07-.2-.18-.3-.28-.43.11-.07.23,0,.32.09s.12.33,0,.47-.32-.07-.47-.12m.74-.11.13.08c-.08.16-.13.12-.17.1s0-.16,0-.17m1.5,4.65a3.05,3.05,0,0,1,.38.39l-.81.08a1.7,1.7,0,0,1-.33-.31c0-.16.1-.29.13-.44l.2.08c.14.06.31.07.43.2m.31.9c-.21.11-.32-.16-.47-.23l.52-.05c.05.18,0,.25,0,.29m-.31.31,0,0c-.24-.24-.49-.52-.7-.76h.08a7.83,7.83,0,0,1,.8.77l.12.15c-.15.07-.2-.06-.27-.12m.1.5c-.17-.2-.34-.37-.49-.53h-.13l.2.25a.44.44,0,0,1,.17.37c-.17,0-.2-.15-.28-.24s-.19-.25-.28-.38h0a2.77,2.77,0,0,1-.29-.55,2.2,2.2,0,0,1,.48.55h.13a2.42,2.42,0,0,1-.38-.48c0-.08-.16-.14-.13-.25a2.07,2.07,0,0,1,.57.54l.16.19h0a3.1,3.1,0,0,1,.32.37l0,.16m-.86,0c-.07-.18-.16-.34-.23-.52h-.09a4.23,4.23,0,0,1,.11.74c-.13.1-.14,0-.21,0-.24-.15-.16-.44-.14-.69h0v-.19l0-.22.09.08c0,.11.07.22.1.33h.09A2.22,2.22,0,0,1,30.7,18c.1-.15.14.09.19.14a1.8,1.8,0,0,0,.16.31,1.37,1.37,0,0,1,.29.69c-.21.05-.21-.07-.25-.17m-.65-.52c0,.17,0,.35,0,.53s-.18.18-.25.28c-.15-.14-.07-.29-.05-.45a1.74,1.74,0,0,1,.09-.36h0c0-.13.1-.26.13-.39l.08,0c0,.12,0,.24,0,.36h0Zm-.56.78c-.18,0-.23-.09-.19-.18s.11-.27.14-.4l.1-.2c.1-.19.19-.38.27-.57l.06,0a2.31,2.31,0,0,1-.13.52c0,.1-.06.19-.08.29a1.27,1.27,0,0,0-.18.48M29.49,19c-.15-.06-.12-.13-.09-.18l.26-.41h0c.13-.2.27-.39.43-.58l0,0a2,2,0,0,1-.27.55l-.17.27a1.07,1.07,0,0,0-.19.32m-.38-.18c-.07-.14.09-.25.16-.36l0,0h-.14l0,0-.13.11L29,18.46l.05-.1a8.16,8.16,0,0,1,.84-.66h0l-.12.16c-.18.23-.45.36-.62.58h.14c.21-.23.46-.43.67-.65h0a2.14,2.14,0,0,1-.26.39,1.54,1.54,0,0,1-.25.25h0l-.18.22c-.05.07-.08.21-.21.19m-.13-1,.3,0c-.15.12-.22.36-.41.27A.21.21,0,0,1,29,17.9m-.17-.15c.24-.44.64-.45.94-.68.13,0,.12.18.17.27l0,.2c-.12.05-.21.19-.34.23s-.51,0-.73,0m3.55-4.35h0a2.6,2.6,0,0,0,.17-.3c.08-.18.1-.39.17-.58h.08v.19c.07,0,.13-.15.22-.09l0,.17c0,.09-.2.1-.13.2s.2-.14.33,0c-.06.2-.15.22-.19.29a.5.5,0,0,1,.32.15l0,.09c-.22.14-.34.06-.46.09.1.1.27.17.26.34a.54.54,0,0,1-.46-.11c.06.12.14.21.14.32s-.16,0-.23,0L32.42,14c0,.09.19.19,0,.25a.31.31,0,0,1-.31-.15.45.45,0,0,1-.05-.25,3.5,3.5,0,0,1,.27-.45m.56-3a.21.21,0,0,1,.19.14c0,.16-.1.28-.1.45.11-.06.09-.25.24-.22l0,.13a5.11,5.11,0,0,1-.26.5,1.93,1.93,0,0,1-.1-1m.47.56.07,0c0,.11-.07.16-.13.24l-.19.28c-.09,0-.06-.09,0-.14a1.56,1.56,0,0,1,.29-.43m.18.52-.25.26-.15.16-.06-.15.07-.15a1.2,1.2,0,0,1,.32-.31l.08.2m0,.31-.07.21a1.22,1.22,0,0,1-.39.12l0-.14a.74.74,0,0,1,.4-.22Zm-.47.59c.07-.18.2-.32.34-.23a.31.31,0,0,1-.34.23M32.92,18c0,.09-.09.13-.13.19a.41.41,0,0,1-.28,0L32.44,18c.21-.13.4-.17.48-.05m.33-.08a1.09,1.09,0,0,1,.39,0v.16c-.16.18-.42.12-.66.11a.34.34,0,0,1,.27-.32m-4.78.28c-.13,0-.28.06-.39,0s.06-.21.17-.23.22,0,.3,0a.2.2,0,0,1-.08.24m-.53,0a.76.76,0,0,1-.61,0l0-.13c.11-.22.39-.09.59-.12l.11,0,0,.17M24,11.9c.09.16.24.24.34.39l0,.16a1.05,1.05,0,0,0-.4.44c.12.15.33.21.39.38l-.13.14a.9.9,0,0,0-.26.32c-.05.14.14.12.21.19s.21,0,.27.14-.2.23-.19.38l.26.13c.16,0,.37-.09.45.09a1,1,0,0,0-.13.44h0l.25.09c.13,0,.25-.05.35,0l-.06.21c0,.1-.11.19,0,.27a2.59,2.59,0,0,0,.59,0c.14,0,.1.18.15.28s.25,0,.38,0,.12.19.21.29l.22,0c.22-.17.27.14.43.21s.14-.1.25-.08.15.14.22.21.18-.11.29-.16.22.12.33.18.18-.07.28-.1.21.06.32,0a.61.61,0,0,0,.16-.26c.08-.21,0-.49.22-.63l.17.68a.78.78,0,0,1-.09.45l0,.09a8.62,8.62,0,0,1-.74.69c-.18.21-.45.05-.7.13s-.59,0-.81.19a.27.27,0,0,0-.07.28c.11.22.39.17.62.16s.22.14.34.08.21,0,.32,0,.19-.09.41,0l-.08.11a2.44,2.44,0,0,0-.24.44c-.05.17.21.15.18.32s.3.08.31.27.18.06.28.08.12.15.21.22l.22,0c.1,0,.14.1.21.15l.24-.08c.15,0,.18.16.28.23s.2-.18.35-.19l.29.13.18-.24.23,0c.1,0,.11-.1.18-.14s.16,0,.25,0l.1-.2c0-.09.14-.08.23-.11s.16-.18.28-.24a.66.66,0,0,0-.19-.41l-.1-.23h0V18.3c.1,0,.16.05.23.12a.3.3,0,0,0,.29-.1l.21.09.26-.06c.12-.14.36,0,.48-.18l.06-.22c-.12-.22-.41-.18-.62-.19-.21-.22-.56,0-.79-.19a7.56,7.56,0,0,1-.77-.81l-.09-.11c-.17-.28.06-.56.07-.85,0,0,.05-.1.22,0,.08.28.07.65.37.81.11,0,.16-.11.27-.11a.47.47,0,0,1,.2.17c.1,0,.16-.13.25-.16s.2.1.32.09l.17-.21c.12,0,.2.1.3.11s.09-.21.19-.28a.35.35,0,0,1,.27.06c.17.07.13-.15.22-.22s.33,0,.5,0l.1-.14c0-.3.35-.14.53-.2s0-.36.14-.47a2.88,2.88,0,0,0,.54,0l0-.09,0-.11c0-.11-.21-.24-.07-.34a2.31,2.31,0,0,0,.59-.09.87.87,0,0,0-.1-.26c0-.08-.15-.14-.17-.24s.24-.12.36-.18.2-.07.22-.17a3.4,3.4,0,0,0-.31-.29h0v-.15a3.07,3.07,0,0,0,.5-.28c0-.14-.2-.18-.29-.26s-.27-.09-.35-.2.28-.27.43-.45l-.18-.13c-.13-.07-.29,0-.42-.2h0a3.53,3.53,0,0,0,.42-.38c-.1-.13-.28-.14-.43-.15s-.27.11-.32,0a5.8,5.8,0,0,0,.4-.54,1.06,1.06,0,0,0-.67.09c-.11,0-.22.14-.34,0a2.2,2.2,0,0,1,.48-.44c.1-.08.24-.18.12-.35a3.06,3.06,0,0,0-1.2.58l-.19,0,.13-.21a1.15,1.15,0,0,0,.52-.57c0-.22.27-.34.21-.6a2,2,0,0,0-1,.71.61.61,0,0,1-.25.23l.07-.24a1.73,1.73,0,0,1,.39-.61c0-.14.13-.26.14-.4s0-.18-.14-.21a2.65,2.65,0,0,0-.76.9l-.14.1a.43.43,0,0,1,0-.38c0-.15.15-.27.18-.42a5.38,5.38,0,0,0,0-.74c-.33.18-.38.57-.56.85a4.28,4.28,0,0,1,0-.84c0-.16,0-.36-.22-.42-.19.17-.14.45-.27.76l-.18-.13a25.24,25.24,0,0,0,.1,3.07l-.1.3a9.3,9.3,0,0,0-.21.94,1.39,1.39,0,0,1-.31.74h0c-.09.12-.2.25-.31.37-.16-.07-.44.07-.51-.15l0-.22a1.5,1.5,0,0,0-.34-.6,3.5,3.5,0,0,0-1.31-.64c-.09,0-.22,0-.27,0a1,1,0,0,1,.49.45c-.13,0-.24,0-.37-.05l-.18,0a3,3,0,0,0,.5.36c.14.05.14.21.17.32v.09a.52.52,0,0,1-.18.35c-.2.19-.32-.21-.53-.05l-.21,0a.59.59,0,0,0-.1-.25h0a3.4,3.4,0,0,1-.32-.43,1.87,1.87,0,0,0-.28-.86c0-.12-.06-.26-.09-.4a1.67,1.67,0,0,1,0-1c.07-.39.13-.77.19-1.16a1.77,1.77,0,0,0,0-.34,2.2,2.2,0,0,0,0-.47c0-.1,0-.25-.07-.35s-.15.22-.3.2,0-.23,0-.36a2.23,2.23,0,0,0-.07-.61h0a.71.71,0,0,0-.22.67,4.05,4.05,0,0,1,0,.83c0,.1.09.27-.07.29l-.09-.24a6.69,6.69,0,0,0-.19-.69c-.08-.13-.09-.32-.35-.39a1,1,0,0,0,0,.64,1.2,1.2,0,0,0,.1.45c0,.11.1.25-.11.27a3.62,3.62,0,0,0-.53-.73c-.09,0-.14-.17-.24-.14a1,1,0,0,0,.09.49,3,3,0,0,1,.34.9,4.2,4.2,0,0,0-1.19-.73c0,.39.46.64.49,1A3,3,0,0,0,25,9.76a1.34,1.34,0,0,0,.38.74,3.24,3.24,0,0,0-.59-.06l-.17.05A4.09,4.09,0,0,1,25,11c-.22.11-.51,0-.75.12.06.14.22.26.26.51l-.19.05a1,1,0,0,0-.29.18"/>
    <path class="a" d="M20.31,15.33l-.1-.82,1.08.26Zm1.18-.75-.15.12s-.2,0-1.51-.38A1.67,1.67,0,0,1,19.2,14c-.12-.1-.09-.26-.17-.25l0,.06c0,.15,0,.27.06.41s0,.37,0,.46l.05.06c.1,0,0-.34.38-.39a2.17,2.17,0,0,1,.58.09l.11.9-.52.3-.22.1c-.23,0-.14-.27-.24-.26l0,.07c0,.17,0,.32.07.49s0,.32.05.49l.06.06c.09,0-.05-.19.18-.33l1.86-1.11c.52-.31.66-.32.66-.38s-.06,0-.26-.09-.26-.15-.32-.14"/>
    <path class="a" d="M20.56,17.82c-.42.23-.57.71-.22,1.38a.86.86,0,0,0,1.28.42L22.76,19c.32-.17.54-.12.66,0l.14.1V19l-.21-.37-.19-.38-.08-.06c-.05,0,0,.07,0,.17s-.05.38-.37.54l-1.15.61a.69.69,0,0,1-1.05-.27.68.68,0,0,1,.28-1l1.58-.84c.25-.13.29.23.38.18v-.11l-.24-.43-.23-.44-.09-.05c-.09,0,.18.29-.07.42Z"/>
    <path class="a" d="M24.86,21.6l.07,0s.21-.27.55-.76v-.07c-.06,0-.11.09-.2,0s-.12-.32-.4-.55a.84.84,0,0,0-1.18.07c-.67.79.72,1.5.17,2.15a.53.53,0,0,1-.8,0c-.41-.35-.24-.89,0-1.33l0-.13H23.1l-.74.89V22c.06.05.1-.1.23,0a3.48,3.48,0,0,0,.42.56.89.89,0,0,0,1.32-.06c.66-.78-.67-1.56-.17-2.15a.45.45,0,0,1,.67,0c.35.3.26.75.06,1.21l0,.11"/>
    <path class="a" d="M28.52,23.06c0,.11,0,.16,0,.17l0,0,0-.23.1-.69,0-.09-.06,0-.15,0-1.67-.58-.13-.08,0-.05-.07.06-.35.61-.11.2,0,0,.13-.11a1.16,1.16,0,0,1,1.11-.37l-.79,2.32c-.09.27-.43,0-.47.11l.08.09.52.17.51.18.12,0c0-.1-.39-.1-.3-.37l.8-2.32a1.16,1.16,0,0,1,.64,1"/>
    <path class="a" d="M31,23.82l-.12-1.33.24,0c.39,0,.63.12.68.6a.59.59,0,0,1-.61.74Zm.8.67.41.65.7-.05L33,25c0-.11-.29.06-.5-.28l-.27-.45a.79.79,0,0,0-.82-.47h0c.58-.09,1-.39.92-.81s-.37-.72-1.17-.65l-.54.05-.49,0-.09.07c0,.11.34-.06.36.22L30.6,25c0,.28-.32.18-.32.28l.1.05.49-.05.49,0,.08-.07c0-.1-.33.06-.36-.22l-.09-1h.07c.31,0,.4.06.73.58"/>
    <path class="a" d="M34.59,23.31l-.11-1.1.85.74Zm1.27.59h.08l.44-.22.44-.21,0-.08c0-.08-.16.11-.37-.07l-1.65-1.4c-.46-.39-.52-.52-.57-.5s0,.07,0,.27-.06.29,0,.35l.16.1s0,.2.13,1.55a1.69,1.69,0,0,1,0,.69c-.06.14-.22.17-.19.24l.07,0,.37-.19.42-.19,0-.07c0-.09-.3.15-.49-.23a2.2,2.2,0,0,1-.1-.58l.82-.4.45.39.16.17c.1.2-.21.22-.17.32"/>
    <path class="a" d="M38.24,22.32l.33-.37,1.08-1.15L39.07,20,39,19.93h-.06l0,.1a1.19,1.19,0,0,1-.08,1.45c-.14.15-.26.19-.43,0L36.87,20c-.21-.19.12-.35,0-.42l-.1,0-.33.37-.35.36,0,.11c.08.07.21-.27.41-.08l1.65,1.53c.2.19-.12.35,0,.42l.11,0"/>
    <path class="a" d="M40.65,19l.09-.06c.06-.13.1-.23.2-.45l.22-.44,0-.11c-.1,0-.12.32-.37.2l-2-1c-.25-.12,0-.37-.09-.41l-.09.06c-.06.13-.1.23-.2.45s-.16.32-.22.45l0,.11c.1,0,.12-.32.37-.2l2,1c.26.12,0,.37.09.41"/>
    <path class="a" d="M40.7,15.56l-1-.51,1.08-.31Zm.78-1,.24,0c.22,0,.07.3.17.31l.06-.06c0-.17,0-.33.05-.49s0-.32.07-.48l0-.08c-.09,0,0,.2-.25.27l-2.07.62c-.58.17-.72.15-.72.21s.05,0,.23.15.22.21.28.22l.17-.08s.18.09,1.37.73a1.66,1.66,0,0,1,.55.42c.09.12,0,.28.1.29l.06,0c0-.15,0-.28,0-.41s.05-.37.07-.46l0-.07c-.1,0,0,.34-.46.29a2.06,2.06,0,0,1-.54-.23l.11-.9Z"/>
    <path class="a" d="M22.11,5.93a.86.86,0,0,0,0,1.2c.76.71,1.57-.67,2.19-.09a.54.54,0,0,1,0,.81c-.38.41-.92.21-1.35-.09l-.13,0v.07l.85.79h.06c.05-.06-.09-.11,0-.24a3.77,3.77,0,0,0,.59-.4.91.91,0,0,0,0-1.35c-.75-.7-1.62.62-2.19.1a.45.45,0,0,1,0-.68c.32-.35.78-.24,1.23,0l.11,0V5.94s-.26-.22-.73-.59H22.7v.2c-.11.12-.33.11-.59.38"/>
    <path class="a" d="M25.82,3.38c.5-.22,1.05,0,1.44.89s.2,1.44-.3,1.66-1.05,0-1.44-.88-.2-1.44.31-1.66M27,6a1.5,1.5,0,1,0-2-.75A1.5,1.5,0,0,0,27,6"/>
    <path class="a" d="M30.12,2.4,30,2.35l-.51,0H29l-.09.06c0,.11.35,0,.35.25l0,1.78c0,.48.38.83,1.16.82a.87.87,0,0,0,1-1l0-1.29c0-.36.15-.53.3-.59s.16,0,.16-.08l-.09,0-.44,0H30.9l-.09,0c0,.06.05,0,.16.07s.32.22.33.58l0,1.3a.7.7,0,0,1-.74.81.69.69,0,0,1-.78-.69l0-1.79c0-.28.35-.15.34-.26"/>
    <path class="a" d="M33,5.5l.08.1.52.2.52.22h.12c0-.1-.4-.13-.29-.39l.92-2.27a1.18,1.18,0,0,1,.62,1c0,.11,0,.17,0,.17l0,0,0-.23.13-.69V3.5h-.07l-.15,0L33.87,2.8l-.13-.09,0-.05-.08.06-.38.59-.12.2,0,0,.14-.11a1.19,1.19,0,0,1,1.16-.31l-.92,2.27c-.1.26-.44,0-.48.08"/>
    <path class="a" d="M35.94,6.67c-.2.2-.35-.14-.43-.06l0,.11.37.35.36.36.11,0c.07-.08-.27-.22-.08-.42l.8-.83L38,7l-.8.83c-.2.2-.35-.14-.43-.06l0,.11.37.35.36.36.11,0c.07-.08-.27-.22-.08-.42L39.11,6.6c.2-.2.35.14.43.06l0-.11-.37-.35-.36-.36-.11,0c-.07.08.27.22.08.42L38.05,7l-.88-.84.69-.72c.2-.2.35.14.43.06l0-.11L37.9,5l-.36-.36-.11,0c-.07.08.27.22.07.42Z"/>
    <path class="a" d="M43.07,13.36a12.12,12.12,0,0,1,0,1.22l1.3.09c0-.28,0-.57,0-.85a13.79,13.79,0,0,0-.27-2.71l-1.27.26a12.64,12.64,0,0,1,.23,2"/>
    <path class="a" d="M44.34,14.9,43,14.81c0,.37-.07.73-.14,1.09l1.28.23c.07-.4.12-.81.15-1.23"/>
    <path class="a" d="M16.81,15.14q.06.62.17,1.23l1.27-.25q-.1-.54-.15-1.09Z"/>
    <path class="a" d="M18.08,14.8c0-.17,0-.35,0-.52a12.64,12.64,0,0,1,.19-2.69L17,11.35a13.87,13.87,0,0,0-.22,2.47c0,.37,0,.73,0,1.09Z"/>
    <g>
      <path class="a" d="M10.7,54.23h.37q2,0,2.09-1.88a1.78,1.78,0,0,0-.52-1.43,2,2,0,0,0-1.29-.39H10.7Zm-.44-4.08h1.11a2.21,2.21,0,0,1,1.72.62,2.37,2.37,0,0,1,.51,1.61,2,2,0,0,1-.72,1.72,3,3,0,0,1-1.84.52h-.78Z"/>
      <path class="a" d="M16.45,52.75a1.58,1.58,0,0,0-.19-.78.72.72,0,0,0-.65-.35.86.86,0,0,0-.7.36,1.25,1.25,0,0,0-.26.77Zm.2,1.76a2.78,2.78,0,0,1-.95.18,1.34,1.34,0,0,1-1.15-.49,2.26,2.26,0,0,1,0-2.45,1.21,1.21,0,0,1,1-.47,1.14,1.14,0,0,1,1,.48,2,2,0,0,1,.3,1.14v.2H14.66a1.37,1.37,0,0,0,.28.88,1,1,0,0,0,.8.37,1.7,1.7,0,0,0,.5-.08,1.76,1.76,0,0,0,.42-.16Z"/>
      <path class="a" d="M19.89,53a3.77,3.77,0,0,0,0-.49,1.3,1.3,0,0,0-.16-.44.76.76,0,0,0-.29-.32.88.88,0,0,0-.48-.12.78.78,0,0,0-.45.12,1,1,0,0,0-.3.33,1.45,1.45,0,0,0-.16.43A2,2,0,0,0,18,53a1.88,1.88,0,0,0,.22.9.94.94,0,0,0,.3.33.73.73,0,0,0,.45.13.82.82,0,0,0,.48-.13.83.83,0,0,0,.29-.31,1.44,1.44,0,0,0,.16-.45,3.53,3.53,0,0,0,0-.47m-2.34-1.63H18l0,.59h0l.12-.19.19-.22a1.17,1.17,0,0,1,.3-.19,1.19,1.19,0,0,1,.43-.07,1.17,1.17,0,0,1,1,.48A2.2,2.2,0,0,1,20.33,53,2.09,2.09,0,0,1,20,54.2a1.19,1.19,0,0,1-1,.49,1,1,0,0,1-1-.63h0V56h-.4Z"/>
      <path class="a" d="M22.92,53h-.64a1.92,1.92,0,0,0-.5.11.8.8,0,0,0-.36.24.61.61,0,0,0-.15.43.49.49,0,0,0,.2.45.78.78,0,0,0,.47.14,1,1,0,0,0,.56-.14.8.8,0,0,0,.29-.32,1,1,0,0,0,.11-.39c0-.13,0-.24,0-.33Zm0,1.12h0a1,1,0,0,1-.43.44,1.35,1.35,0,0,1-.61.16,1.33,1.33,0,0,1-.55-.11.83.83,0,0,1-.33-.24,1,1,0,0,1,0-1.22,1.06,1.06,0,0,1,.49-.34,2.56,2.56,0,0,1,.65-.14l.67,0h.08v-.17q0-.84-.74-.84a1.78,1.78,0,0,0-1,.27V51.5a2.36,2.36,0,0,1,1-.23q1.16,0,1.15,1.22v1.44a4.92,4.92,0,0,0,0,.68H23Z"/>
      <path class="a" d="M24.22,52.08q0-.45,0-.73h.4V52h0a1.39,1.39,0,0,1,.33-.49.72.72,0,0,1,.51-.21,1.41,1.41,0,0,1,.28,0v.42a1.1,1.1,0,0,0-.29,0,.68.68,0,0,0-.39.12.84.84,0,0,0-.25.31,1.68,1.68,0,0,0-.13.42,2.45,2.45,0,0,0,0,.46v1.61h-.4Z"/>
      <path class="a" d="M27.7,51.69H27V53.8a.67.67,0,0,0,.1.38.36.36,0,0,0,.33.16.81.81,0,0,0,.37-.08l0,.33-.2.06a1.28,1.28,0,0,1-.29,0,.82.82,0,0,1-.42-.09.59.59,0,0,1-.22-.24,1.16,1.16,0,0,1-.08-.35,4.13,4.13,0,0,1,0-.42V51.69h-.64v-.35h.64v-.79l.4-.14v.93h.74Z"/>
      <path class="a" d="M32.3,54.61V52.44a2.14,2.14,0,0,0,0-.33.73.73,0,0,0-.12-.26l-.21-.18a.86.86,0,0,0-.33-.06.8.8,0,0,0-.6.28,1.33,1.33,0,0,0-.28.91v1.8h-.4V52.44a2,2,0,0,0,0-.33.7.7,0,0,0-.12-.26L30,51.67a.85.85,0,0,0-.33-.06.8.8,0,0,0-.6.28,1.34,1.34,0,0,0-.28.91v1.8h-.4v-2.5q0-.38,0-.77h.39v.55h0l.12-.2.18-.2a1.05,1.05,0,0,1,.29-.17,1.23,1.23,0,0,1,.43-.07l.25,0,.26.1.22.21a.9.9,0,0,1,.13.36h0a1.15,1.15,0,0,1,.39-.49,1.11,1.11,0,0,1,.65-.2,1,1,0,0,1,.77.31,1.14,1.14,0,0,1,.26.79v2.25Z"/>
      <path class="a" d="M35.62,52.75a1.58,1.58,0,0,0-.19-.78.72.72,0,0,0-.65-.35.85.85,0,0,0-.7.36,1.24,1.24,0,0,0-.26.77Zm.2,1.76a2.78,2.78,0,0,1-.95.18,1.34,1.34,0,0,1-1.15-.49,2.26,2.26,0,0,1,0-2.45,1.21,1.21,0,0,1,1-.47,1.14,1.14,0,0,1,1,.48,2,2,0,0,1,.3,1.14v.2H33.82a1.38,1.38,0,0,0,.27.88,1,1,0,0,0,.8.37,1.7,1.7,0,0,0,.5-.08,1.76,1.76,0,0,0,.42-.16Z"/>
      <path class="a" d="M36.76,52.11c0-.25,0-.51,0-.77h.39v.58h0l.14-.23.19-.21a.88.88,0,0,1,.3-.16,1.42,1.42,0,0,1,.43-.06,1,1,0,0,1,.86.36,1.5,1.5,0,0,1,.25.9v2.09h-.4v-2a1.39,1.39,0,0,0-.17-.74.7.7,0,0,0-.6-.27.83.83,0,0,0-.76.38,1.11,1.11,0,0,0-.16.38,1.86,1.86,0,0,0-.05.43v1.8h-.4Z"/>
      <path class="a" d="M41.66,51.69h-.74V53.8a.67.67,0,0,0,.1.38.36.36,0,0,0,.33.16.81.81,0,0,0,.37-.08l0,.33-.2.06a1.3,1.3,0,0,1-.3,0,.83.83,0,0,1-.42-.09.58.58,0,0,1-.22-.24,1.2,1.2,0,0,1-.08-.35,4.14,4.14,0,0,1,0-.42V51.69h-.64v-.35h.64v-.79l.4-.14v.93h.74Z"/>
      <path class="a" d="M44.32,51.69h-.66v-.35h.66v-.24a5,5,0,0,1,0-.51,1.21,1.21,0,0,1,.1-.43.68.68,0,0,1,.26-.31.86.86,0,0,1,.48-.11h.21l.17.06,0,.35a.73.73,0,0,0-.32-.06.44.44,0,0,0-.3.09.51.51,0,0,0-.15.25,1.27,1.27,0,0,0,0,.31c0,.11,0,.23,0,.33v.28h.74v.35h-.74v2.92h-.4Z"/>
      <path class="a" d="M46.3,53a1.57,1.57,0,0,0,.28,1,.92.92,0,0,0,.8.4,1,1,0,0,0,.81-.4,1.62,1.62,0,0,0,.27-1,1.68,1.68,0,0,0-.27-1,1,1,0,0,0-.81-.39.93.93,0,0,0-.8.39,1.62,1.62,0,0,0-.28,1m-.44,0a1.92,1.92,0,0,1,.37-1.19,1.37,1.37,0,0,1,1.15-.52,1.38,1.38,0,0,1,1.17.52,2.15,2.15,0,0,1,0,2.37,1.37,1.37,0,0,1-1.17.52,1.36,1.36,0,0,1-1.15-.52A1.93,1.93,0,0,1,45.86,53"/>
      <path class="a" d="M49.6,52.08q0-.45,0-.73H50V52h0a1.41,1.41,0,0,1,.33-.49.72.72,0,0,1,.51-.21,1.42,1.42,0,0,1,.28,0v.42a1.1,1.1,0,0,0-.29,0,.69.69,0,0,0-.39.12.86.86,0,0,0-.25.31,1.72,1.72,0,0,0-.13.42A2.45,2.45,0,0,0,50,53v1.61h-.4Z"/>
      <polygon class="a" points="0 57.82 2.19 57.82 2.19 58.21 0.44 58.21 0.44 59.8 2.1 59.8 2.1 60.19 0.44 60.19 0.44 61.91 2.27 61.91 2.27 62.29 0 62.29 0 57.82"/>
      <path class="a" d="M3.09,59.8q0-.38,0-.77h.39v.58h0l.13-.23.19-.21A.88.88,0,0,1,4.1,59a1.43,1.43,0,0,1,.43-.06,1,1,0,0,1,.86.36,1.5,1.5,0,0,1,.25.9v2.09h-.4v-2a1.38,1.38,0,0,0-.17-.74.7.7,0,0,0-.6-.27.83.83,0,0,0-.76.38,1.07,1.07,0,0,0-.16.38,1.76,1.76,0,0,0-.05.43v1.81h-.4Z"/>
      <polygon class="a" points="7.72 62.29 7.25 62.29 6.14 59.03 6.58 59.03 7.48 61.85 7.5 61.85 8.44 59.03 8.87 59.03 7.72 62.29"/>
      <path class="a" d="M9.36,59h.4v3.26h-.4Zm.4-.87h-.4v-.54h.4Z"/>
      <path class="a" d="M10.72,59.76q0-.45,0-.73h.4v.63h0a1.39,1.39,0,0,1,.33-.49.72.72,0,0,1,.51-.21,1.4,1.4,0,0,1,.28,0v.42a1.1,1.1,0,0,0-.3,0,.68.68,0,0,0-.39.11.84.84,0,0,0-.25.31,1.68,1.68,0,0,0-.13.42,2.45,2.45,0,0,0,0,.46v1.61h-.4Z"/>
      <path class="a" d="M13,60.66a1.57,1.57,0,0,0,.28,1,.92.92,0,0,0,.8.4,1,1,0,0,0,.81-.4,1.62,1.62,0,0,0,.27-1,1.68,1.68,0,0,0-.27-1,1,1,0,0,0-.81-.39.93.93,0,0,0-.8.39,1.62,1.62,0,0,0-.28,1m-.44,0a1.92,1.92,0,0,1,.37-1.19,1.36,1.36,0,0,1,1.15-.52,1.38,1.38,0,0,1,1.16.52,2.15,2.15,0,0,1,0,2.37,1.37,1.37,0,0,1-1.16.53,1.36,1.36,0,0,1-1.15-.53,1.93,1.93,0,0,1-.37-1.18"/>
      <path class="a" d="M16.28,59.8q0-.38,0-.77h.39v.58h0l.13-.23.19-.21a.88.88,0,0,1,.3-.16,1.43,1.43,0,0,1,.43-.06,1,1,0,0,1,.86.36,1.5,1.5,0,0,1,.25.9v2.09h-.4v-2a1.39,1.39,0,0,0-.17-.74.7.7,0,0,0-.6-.27.83.83,0,0,0-.76.38,1.07,1.07,0,0,0-.16.38,1.76,1.76,0,0,0-.05.43v1.81h-.4Z"/>
      <path class="a" d="M23.72,62.29V60.12a2,2,0,0,0,0-.33.71.71,0,0,0-.12-.26l-.21-.18A.86.86,0,0,0,23,59.3a.81.81,0,0,0-.6.28,1.33,1.33,0,0,0-.27.91v1.81h-.4V60.12a2,2,0,0,0,0-.33.7.7,0,0,0-.12-.26l-.21-.18a.85.85,0,0,0-.33-.06.8.8,0,0,0-.6.28,1.34,1.34,0,0,0-.28.91v1.81h-.4V59.8q0-.38,0-.77h.39v.55h0l.12-.2.18-.2a1.05,1.05,0,0,1,.29-.17,1.23,1.23,0,0,1,.43-.07l.25,0,.26.1a.68.68,0,0,1,.22.2.9.9,0,0,1,.13.36h0a1.15,1.15,0,0,1,.39-.49,1.1,1.1,0,0,1,.65-.2,1,1,0,0,1,.77.31,1.14,1.14,0,0,1,.26.79v2.25Z"/>
      <path class="a" d="M27,60.43a1.57,1.57,0,0,0-.19-.78.72.72,0,0,0-.65-.35.86.86,0,0,0-.7.36,1.25,1.25,0,0,0-.26.77Zm.2,1.76a2.78,2.78,0,0,1-.95.18,1.34,1.34,0,0,1-1.15-.49,2.26,2.26,0,0,1,0-2.45,1.21,1.21,0,0,1,1-.47,1.14,1.14,0,0,1,1,.48,2,2,0,0,1,.3,1.14v.2H25.24a1.37,1.37,0,0,0,.27.88,1,1,0,0,0,.8.37,1.7,1.7,0,0,0,.5-.08,1.76,1.76,0,0,0,.42-.16Z"/>
      <path class="a" d="M28.18,59.8q0-.38,0-.77h.39v.58h0l.13-.23.19-.21a.88.88,0,0,1,.3-.16,1.43,1.43,0,0,1,.43-.06,1,1,0,0,1,.86.36,1.5,1.5,0,0,1,.25.9v2.09h-.4v-2a1.39,1.39,0,0,0-.17-.74.7.7,0,0,0-.6-.27.83.83,0,0,0-.75.38,1.07,1.07,0,0,0-.16.38,1.76,1.76,0,0,0-.05.43v1.81h-.4Z"/>
      <path class="a" d="M33.08,59.37h-.74v2.11a.67.67,0,0,0,.1.38.36.36,0,0,0,.33.16.81.81,0,0,0,.37-.08l0,.33-.2.06a1.29,1.29,0,0,1-.29,0,.83.83,0,0,1-.42-.09A.58.58,0,0,1,32,62,1.2,1.2,0,0,1,32,61.7a4.14,4.14,0,0,1,0-.42V59.37H31.3V59h.64v-.79l.4-.14V59h.74Z"/>
      <path class="a" d="M37.29,60.65h-.64a1.92,1.92,0,0,0-.5.11.8.8,0,0,0-.36.24.61.61,0,0,0-.15.43.49.49,0,0,0,.21.45.77.77,0,0,0,.47.14,1,1,0,0,0,.56-.14.82.82,0,0,0,.29-.32,1.06,1.06,0,0,0,.11-.39c0-.13,0-.24,0-.33Zm0,1.12h0a1,1,0,0,1-.43.44,1.35,1.35,0,0,1-.61.16,1.33,1.33,0,0,1-.55-.11A.84.84,0,0,1,35.4,62a1,1,0,0,1-.19-.57,1,1,0,0,1,.2-.65,1.06,1.06,0,0,1,.49-.34,2.56,2.56,0,0,1,.65-.14l.67,0h.08v-.17q0-.84-.74-.84a1.78,1.78,0,0,0-1,.27v-.38a2.36,2.36,0,0,1,1-.23c.77,0,1.15.4,1.14,1.22v1.44a4.78,4.78,0,0,0,0,.69h-.4Z"/>
      <path class="a" d="M38.59,59.8q0-.38,0-.77H39v.58h0l.13-.23.19-.21a.87.87,0,0,1,.3-.16,1.42,1.42,0,0,1,.43-.06,1,1,0,0,1,.87.36,1.5,1.5,0,0,1,.25.9v2.09h-.4v-2a1.39,1.39,0,0,0-.17-.74.7.7,0,0,0-.6-.27.83.83,0,0,0-.76.38,1.07,1.07,0,0,0-.16.38,1.81,1.81,0,0,0-.05.43v1.81h-.4Z"/>
      <path class="a" d="M42.34,60.66a2.58,2.58,0,0,0,0,.47,1.91,1.91,0,0,0,.15.45,1,1,0,0,0,.3.31.76.76,0,0,0,.47.13.79.79,0,0,0,.46-.13,1,1,0,0,0,.29-.33,2,2,0,0,0,.21-.9,2.7,2.7,0,0,0,0-.47,1.62,1.62,0,0,0-.17-.43,1,1,0,0,0-.29-.33.84.84,0,0,0-.46-.12.82.82,0,0,0-.47.12.86.86,0,0,0-.3.32,1.68,1.68,0,0,0-.15.44,2.75,2.75,0,0,0,0,.49m2.34,1.63h-.4v-.52h0a1.06,1.06,0,0,1-1,.6,1.17,1.17,0,0,1-1-.49,2.06,2.06,0,0,1-.34-1.22,2.1,2.1,0,0,1,.31-1.23A1.34,1.34,0,0,1,43.66,59a1,1,0,0,1,.31.18.88.88,0,0,1,.29.38h0V57.49h.4Z"/>
      <polygon class="a" points="51.48 62.29 50.96 62.29 49.83 58.32 49.81 58.32 48.66 62.29 48.13 62.29 46.85 57.82 47.29 57.82 48.41 61.79 48.42 61.79 49.56 57.82 50.09 57.82 51.22 61.79 51.23 61.79 52.35 57.82 52.78 57.82 51.48 62.29"/>
      <path class="a" d="M55.11,60.65h-.64a1.92,1.92,0,0,0-.5.11.8.8,0,0,0-.36.24.61.61,0,0,0-.15.43.49.49,0,0,0,.21.45.77.77,0,0,0,.47.14,1,1,0,0,0,.56-.14.82.82,0,0,0,.29-.32,1.07,1.07,0,0,0,.11-.39c0-.13,0-.24,0-.33Zm0,1.12h0a1,1,0,0,1-.43.44,1.35,1.35,0,0,1-.61.16,1.33,1.33,0,0,1-.55-.11.84.84,0,0,1-.33-.24,1,1,0,0,1-.19-.57,1,1,0,0,1,.2-.65,1.06,1.06,0,0,1,.49-.34,2.56,2.56,0,0,1,.65-.14l.67,0h.08v-.17q0-.84-.74-.84a1.78,1.78,0,0,0-1,.27v-.38a2.36,2.36,0,0,1,1-.23c.77,0,1.15.4,1.14,1.22v1.44a4.78,4.78,0,0,0,0,.69h-.4Z"/>
      <path class="a" d="M57.82,59.37h-.74v2.11a.67.67,0,0,0,.1.38.36.36,0,0,0,.33.16.81.81,0,0,0,.37-.08l0,.33-.2.06a1.29,1.29,0,0,1-.29,0,.82.82,0,0,1-.42-.09.58.58,0,0,1-.22-.24,1.2,1.2,0,0,1-.08-.35,4.14,4.14,0,0,1,0-.42V59.37H56V59h.64v-.79l.4-.14V59h.74Z"/>
      <path class="a" d="M60.47,60.43a1.58,1.58,0,0,0-.19-.78.72.72,0,0,0-.65-.35.85.85,0,0,0-.7.36,1.24,1.24,0,0,0-.26.77Zm.2,1.76a2.78,2.78,0,0,1-.95.18,1.34,1.34,0,0,1-1.15-.49,2.26,2.26,0,0,1,0-2.45,1.21,1.21,0,0,1,1-.47,1.14,1.14,0,0,1,1,.48,2,2,0,0,1,.3,1.14v.2H58.68a1.38,1.38,0,0,0,.27.88,1,1,0,0,0,.8.37,1.7,1.7,0,0,0,.5-.08,1.76,1.76,0,0,0,.42-.16Z"/>
      <path class="a" d="M61.61,59.76c0-.3,0-.55,0-.73H62v.63h0a1.41,1.41,0,0,1,.33-.49.72.72,0,0,1,.51-.21,1.4,1.4,0,0,1,.28,0v.42a1.1,1.1,0,0,0-.29,0,.69.69,0,0,0-.39.11.85.85,0,0,0-.25.31,1.68,1.68,0,0,0-.13.42,2.54,2.54,0,0,0,0,.46v1.61h-.4Z"/>
    </g>
  </g>
</svg>
