<svg id="Layer_1" xmlns="http://www.w3.org/2000/svg" width="559.7" height="316.5" viewBox="272.9 -133.7 559.7 316.5"><style>.st0{fill:#fff}.st1{fill:#3e577d}.st2{fill:#fffffe}</style><path class="st0" d="M343.6-86.9c0-5.7 2.2-8.4 7.5-8.8h.4c6.6 0 10.6.9 11.9 2.2 1.8 1.8 2.6 5.7 2.6 12.3-.4 34-.4 51.1-.4 52-.4 4.4-.4 10.6 0 18.1V7c0 13.7-2.2 24.3-5.7 32.2-4.8 10.1-12.8 16.8-22.9 19.4-11.9 2.6-28.2 2.2-48.9-1.8-5.3-.9-7.9-3.1-8.8-5.7-1.8-6.2-1.3-11 .9-15 1.3-2.2 3.5-3.1 6.6-2.6 4 1.3 11 2.6 21.6 4.4 11 2.2 19.4 0 25.1-6.2 2.2-2.2 4-4.4 4-6.2 1.8-9.3 2.6-16.3 1.8-22-10.6 5.3-16.3 7.9-17.2 7.9-10.6 4-20.3 3.1-29.1-3.5-9.7-7.1-15.9-17.2-19-30.4-1.3-6.2-1.3-14.6 0-25.1 1.3-11 3.5-20.3 6.6-27.8 4-8.8 11-14.6 21.2-17.2 15-4.4 27.8-.4 37.5 11.5l3.5 3.5.8-9.3zm-39.7 66.1c3.5 13.2 11.5 16.8 24.7 11 4.9-2.2 7.9-5.7 8.8-11 1.3-5.7 2.6-13.7 3.5-23.8.9-8.4-1.8-16.8-8.4-24.3-5.3-6.2-11-8.4-17.2-6.6-5.7 1.8-9.7 5.3-11.5 11.5 0 .9-1.3 7.5-3.5 19.4 2.2 15 3.6 22.9 3.6 23.8zm86 21.2c-7.1-5.7-11-12.8-12.8-21.6-1.8-9.3-2.6-15.9-3.5-19-1.8-11.9-.4-22 3.5-30.4 5.3-11.5 14.1-18.1 26.5-20.3 8.4-1.8 15-2.2 20.3-1.3 2.6.4 4.4.4 4.4.9 7.9 3.5 14.1 7.9 19 14.1.9 1.3 2.2 4 4 8.8 3.5 10.6 5.3 18.1 5.3 22 0 9.7-2.2 18.5-5.7 26.9-2.2 4.9-4.4 8.8-6.6 13.2-3.5 6.2-8.8 9.7-15.9 11.5-.9 0-6.6.9-17.2 2.6-7.2.9-14.3-1.7-21.3-7.4zm41-53.4c-1.3-7.9-4.4-14.1-9.3-18.1-5.7-5.3-11-5.3-15.4-.9-2.2 2.6-4 4.4-4.4 6.2-6.2 15.4-7.1 29.5-2.6 42.8.9 2.6 2.2 4.9 3.5 6.6 3.5 4.4 8.4 6.6 13.7 5.7 5.7-.9 9.3-4 11.5-8.8 2.6-6.2 4-13.7 4-22.5-.6-7-1-10.6-1-11zM478 .4c-7.1-5.7-11-12.8-12.8-21.6-1.8-9.3-2.6-15.9-3.5-19-1.8-11.9-.4-22 3.5-30.4 5.3-11.5 14.1-18.1 26.5-20.3 8.4-1.8 15-2.2 20.3-1.3 2.6.4 4.4.4 4.4.9 7.9 3.5 14.1 7.9 19 14.1.9 1.3 2.2 4 4 8.8 3.5 10.6 5.3 18.1 5.3 22 0 9.7-2.2 18.5-5.7 26.9-2.2 4.9-4.4 8.8-6.6 13.2-3.5 6.2-8.8 9.7-15.9 11.5-.9 0-6.6.9-17.2 2.6-7.1.9-14.2-1.7-21.3-7.4zM519-53c-1.3-7.9-4.4-14.1-9.3-18.1-5.7-5.3-11-5.3-15.4-.9-2.2 2.6-4 4.4-4.4 6.2-6.2 15.4-7.1 29.5-2.6 42.8.9 2.6 2.2 4.9 3.5 6.6 3.5 4.4 8.4 6.6 13.7 5.7 5.7-.9 9.3-4 11.5-8.8 2.6-6.2 4-13.7 4-22.5-.5-7-1-10.6-1-11zm87.8-56c0-7.1 0-13.2.4-19 0-3.5 2.2-5.3 5.7-5.7 3.1 0 7.1 0 11.5.4 3.1.4 4.9 1.8 5.3 4.9.4 2.6.4 3.5.4 3.5v72.8c0 30.9.4 47.2.4 48.9.4 1.8.4 3.1 0 4.4-.4 2.6-1.8 4-4.4 4-4.9-.4-8.8-.9-11.5-1.3-3.5-.4-5.7-3.5-6.6-8.8-6.6 4-10.1 6.2-10.6 6.6-8.4 4.9-17.2 4.9-26.5-.4-12.8-7.5-19.8-18.1-21.2-32.6-1.3-12.8-.4-23.4 1.8-31.7 1.3-5.3 4.4-11.9 9.3-19.4 2.6-4 7.1-6.6 13.7-8.4 7.1-1.8 12.8-1.3 17.2 1.3.4.4 5.3 3.5 15 10.1V-109h.1zm-32.2 61.7v5.3c0 8.4 1.3 15.9 4 22.5 3.5 8.4 9.3 10.1 17.2 4.4 5.3-4 8.4-8.8 9.3-15 .4-2.2.9-8.8 1.3-20.3.4-7.9-2.2-15-8.4-20.7-8.4-8.4-14.6-7.5-19.4 1.8-1.8 3.1-2.6 6.2-3.1 8.8 0 1.3-.5 5.3-.9 13.2z"/><path class="st1" d="M808.8 44.5l-3.5-3.5c-9.7-11.9-22.5-15.4-37.5-11.5-10.1 3.1-17.2 8.8-21.2 17.2-3.1 7.5-5.3 16.8-6.6 27.8-1.3 10.6-1.3 19 0 25.1 2.6 13.2 9.3 23.4 19 30.4 8.8 6.6 18.5 7.9 29.1 3.5.9-.4 6.6-3.1 17.2-7.9.9 5.7 0 13.2-1.8 22-.4 1.8-1.8 4-4 6.2-5.7 6.2-14.1 8.4-25.1 6.2-10.1-1.8-17.2-3.5-21.2-4-3.1-.4-5.3.4-6.6 2.6-2.2 4-2.2 8.8-.9 15 .9 3.1 3.5 4.8 8.8 5.7 21.2 4 37.5 4.4 48.9 1.8 10.6-2.6 18.1-8.8 22.9-19.4 3.5-7.9 5.7-18.5 5.7-32.2v-18.1c-.4-7.5-.4-13.7 0-18.1 0-.9 0-18.5.4-52 0-6.6-.9-10.6-2.6-12.3s-5.7-2.2-11.9-2.2h-.4c-5.3.4-7.9 3.1-7.5 8.8-1.2.5-1.2 8.9-1.2 8.9zm-42.4 33.9c2.2-12.3 3.1-18.5 3.5-19.4 1.8-6.2 5.3-9.7 11.5-11.5 6.2-1.8 11.9.4 17.2 6.6 6.6 7.5 9.7 15.9 8.4 24.3-1.3 10.6-2.2 18.5-3.5 23.8-.9 4.9-4 8.4-8.8 11-13.2 6.2-21.6 2.6-24.7-11-.5-.9-1.8-8.8-3.6-23.8M650.5 60.8c0 6.6-.4 15.4-.9 26.9-.4 12.8-.4 22-.4 26.9-.4 8.8 4 13.2 12.8 13.2h2.6c5.3-.4 7.9-3.5 7.9-8.8 0-3.5 0-9.3-.4-17.2-.4-7.5-.4-13.2-.4-17.2 0-5.7.4-12.8 1.3-21.2.4-5.3 3.5-9.7 9.7-12.3 11.5-5.3 17.6-1.8 19 9.7.9 6.6 1.3 17.2 1.3 30.9v26.5c0 3.5 1.8 6.2 4.8 7.1 4 .9 7.1 1.3 8.8 1.8 4.8.4 7.9-2.2 8.8-7.1.4-1.8.4-4.9.4-9.3v-37c0-10.6-1.8-19.4-4.9-26.5-4-9.3-11-15-20.7-16.3-9.7-1.8-17.6.9-23.4 7.5 0 0-1.3 1.3-4 3.5-.9-3.1-1.3-4.9-1.3-5.3-1.3-3.1-3.5-4.9-6.2-4.9-.9 0-5.3 0-14.1.4-.7.9-.7 28.7-.7 28.7zm-41.1-28.7c-.4 4.4-.9 6.6-.9 6.6 0 2.2.4 6.2.9 11.5.4 4.9.4 8.8.4 11.9.4 18.5.4 35.3.9 50.3 0 10.6 5.3 15.4 15.4 14.6 3.1-.4 5.3-2.2 7.1-5.7V83.4c0 4 0-9.7.4-40.6 0-5.3-1.3-8.8-4-11l-20.2.3zm-49.8 68.4c-1.3-2.6-1.8-4-2.2-4.4-4.4-13.7-7.1-22.5-7.9-26-2.6-8.4-5.7-19.8-9.3-34-.9-3.1-2.6-4.4-5.7-4.4H523c-4.4 0-6.2 2.2-4.8 6.6 2.2 9.7 4.8 18.5 7.5 27.3 1.3 3.5 2.6 8.4 4.9 15 2.2 6.6 4 11.5 4.8 14.6.9 3.1 2.2 7.1 3.5 12.3 1.8 6.2 2.6 10.1 3.5 12.3 1.3 4.4 4.4 7.1 9.3 7.1l12.8.4c4.4.4 7.1-1.3 8.8-5.7.4-.9 1.3-4.4 3.5-11 6.2-19.4 9.3-29.5 9.7-30.4 1.8-4.9 4-11.5 6.6-19.4 3.5-9.7 5.7-16.3 6.6-19.4 1.3-4.4.9-6.6-2.2-7.5-6.2-1.3-11.5-.9-16.3 1.3-.4.4-1.3 1.3-1.8 3.1-1.3 3.5-2.6 7.9-4.4 13.2-2.6 7.9-6.6 20.3-11.5 37v.5c-.4-.4-1.7 3.5-3.9 11.5M486 32.1c-.4 4.4-.9 6.6-.9 6.6 0 2.2.4 6.2.9 11.5.4 4.9.4 8.8.4 11.9.4 18.5.4 35.3.9 50.3 0 10.6 5.3 15.4 15.4 14.6 3.1-.4 5.3-2.2 7.1-5.7V83.4c0 4 0-9.7.4-40.6 0-5.3-1.3-8.8-4-11l-20.2.3zm-41 25.1v26.5c0-1.3 0 10.1-.4 34.4 0 4.8 1.8 7.5 5.7 7.9 3.5.4 7.1.4 10.1 0 4-.4 6.2-2.6 6.2-6.6.4-13.2.4-25.6.9-37.5 0-3.5 0-14.6.4-60.4V10.1c-.4-4-2.2-6.2-6.6-6.6-.4 0-3.5-.4-9.3-.9-4.9-.4-7.5 1.8-7.5 6.6v18.6l.5 29.4z"/><path class="st2" d="M288.9 178.7c-3 .3-5.5-1-7.6-3.7-1.4-1.8-2.4-4.2-3-7.1-.8-4.4-.3-8.6 1.6-12.7.9-2 2.3-3.7 4.1-5.2.2-.1.4-.3.5-.3 2.7-1.4 5.4-1.8 7.9-1.2.6.1 1 .4 1.4.7.2.2.3.5.2.7-.1.3-.3.3-.6.2-.6-.2-1.7-.4-3.2-.4-1.3 0-2.6.2-4 .8-1.5.7-2.8 1.8-3.9 3.4-2.1 3.1-3 6.7-2.9 10.6.1 2.6.7 4.9 1.6 6.9.8 1.8 2 3.2 3.5 4.4 1.1.9 2.3 1.3 3.6 1.2.9 0 1.7 0 2.2-.1 1.1-.1 2-.3 2.6-.6.4-.2.8-.3 1.1-.2.7.2.8.6.3 1.2-.2.2-.4.3-.7.5-1 .6-2.3.9-3.8.9h-.9zm10.6-17.1c.6-2.8 2.4-4.5 5.3-5.1 1.6-.3 3 .1 4.5 1.4 1.4 1.2 2.4 2.6 2.8 4 .4 1.4.6 2.8.7 4.3.1 2.5-.1 4.6-.6 6.2-.3 1.2-.6 2-.8 2.7-.8 2.1-2.4 3.4-4.8 4-1.5.4-3.1-.1-4.7-1.3-1.4-1.1-2.3-2.8-2.7-5.2-.4-2-.5-3.7-.4-5.2.2-2.9.4-4.8.7-5.8zm11.8 3.6c0-1.6-.4-3.1-1.3-4.5-1.6-2.5-3.6-3.4-6-2.5-.7.3-1.3.6-1.8 1.1-.8.8-1.4 2-1.6 3.6-.4 3-.5 5.5-.3 7.7.2 1.3.5 2.5.9 3.6.6 1.3 1.4 2.3 2.5 2.9 3 1.5 5.1.7 6.3-2.5 1-2.5 1.4-4.9 1.3-7.4v-2zm10.6-7.6c1.9-1.3 3.8-1.5 5.8-.6.7.3 1.2.8 1.5 1.6.8 1.9 1.2 3.6 1.3 5.1v9c.1.7.1 1.1.1 1.3.1 1.9.1 2.9.2 3.1.1.4.1.8 0 1.2 0 .2-.2.5-.4.8-.3.4-.6.3-.8-.2-.1-.3-.2-.6-.2-.8-.1-1.4-.1-2.7-.1-3.7s-.1-2.5-.1-4.7c0-2-.1-3.5-.1-4.7 0-2-.4-3.8-1-5.2-.5-1.1-1.2-1.7-2.4-1.8-.8-.1-1.5 0-2.3.4-1.9.9-3.1 2.1-3.6 3.8-.1.4-.2 1-.2 1.6v9.5c0-.9 0 .6.2 4.6 0 .4 0 .9-.1 1.3 0 .1-.2.3-.4.4-.3.1-.5 0-.6-.3-.2-.6-.3-1-.3-1.4-.2-1.5-.3-4.5-.3-9.1V157c0-.2 0-.5.1-.8.1-.4.3-.4.6-.2s.5.6.5 1.2c0 .1.1.9.2 2.3 1.6-1.2 2.3-1.8 2.4-1.9zm18.7 0c1.9-1.3 3.8-1.5 5.8-.6.7.3 1.2.8 1.5 1.6.8 1.9 1.2 3.6 1.3 5.1v9c.1.7.1 1.1.1 1.3.1 1.9.1 2.9.2 3.1.1.4.1.8 0 1.2 0 .2-.2.5-.4.8-.3.4-.6.3-.8-.2-.1-.3-.2-.6-.2-.8-.1-1.4-.1-2.7-.1-3.7s-.1-2.5-.1-4.7c0-2-.1-3.5-.1-4.7 0-2-.4-3.8-1-5.2-.5-1.1-1.2-1.7-2.4-1.8-.8-.1-1.5 0-2.3.4-1.9.9-3.1 2.1-3.6 3.8-.1.4-.2 1-.2 1.6v9.5c0-.9 0 .6.2 4.6 0 .4 0 .9-.1 1.3 0 .1-.2.3-.4.4-.3.1-.5 0-.6-.3-.2-.6-.3-1-.3-1.4-.2-1.5-.3-4.5-.3-9.1V157c0-.2 0-.5.1-.8.1-.4.3-.4.6-.2s.5.6.5 1.2c0 .1.1.9.2 2.3 1.5-1.2 2.3-1.8 2.4-1.9zm25.8 2.8c.6 1.5.8 3 .6 4.4-.2 1-.3 1.6-.3 1.8-.1.7-.6 1.2-1.4 1.2-.9.1-1.6.1-1.9.1h-3c-1.5.1-2.5.1-3 .1-.1 0-.5.1-1.4.2-.2 1.3-.1 2.4.3 3.3.7 1.8 1.3 3 2 3.7.6.7 1.4 1.2 2.4 1.5 1.7.5 3.2.3 4.5-.5.4-.3.9-.1 1.4.4-.3.6-.8 1-1.4 1.3-4.2 1.8-7.3.6-9.3-3.7-.8-1.6-1.2-3.3-1.2-5 0-.1 0-.4-.1-.8 0 .8.1.2.2-1.9.1-.4.1-.6.1-.8 0-1.8.5-3.6 1.7-5.3 1.1-2 2.8-3 5-3.2.3 0 .6 0 .8.1 1.3.4 2.3.9 3 1.5.5.6.8 1.1 1 1.6zm-.9 5.8c.5-1.7.5-3.4-.2-5.1-.1-.4-.3-.7-.6-.8-1-.9-2.2-1.4-3.3-1.4-1.6 0-2.8.7-3.7 2.1-.7 1.1-1.2 2.3-1.4 3.6-.2 1.1-.3 1.8-.2 2.1 2.9-.1 4.4-.1 4.7-.2 3.9-.4 5.5-.5 4.7-.3zm17-7.7c-.2-.1-.3-.1-.4-.1-1.6-.7-3.5-.5-5.6.5-.3.1-.7.4-1.1.8-.9 1-1.5 2.3-1.8 4-.3 1.8-.5 3.2-.5 4 0 2.5.4 4.6 1.3 6.2 1 1.8 2.6 3 4.8 3.6 1.3.4 2.4.3 3.5 0 .5-.2.9-.1 1.3.2.1.5-.1.9-.6 1.1-.5.2-.9.4-1.2.4-3.5.4-6.4-.9-8.6-3.7-.6-.7-1-1.8-1.4-3.2-.7-3-.7-6 .1-9.1.4-1.5.9-2.6 1.5-3.5.6-.8 1.2-1.4 1.9-1.8 2.6-1.5 5.2-1.5 7.6 0-.2.4-.4.7-.8.6zm10.8-1.5h1.4c.3.1.5.2.7.4.2.2.3.4.2.7-.1.3-.3.4-.5.4h-3.4c-.3.9-.4 2.2-.3 4 .1 4 .2 6.2.2 6.5 0 2.6.1 4.4.3 5.5.1.8.3 1.4.4 1.9.3.8.9 1.2 1.7 1.1.7-.1.9-.1.7-.1.3 0 .4.1.5.2.1.3.1.5 0 .7-.3.3-.5.5-.8.6-1.6.4-2.7-.2-3.4-1.6-.4-.8-.6-1.7-.7-2.7-.1-1.1-.2-3.6-.3-7.6 0-.6-.1-1.5-.1-2.6-.1-1.2-.1-2.1-.1-2.6v-3c-.5-.1-.7-.2-.7-.2-.2 0-.6-.1-1.1-.1-.5 0-.9-.1-1.1-.1-.7-.1-.8-.5-.5-1.4 3-.2 4.1-.2 3.5 0 .3-.7.4-1.7.3-3.1-.1-.5-.1-1.1-.1-1.7 0-.4.2-.5.5-.3.4.2.6.6.6 1.1 0 .3.1 1.5.3 3.8.5.1 1 .2 1.8.2zm34.2 16.1s0-.1.1-.2c.2-.9.5-2.1.8-3.6.4-1.8.7-3 .8-3.6.6-2.6 1-4.3 1.3-5.2.1-.6.5-1.8 1.1-3.6.1-.4.4-.5.8-.4.5.1.6.4.6.9 0 0 0 .1-.1.4-.5 1.4-.9 3.3-1.4 5.6-.1.6-.3 1.4-.6 2.3-.3 1.1-.5 1.9-.6 2.3-.2.7-.4 1.7-.7 3-.3 1.4-.5 2.4-.7 3-.3 1.4-.6 2.7-1 3.9-.2.7-.8 1.2-1.7 1.3-.3-.5-.5-.8-.5-.8-.6-1.4-1.1-2.8-1.4-4.3-.1-.3-.9-3.3-2.5-9-.3-.9-.5-1.7-.6-2.3-.2-.7-.6-1.9-1.3-3.6l-.3.6c-.5 3-.7 4.5-.6 4.4 0-.1-.5 2.4-1.4 7.4-.1.8-.5 2.6-1.1 5.4-.1.4-.2.7-.4 1.1-.2.5-.5.7-1 .6-.9-.2-1.4-.6-1.6-1.2-.2-.7-.5-1.9-1-3.6-.6-2.1-1.2-3.8-1.6-5.1-.1-.3-1.1-4-3-11.3-.1-.4-.1-.8.2-1h.4c.1 0 .3.1.7.3 1.1 4.4 1.6 6.7 1.7 7 .3 1 1 3.4 2.2 7.2-.1-.4.3.8 1.3 3.8 0 .1.1.5.4 1.4.2-.1.3-.1.3-.2.1-.1.1-.3.2-.4.6-3.2 1.1-5.4 1.3-6.7.1-.5.2-1.2.3-2 .2-1 .3-1.7.4-2 0-.2.2-1.1.5-2.6.5-2.4.8-4 .9-4.6 0 0 .1-.2.2-.5.3-.1.4-.1.5-.1.9 0 1.5.4 1.7 1.2.3.9.7 1.8 1.1 2.7.3.6.6 1.5.9 2.8-.1-.4.8 3 2.7 10.3.2.7.3 1.3.5 1.8 0 0 .2.2.4.6.5-2.3.8-3.4.8-3.4zm10.6-21.7c-.3 0-.5-.1-.8-.3-1.2-1-1.2-2.1.2-3.4.1-.1.3-.1.4-.1 1.2.1 1.8.7 1.9 1.9.1 1.3-.5 1.9-1.7 1.9zm.7 16.7c0 .7 0 1.8-.1 3.2-.1 1.2 0 3.2.2 6.2 0 0 .1.3.2 1 .1.4-.1.7-.5.9-.4.2-.7 0-.9-.4l-.3-1.2c-.1-3.1-.1-5.2-.1-6.4v-8.8c-.1-1.1-.1-2.6-.2-4.6v-1.6c.1-.8.5-.9 1.3-.4.3 7 .4 11 .4 12.1zm10.9-11.1h1.4c.3.1.5.2.7.4.2.2.3.4.2.7-.1.3-.3.4-.5.4h-3.4c-.3.9-.4 2.2-.3 4 .1 4 .2 6.2.2 6.5 0 2.6.1 4.4.3 5.5.1.8.3 1.4.4 1.9.3.8.9 1.2 1.7 1.1.7-.1.9-.1.7-.1.3 0 .4.1.5.2.1.3.1.5 0 .7-.3.3-.5.5-.8.6-1.6.4-2.7-.2-3.4-1.6-.4-.8-.6-1.7-.7-2.7-.1-1.1-.2-3.6-.3-7.6 0-.6-.1-1.5-.1-2.6-.1-1.2-.1-2.1-.1-2.6v-3c-.5-.1-.7-.2-.7-.2-.2 0-.6-.1-1.1-.1-.5 0-.9-.1-1.1-.1-.7-.1-.8-.5-.5-1.4 3-.2 4.1-.2 3.5 0 .3-.7.4-1.7.3-3.1-.1-.5-.1-1.1-.1-1.7 0-.4.2-.5.6-.3.4.2.6.6.6 1.1 0 .3.1 1.5.3 3.8.4.1.9.2 1.7.2zm8.9 3.1c.2-.3.6-.6 1-1l1-1c.8-.8 1.8-1.3 3-1.6 1-.2 2 0 3 .6 0 0 .1.1.2.1.1.1.1.1.2.1 1.7 1 2.6 2.8 2.7 5.3.1 1 .1 2.3 0 3.7 0 .6-.1 1.4-.1 2.4-.1 1.2-.1 2-.2 2.4v2c-.1 3.7-.1 5.4-.1 4.9 0 .4-.2.8-.5.9-.4.2-.6.1-.7-.3-.1-.5-.2-1-.2-1.3v-3.2c0 .2.1-1.9.3-6.5.1-.9.1-2.7 0-5.5 0-.1-.1-.5-.2-1.2-.2-1.5-1.1-2.5-2.5-3.2-1.1-.5-2.2-.3-3.3.5-1.3 1-2.5 2.3-3.6 3.9-.3.4-.4.9-.5 1.4v5c.1 1.4.1 2.4.1 3.1v6.5c-.1.4-.4.6-.8.6-.3 0-.5-.2-.6-.5-.1-.4-.1-.8-.1-1.2-.1-3.2-.1-5.7-.1-7.6v-6.1c0-3.4-.1-5.6-.2-6.7-.1-1.5-.1-3.9 0-7.3 0-1.2.1-2 .1-2.4 0-.4.1-.7.1-1 .1-.3.3-.4.6-.3.3.1.4.2.5.4.1.1.1.4.1.8v2.7c0 1.2-.1 2.1-.1 2.8 0 .1 0 .8.1 2.1.1 2.8.1 4.6.2 5.2l.1.7c.3 0 .5-.2.5-.2zm27.7 16.5c.8.4 2 .7 3.6.9 1.5.2 2.8-.1 3.9-.9 1.2-.8 1.9-1.9 2-3.5v-.9c.3-2-.5-3.8-2.2-5.5-.2-.2-1.2-1-3-2.5-1.3-1.1-2.4-2.3-3.3-3.4-.7-.9-1.1-1.9-1.3-2.9-.6-3-.1-5.5 1.6-7.7.7-.9 1.7-1.5 3-1.6 1.8-.3 3.7 0 5.7.9.1 0 .1.1.2.2.3.3.3.5.2.6-.2.2-.4.3-.6.3l-.8-.2c-1.6-.5-3.2-.6-4.7-.4-.8.1-1.5.6-2 1.2-1.5 1.9-1.8 4.3-.9 7.2.1.2.3.6.8 1.2 1.1 1.5 2.6 3 4.6 4.6 1.2 1 1.9 1.6 2.1 1.8 1.4 1.5 2.1 3.1 2.2 4.9 0 .8-.1 1.8-.2 2.9-.2 1.6-1 3-2.4 4-1.5 1-3.2 1.4-5.2 1.2-1.3-.1-2.6-.5-4.1-1.1-.5-.2-.8-.6-.9-1.3.4-.3 1-.3 1.7 0zm25.1-7.1c-2.5.1-4.4.3-5.7.4-.4.5-.6 1-.8 1.6-.9 3.1-1.3 4.3-1 3.4-.3.8-.6 1.9-1 3.1-.1.3-.3.6-.4.9-.2.3-.4.4-.7.3-.3-.1-.5-.4-.5-.7v-.6c.5-1.5 1-3 1.5-4.6 2-6.2 3.1-9.4 3.2-9.7.9-2.8 1.8-5.5 2.8-8.1.2-.4 1.1-2.5 2.7-6.1l.6-1.2c.4-.1.8 0 1.1.4.1.2.3.4.3.6.7 1.8 1.2 3.2 1.4 4.2 0 .1.5 2.4 1.6 7.1.6 2.5.8 3.4.6 2.6.4 1.7.9 3.4 1.4 5.2.5 1.7 1.1 3.8 1.8 6.2.1.3.4 1 .8 2.2.2.6.2 1 .1 1.3-.1.3-.3.4-.5.5-.3.1-.5 0-.6-.3-.2-.4-.4-1-.6-1.5.5 1.7-.2-.6-2.1-6.9l-.3-.8c-1.2.3-3.1.4-5.7.5zm2.3-1.6s.8-.1 2.3-.2l.6-.1v-.2c-1.7-7.2-2.6-10.8-2.6-11 .3 1.2 0-.3-1-4.8 0 0-.2-.4-.4-1.2-.5.7-1 1.8-1.6 3.3-1.5 3.7-2.9 7.8-4.3 12.2 0 .1-.3.8-.8 2.4 5.2-.2 7.8-.4 7.8-.4zm13.3-20.7c-.5 1.4-.9 3.4-1.4 6-.1.3-.2.7-.3 1.2 0 .2-.1.3-.1.4-.3.5-.6.7-1.1.4-.3-.2-.4-.5-.3-.8.5-2 .9-3.7 1.2-5.3.1-.4.3-1.2.7-2.5.1-.2.1-.5.2-.7.2-.4.5-.5.8-.2 0 0 .2.3.5.7-.1.5-.2.8-.2.8zm9.7 9.5c.7-.1 1.7.2 2.9.9.4.3.5.6.3.9-.2.3-.5.4-.9.1-.6-.4-1.5-.5-2.9-.5-1.1.1-2.1.6-2.9 1.6-.5.6-.7 1.6-.8 3.1 0 .3.2.7.6 1.2.4.4.9.8 1.4 1.1 1.3.7 2.9 2.1 4.9 4 1.6 1.6 2 3.6 1.2 6-.7 2.3-2.4 3.7-4.9 4.3-.5.1-1 .1-1.8-.2-.5-.2-1.6-.6-3.3-1.3-.1-.1-.3-.2-.4-.4-.2-.2-.3-.5-.1-.8.1-.2.3-.3.6-.3.7.2 1.1.4 1.4.4.2.1.4.1.7.3.3.1.5.3.6.3 1.6.6 3 .4 4.4-.7 1.4-1.1 1.9-2.5 1.7-4.3-.1-.8-.4-1.6-1.1-2.2-.9-.8-2-1.8-3.3-2.9-.7-.6-1.5-1.2-2.3-1.7-1.2-.7-1.7-2-1.6-3.8.1-3.2 1.8-5 5-5.2l.6.1zm29.9 3.7c.6 1.5.8 3 .6 4.4-.2 1-.3 1.6-.3 1.8-.1.7-.6 1.2-1.4 1.2-.9.1-1.6.1-1.9.1h-3c-1.5.1-2.5.1-3 .1-.1 0-.5.1-1.4.2-.2 1.3-.1 2.4.3 3.3.7 1.8 1.3 3 2 3.7.6.7 1.4 1.2 2.4 1.5 1.7.5 3.2.3 4.5-.5.5-.3.9-.1 1.4.4-.3.6-.8 1-1.4 1.3-4.2 1.8-7.3.6-9.3-3.7-.8-1.6-1.2-3.3-1.2-5 0-.1 0-.4-.1-.8 0 .8.1.2.2-1.9.1-.4.1-.6.1-.8 0-1.8.5-3.6 1.7-5.3 1.1-2 2.8-3 5-3.2.3 0 .6 0 .8.1 1.3.4 2.3.9 3 1.5.4.6.8 1.1 1 1.6zm-.9 5.8c.5-1.7.5-3.4-.2-5.1-.1-.4-.3-.7-.5-.8-1-.9-2.2-1.4-3.3-1.4-1.6 0-2.8.7-3.7 2.1-.7 1.1-1.2 2.3-1.4 3.6-.2 1.1-.3 1.8-.2 2.1 2.9-.1 4.4-.1 4.7-.2 3.8-.4 5.3-.5 4.6-.3zm10.6-8.6c1.9-1.3 3.8-1.5 5.8-.6.7.3 1.2.8 1.5 1.6.8 1.9 1.2 3.6 1.3 5.1v9c.1.7.1 1.1.1 1.3.1 1.9.1 2.9.2 3.1.1.4.1.8 0 1.2 0 .2-.2.5-.4.8-.3.4-.6.3-.8-.2-.1-.3-.2-.6-.2-.8-.1-1.4-.1-2.7-.1-3.7s-.1-2.5-.1-4.7c0-2-.1-3.5-.1-4.7 0-2-.4-3.8-1-5.2-.5-1.1-1.2-1.7-2.4-1.8-.8-.1-1.5 0-2.3.4-1.9.9-3.1 2.1-3.6 3.8-.1.4-.2 1-.2 1.6v9.5c0-.9 0 .6.2 4.6 0 .4 0 .9-.1 1.3 0 .1-.2.3-.4.4-.3.1-.5 0-.6-.3-.2-.6-.3-1-.3-1.4-.2-1.5-.3-4.5-.3-9.1V157c0-.2 0-.5.1-.8.1-.4.3-.4.6-.2s.5.6.5 1.2c0 .1.1.9.2 2.3 1.5-1.2 2.3-1.8 2.4-1.9zm20.4 17c.2-.5.3-1.1.5-1.9.4-1.8.9-3.8 1.6-6.2.1-.1.9-3.1 2.7-8.9.2-.6.3-1 .4-1.3.2-.4.5-.5.8-.2l.2.2s.1.1.3.4c-.1.4-.3.8-.3 1.1-1.1 3.8-1.7 6-1.9 6.5-.5 1.9-.7 2.5-.5 1.8-1.5 5.8-2.2 8.3-2 7.7-.1.3-.5 1.5-1.1 3.5-.1.1-.2.3-.3.7-.2.4-.5.5-.9.5-.5 0-.7-.2-.9-.6-1.1-3.2-1.7-5-1.9-5.3 0 .1-1-3.7-3.1-11.4-.1-.3-.3-.8-.4-1.3-.2-.7-.3-1.1-.4-1.4-.2-.5-.3-1-.4-1.4-.1-.5 0-.8.3-.8.3-.1.6.1.8.5.4 1 .6 1.6.8 2 .1.3.5 2 1.4 5.3.1.3.1.5.2.6.4 1 .8 2.4 1.3 4.2.5 2 .9 3.4 1.2 4.2.8 2.4 1.2 3.4 1 2.9l.2.2c-.2-.2 0-.7.4-1.6zm11.4-23.2c-.3 0-.5-.1-.8-.3-1.2-1-1.2-2.1.2-3.4.1-.1.3-.1.4-.1 1.2.1 1.8.7 1.9 1.9 0 1.3-.5 1.9-1.7 1.9zm.7 16.7c0 .7 0 1.8-.1 3.2-.1 1.2 0 3.2.2 6.2 0 0 .1.3.2 1 .1.4-.1.7-.5.9-.4.2-.7 0-.9-.4l-.3-1.2c-.1-3.1-.1-5.2-.1-6.4v-8.8c-.1-1.1-.1-2.6-.2-4.6v-1.6c.1-.8.5-.9 1.3-.4.2 7 .4 11 .4 12.1zm7.4-8.7c.2.1.4 0 .6-.2.6-.8.9-1.2.9-1.1 1.2-1.3 2.6-1.8 4.2-1.4.4.1.6.3.5.6 0 .2-.1.4-.3.7-.1.1-.2.1-.4.2h-.5c-1-.1-1.9.3-2.7 1.2-.5.6-1.2 1.8-2 3.4-.1.1-.1.5 0 1.2.2 4.4.3 6.2.3 5.2v5.4c0 1.1 0 2.4.1 3.7 0 .4-.1.6-.3.8-.3.4-.6.4-.9.3-.3-.1-.4-.4-.4-.7-.1-1.6-.1-3 0-4.3.1-3.6 0-7.5-.4-11.7 0-.3-.1-1.8-.2-4.6v-.6c.1-.4.3-.6.7-.5 0 0 .2.1.5.3.2.4.3 1.3.3 2.1zm9.7 2.2c.6-2.8 2.4-4.5 5.3-5.1 1.6-.3 3 .1 4.5 1.4 1.4 1.2 2.4 2.6 2.8 4 .4 1.4.6 2.8.7 4.3.1 2.5-.1 4.6-.5 6.2-.3 1.2-.6 2-.8 2.7-.8 2.1-2.4 3.4-4.8 4-1.5.4-3.1-.1-4.7-1.3-1.4-1.1-2.3-2.8-2.7-5.2-.4-2-.5-3.7-.4-5.2.1-2.9.4-4.8.6-5.8zm11.9 3.6c0-1.6-.4-3.1-1.3-4.5-1.6-2.5-3.6-3.4-6-2.5-.7.3-1.3.6-1.8 1.1-.8.8-1.4 2-1.6 3.6-.4 3-.5 5.5-.3 7.7.2 1.3.5 2.5.9 3.6.6 1.3 1.4 2.3 2.5 2.9 3 1.5 5.1.7 6.3-2.5 1-2.5 1.4-4.9 1.3-7.4v-2zm10.6-7.6c1.9-1.3 3.8-1.5 5.8-.6.7.3 1.2.8 1.5 1.6.8 1.9 1.2 3.6 1.3 5.1v9c.1.7.1 1.1.1 1.3.1 1.9.1 2.9.2 3.1.1.4.1.8 0 1.2 0 .2-.2.5-.4.8-.3.4-.6.3-.8-.2-.1-.3-.2-.6-.2-.8-.1-1.4-.1-2.7-.1-3.7s-.1-2.5-.1-4.7c0-2-.1-3.5-.1-4.7 0-2-.4-3.8-1-5.2-.5-1.1-1.2-1.7-2.4-1.8-.8-.1-1.5 0-2.3.4-1.9.9-3.1 2.1-3.6 3.8-.1.4-.2 1-.2 1.6v9.5c0-.9 0 .6.2 4.6 0 .4 0 .9-.1 1.3 0 .1-.2.3-.4.4-.3.1-.5 0-.6-.3-.2-.6-.3-1-.3-1.4-.2-1.5-.3-4.5-.3-9.1V157c0-.2 0-.5.1-.8.1-.4.3-.4.6-.2s.5.6.5 1.2c0 .1.1.9.2 2.3 1.5-1.2 2.3-1.8 2.4-1.9zm25.4 10.7c.1-2.7 0-5.3-.3-7.6-.2-1.5-.9-2.4-2.2-2.8-1.4-.3-2.5-.1-3.4.7-1.4 1.2-2.4 2.7-3 4.6-.1.3-.1 1-.1 2 0 4 .1 7.5.1 10.4 0 .3 0 .7.1 1.2.1.6.1 1 .1 1.2 0 .4-.1.7-.2 1-.1.2-.3.3-.5.4-.3 0-.5-.2-.6-.5v-.4c-.1-2.1-.1-3.4-.1-4-.1-6.5-.2-11.2-.2-14.2 0-.6 0-1.8.1-3.6 0-.3.1-.5.4-.4.2 0 .4.1.6.3.1.1.1.2.1.4v.9c0 .9.1 1.5.3 2 1-1.2 1.5-1.8 1.6-1.9.5-.5 1-.9 1.6-1.3.7-.4 1.5-.6 2.6-.5 2 .1 3.4 1.3 4.2 3.7.9-1.1 1.3-1.7 1.4-1.7.6-.8 1.4-1.4 2.5-1.7 2.5-.9 4.5-.2 5.8 2 .8 1.4 1.2 2.8 1.2 4.3v7.9c0 2-.1 3.4-.1 4.3v3c0 .8-.3 1.1-.8 1-.4-.1-.6-.4-.6-1v-1.6c.1-5.2.2-9.8.2-13.7 0-1.8-.6-3.3-1.9-4.4-.4-.4-1-.6-1.7-.7-1.6-.1-3 .5-4.2 2-.2.2-.7 1.2-1.6 3-.1.1-.1.5-.1 1 .1 3 .1 4.4.1 4v3.3c-.1 1.7-.1 2.8-.1 3.3v4c0 .4-.2.7-.5.8-.2.1-.5 0-.8-.4-.2-.5-.2-4 0-10.3zm28.8-7.9c.6 1.5.8 3 .6 4.4-.2 1-.3 1.6-.3 1.8-.1.7-.6 1.2-1.4 1.2-.9.1-1.5.1-1.9.1h-3c-1.5.1-2.5.1-3 .1-.1 0-.5.1-1.4.2-.2 1.3-.1 2.4.3 3.3.7 1.8 1.3 3 2 3.7.6.7 1.4 1.2 2.4 1.5 1.7.5 3.2.3 4.5-.5.5-.3.9-.1 1.4.4-.3.6-.8 1-1.4 1.3-4.2 1.8-7.3.6-9.3-3.7-.8-1.6-1.2-3.3-1.2-5 0-.1 0-.4-.1-.8 0 .8.1.2.2-1.9.1-.4.1-.6.1-.8 0-1.8.5-3.6 1.7-5.3 1.1-2 2.8-3 5-3.2.3 0 .6 0 .8.1 1.3.4 2.3.9 3 1.5.4.6.8 1.1 1 1.6zm-.9 5.8c.5-1.7.5-3.4-.2-5.1-.1-.4-.3-.7-.5-.8-1-.9-2.2-1.4-3.3-1.4-1.6 0-2.8.7-3.7 2.1-.7 1.1-1.2 2.3-1.4 3.6-.2 1.1-.3 1.8-.2 2.1 2.9-.1 4.4-.1 4.7-.2 3.8-.4 5.3-.5 4.6-.3zm10.5-8.6c1.9-1.3 3.8-1.5 5.8-.6.7.3 1.2.8 1.5 1.6.8 1.9 1.2 3.6 1.3 5.1v9c.1.7.1 1.1.1 1.3.1 1.9.1 2.9.2 3.1.1.4.1.8 0 1.2 0 .2-.2.5-.4.8-.3.4-.6.3-.8-.2-.1-.3-.2-.6-.2-.8-.1-1.4-.1-2.7-.1-3.7s-.1-2.5-.1-4.7c0-2-.1-3.5-.1-4.7 0-2-.4-3.8-1-5.2-.5-1.1-1.2-1.7-2.4-1.8-.8-.1-1.5 0-2.3.4-1.9.9-3.1 2.1-3.6 3.8-.1.4-.2 1-.2 1.6v9.5c0-.9 0 .6.2 4.6 0 .4 0 .9-.1 1.3 0 .1-.2.3-.4.4-.3.1-.5 0-.6-.3-.2-.6-.3-1-.3-1.4-.2-1.5-.3-4.5-.3-9.1V157c0-.2 0-.5.1-.8.1-.4.3-.4.6-.2s.5.6.5 1.2c0 .1.1.9.2 2.3 1.6-1.2 2.4-1.8 2.4-1.9zm18.2-1.6h1.5c.3.1.5.2.8.4.2.2.3.5.2.7-.1.3-.3.4-.5.4h-3.6c-.3.9-.4 2.3-.3 4.2.1 4.2.2 6.5.2 6.8 0 2.7.1 4.6.3 5.7.1.8.3 1.5.4 2 .3.8.9 1.2 1.8 1.2.7-.1 1-.1.8-.1.3 0 .4.1.5.2.1.3.1.6 0 .7-.3.3-.5.5-.8.6-1.7.4-2.9-.2-3.5-1.7-.4-.8-.6-1.8-.8-2.8-.1-1.2-.2-3.8-.3-7.9 0-.6-.1-1.5-.1-2.7-.1-1.2-.1-2.2-.1-2.7v-3.2c-.5-.1-.7-.2-.8-.2-.2 0-.6-.1-1.2-.1-.5 0-.9-.1-1.2-.1-.7-.1-.9-.6-.5-1.4 3.1-.2 4.3-.2 3.7 0 .3-.7.4-1.8.3-3.2-.1-.5-.1-1.1-.1-1.8 0-.4.2-.5.6-.3.4.2.6.6.7 1.1 0 .3.1 1.6.3 4 .4.1.9.2 1.7.2z"/></svg>