<?xml version="1.0" encoding="utf-8"?>
<!-- Generator: Adobe Illustrator 22.1.0, SVG Export Plug-In . SVG Version: 6.00 Build 0)  -->
<svg version="1.1" id="Layer_1" xmlns="http://www.w3.org/2000/svg" xmlns:xlink="http://www.w3.org/1999/xlink" x="0px" y="0px"
	 width="793.06px" height="240.19px" viewBox="0 0 793.06 240.19" style="enable-background:new 0 0 793.06 240.19;"
	 xml:space="preserve">
<style type="text/css">
	.st0{fill:#FFFFFF;}
	.st1{opacity:0.5;}
</style>
<g>
	<path class="st0" d="M70.7,46.9c0-5.6,2.4-8.5,7.7-8.8l0.6,0.3c6.5,0,10.6,0.9,12.1,2.4c1.8,1.8,2.7,5.9,2.7,12.4
		c-0.3,33.9-0.3,51.3-0.3,52.5c-0.3,4.4-0.3,10.6,0,18c0,9.1,0.3,15.3,0.3,18c0,13.6-2.1,24.5-5.6,32.1c-5,10.3-12.7,16.8-23.3,19.5
		c-11.8,2.9-28.3,2.4-49.2-1.8c-5-0.9-8-2.9-8.8-5.9c-1.5-6.2-1.2-11.2,0.9-15c1.2-2.4,3.5-3.2,6.5-2.7c3.8,0.6,11.2,2.1,21.2,4.1
		c10.9,2.1,19.2,0,25-6.2c2.4-2.4,3.8-4.4,4.1-6.5c2.1-9.1,2.7-16.5,1.8-22.1c-10.9,5-16.5,7.7-17.4,8c-10.6,4.1-20.3,2.9-29.2-3.5
		c-9.7-7.1-16.2-17.4-18.9-30.6c-1.2-6.2-1.2-14.7,0.3-25C2.7,74.9,5,65.8,8,58.4C11.8,49.9,18.9,44,29.2,41
		c15.3-4.4,27.7-0.6,37.7,11.2l3.5,3.5L70.7,46.9L70.7,46.9L70.7,46.9z M30.9,112.9c3.5,13.3,11.8,17.1,24.8,10.9
		c5-2.4,8-5.9,8.8-10.9c1.2-5.6,2.4-13.6,3.5-24.2c0.9-8.5-1.8-16.5-8.5-24.2c-5.3-6.2-10.9-8.3-17.1-6.5
		c-5.9,1.5-9.7,5.3-11.2,11.5c0,0.9-1.2,7.4-3.5,19.5C30,104,30.9,112,30.9,112.9z"/>
</g>
<g>
	<path class="st0" d="M117.3,134.1c-7.1-5.9-11.2-13-12.7-21.5c-1.8-9.4-2.9-15.6-3.2-19.2c-1.5-11.8-0.3-21.8,3.5-30.4
		c5.3-11.2,14.1-18.3,26.5-20.6c8.3-1.5,15.3-2.1,20.6-1.2c2.7,0.3,4.1,0.6,4.7,0.6c7.7,3.5,14.1,8.3,18.9,14.1
		c0.9,1.2,2.1,4.1,3.8,8.8c3.8,10.6,5.6,18,5.3,22.1c0,9.7-2.1,18.6-5.6,27.1c-2.4,4.7-4.4,9.1-6.5,13.3c-3.5,5.9-8.5,9.7-15.6,11.5
		c-0.9,0-6.8,1.2-17.4,2.7C131.7,142.4,124.3,139.7,117.3,134.1z M158.2,80.8c-1.5-8-4.4-14.1-9.1-18c-5.9-5.3-10.9-5.6-15.3-0.9
		c-2.4,2.4-3.8,4.4-4.7,6.2c-6.2,15.3-7.1,29.8-2.7,42.7c0.9,2.4,2.1,4.7,3.8,6.8c3.8,4.4,8.3,6.5,13.6,5.6
		c5.6-0.9,9.4-3.8,11.8-9.1c2.4-5.9,3.8-13.6,4.1-22.7C158.8,84.9,158.2,81.1,158.2,80.8z"/>
	<path class="st0" d="M205.7,134.1c-7.1-5.9-11.2-13-12.7-21.5c-1.8-9.4-2.9-15.6-3.2-19.2c-1.5-11.8-0.3-21.8,3.5-30.4
		c5.3-11.2,14.1-18.3,26.5-20.6c8.3-1.5,15.3-2.1,20.6-1.2c2.7,0.3,4.1,0.6,4.7,0.6c7.7,3.5,14.1,8.3,18.9,14.1
		c0.9,1.2,2.1,4.1,3.8,8.8c3.8,10.6,5.6,18,5.3,22.1c0,9.7-2.1,18.6-5.6,27.1c-2.4,4.7-4.4,9.1-6.5,13.3c-3.5,5.9-8.5,9.7-15.6,11.5
		c-0.9,0-6.8,1.2-17.4,2.7C219.8,142.4,212.8,139.7,205.7,134.1z M246.6,80.8c-1.5-8-4.4-14.1-9.1-18c-5.9-5.3-10.9-5.6-15.3-0.9
		c-2.4,2.4-3.8,4.4-4.7,6.2c-6.2,15.3-7.1,29.8-2.7,42.7c0.9,2.4,2.1,4.7,3.8,6.8c3.8,4.4,8.3,6.5,13.6,5.6
		c5.6-0.9,9.4-3.8,11.8-9.1c2.4-5.9,3.8-13.6,4.1-22.7C247.2,84.9,246.6,81.1,246.6,80.8z"/>
	<path class="st0" d="M334.8,24.5c0-7.1,0-13.6,0.3-18.9c0-3.5,2.1-5.6,5.6-5.6c2.9,0,6.8,0,11.5,0.3c2.9,0.3,4.7,1.8,5.3,4.7
		c0.3,2.7,0.6,3.8,0.6,3.8c0,48.3-0.3,72.5-0.3,72.8c0,30.9,0.3,47.4,0.6,48.9c0.2,1.8,0.2,3.3,0.2,4.2c-0.3,2.9-1.8,4.1-4.4,3.8
		c-5-0.3-8.8-0.9-11.5-1.2c-3.8-0.6-5.9-3.5-6.5-8.8c-6.8,4.1-10.3,6.5-10.6,6.8c-8.3,5-17.1,5-26.5-0.3c-13-7.4-20-18.3-21.2-32.4
		c-1.2-12.7-0.6-23.6,1.8-31.8c1.5-5.3,4.4-11.8,9.4-19.5c2.7-3.8,7.1-6.8,13.6-8.3c6.8-1.8,12.7-1.5,17.1,1.5
		c0.6,0.3,5.6,3.5,15,10L334.8,24.5L334.8,24.5L334.8,24.5z M302.6,86.4v5.3c0,8.5,1.2,15.9,3.8,22.4c3.5,8.5,9.4,10,17.1,4.7
		c5.3-3.8,8.5-8.8,9.4-15c0.3-2.1,0.9-8.8,1.5-20.3c0.3-8-2.4-15-8.3-20.6c-8.3-8.3-14.7-7.7-19.5,1.8c-1.5,3.2-2.7,6.2-3.2,8.8
		C303.2,74.3,302.9,78.4,302.6,86.4L302.6,86.4L302.6,86.4z"/>
</g>
<g class="st1">
	<path class="st0" d="M750.17,82.71l-3.5-3.5c-10-11.8-22.4-15.6-37.7-11.2c-10.4,2.9-17.4,8.8-21.3,17.4
		c-3.2,7.4-5.3,16.5-6.8,27.7c-1.5,10.6-1.5,18.9-0.3,25c2.9,13.3,9.1,23.6,18.9,30.6c8.8,6.5,18.6,7.7,29.2,3.5
		c0.6-0.3,6.5-2.9,17.4-8c0.6,5.6,0,13-1.8,22.1c-0.3,1.8-1.8,3.8-4.1,6.5c-5.9,6.2-14.1,8.3-25,6.2c-10.3-2.1-17.4-3.2-21.2-4.1
		c-3.2-0.6-5.3,0.3-6.5,2.7c-2.1,3.8-2.4,9.1-0.9,15c0.6,2.9,3.5,5,8.8,5.9c20.9,3.8,37.4,4.4,49.2,1.8c10.6-2.7,18.3-9.1,23.3-19.5
		c3.8-7.7,5.6-18.6,5.9-32.1c0-2.9,0-8.8-0.3-18c-0.3-7.7-0.3-13.6,0-18c0-0.9,0-18.6,0.3-52.5c0-6.5-0.9-10.6-2.7-12.4
		c-1.5-1.5-5.6-2.4-12.1-2.4l-0.6-0.3c-5.3,0.3-7.7,3.2-7.7,8.8L750.17,82.71L750.17,82.71z M707.77,116.31
		c2.1-12.1,3.2-18.9,3.5-19.5c1.5-6.2,5.3-10,11.2-11.5c6.2-1.8,12.1,0.6,17.1,6.5c6.8,7.7,9.4,15.6,8.5,24.2
		c-1.2,10.6-2.4,18.6-3.5,24.2c-0.9,5-4.1,8.5-8.8,10.9c-13.3,6.2-21.5,2.4-25-10.9C710.67,139.31,709.47,131.61,707.77,116.31
		 M591.67,98.91c0,6.5-0.3,15.6-0.9,27.1c-0.3,13-0.6,21.8-0.6,27.1c-0.3,8.5,3.8,13,12.7,13.3c0,0,0.9,0,2.7-0.3
		c5.3-0.6,8.3-3.5,8-8.8c0-3.2,0-9.1-0.3-17.4c-0.3-7.4-0.3-13-0.3-17.4c0-5.6,0.3-12.7,1.2-21.2c0.6-5.3,3.8-9.4,9.7-12.4
		c11.5-5.3,17.7-1.8,19.2,9.7c0.6,6.8,1.2,17.1,1.5,30.9c0,0.6,0,9.4-0.3,26.8c0,3.8,1.5,6.2,4.7,7.1c4.1,0.9,7.1,1.5,8.8,1.8
		c5,0.3,8-2.1,8.8-7.1c0.3-1.8,0.3-4.7,0.3-9.1c0-16.5,0-28.9-0.3-37.1c0-10.6-1.8-19.5-4.7-26.8c-4.1-9.4-11.2-15-20.9-16.5
		s-17.4,0.9-23.6,7.7c0,0-1.2,1.2-3.8,3.2c-0.9-3.2-1.5-5-1.5-5.3c-1.2-3.2-3.2-4.7-6.2-4.7c-0.9,0-5.6,0.3-14.1,0.6L591.67,98.91
		L591.67,98.91z M550.37,70.01c-0.6,4.1-0.9,6.5-0.9,6.8c0,2.1,0.3,5.9,0.9,11.8c0.3,5,0.3,8.8,0.6,11.8c0.3,18.6,0.6,35.4,0.6,50.4
		c0,10.3,5,15.3,15.3,14.7c2.9-0.3,5.3-2.1,6.8-5.6c0,0,0-3.5,0-10.3c0-16.2-0.3-25.6-0.3-27.7c0,3.8,0-9.7,0.3-41
		c0-5.3-1.2-8.8-3.8-10.9L550.37,70.01L550.37,70.01z M500.27,138.71c-1.2-2.7-2.1-4.1-2.1-4.1c-4.4-13.9-7.1-22.4-8-25.9
		c-2.4-8.5-5.6-20-9.1-34.2c-0.9-2.9-2.7-4.4-5.6-4.4c-7.1,0-10.9-0.3-11.5-0.3c-4.4,0-6.2,2.4-5,6.8c2.4,9.4,5,18.6,7.7,27.4
		c1.2,3.5,2.7,8.5,4.7,14.7c2.4,6.8,3.8,11.5,4.7,14.7c0.9,2.9,2.4,7.1,3.8,12.4c1.5,6.2,2.7,10,3.5,12.4c1.5,4.7,4.4,7.1,9.1,7.1
		l12.7,0.3c4.1,0.3,7.1-1.5,8.8-5.6c0.3-0.9,1.5-4.4,3.5-11.2c6.2-19.5,9.1-29.8,9.7-30.6c1.5-4.7,3.8-11.2,6.8-19.5
		c3.2-9.7,5.6-16.2,6.8-19.5c1.5-4.1,0.6-6.8-2.4-7.4c-6.2-1.2-11.5-0.9-16.5,1.5c-0.6,0.3-1.2,1.2-1.8,2.9c-1.2,3.5-2.7,8-4.1,13.3
		c-2.7,8.3-6.5,20.6-11.5,37.1l-0.3,0.3C503.77,126.61,502.67,130.41,500.27,138.71 M426.57,70.01c-0.6,4.1-0.9,6.5-0.9,6.8
		c0,2.1,0.3,5.9,0.9,11.8c0.3,5,0.3,8.8,0.6,11.8c0.3,18.6,0.6,35.4,0.9,50.4c0,10.3,5,15.3,15.3,14.7c2.9-0.3,5.3-2.1,6.8-5.6
		c0,0,0-3.5,0-10.3c0-16.2-0.3-25.6-0.3-27.7c0,3.8,0-9.7,0.3-41c0-5.3-1.2-8.8-3.8-10.9L426.57,70.01L426.57,70.01z M385.67,95.11
		v26.8c0-1.5,0,10.3-0.3,34.8c0,4.7,1.8,7.4,5.9,8c3.5,0.6,7.1,0.6,10.3,0.3c4.1-0.6,6.2-2.7,6.2-6.8c0.3-13.3,0.6-25.9,0.6-37.7
		c0-3.5,0.3-14.7,0.6-60.4v-11.6c-0.3-3.8-2.4-6.2-6.5-6.8c-0.6,0-3.5-0.3-9.1-0.9c-5-0.3-7.4,1.8-7.4,6.8c0,2.1,0,5,0.3,9.1
		c0,4.1,0.3,7.1,0.3,9.1v29.5L385.67,95.11L385.67,95.11L385.67,95.11z"/>
</g>
<g>
	<g>
		<path class="st0" d="M229.77,217.61c-3,0.3-5.5-1-7.6-3.7c-1.4-1.8-2.4-4.2-3-7.1c-0.8-4.4-0.3-8.6,1.6-12.7
			c0.9-2,2.3-3.7,4.1-5.2c0.2-0.1,0.4-0.3,0.5-0.3c2.7-1.4,5.4-1.8,8-1.2c0.6,0.1,1,0.4,1.4,0.7c0.2,0.2,0.3,0.5,0.2,0.7
			c-0.1,0.3-0.3,0.3-0.6,0.2c-0.6-0.2-1.7-0.4-3.2-0.4c-1.3,0-2.7,0.2-4,0.8c-1.5,0.7-2.8,1.8-3.9,3.4c-2.1,3.1-3,6.7-2.9,10.6
			c0.1,2.6,0.7,4.9,1.6,6.9c0.8,1.8,2,3.2,3.5,4.4c1.1,0.9,2.3,1.3,3.6,1.2c0.9,0,1.7,0,2.2-0.1c1.1-0.1,2-0.3,2.6-0.6
			c0.4-0.2,0.8-0.3,1.1-0.2c0.7,0.2,0.8,0.6,0.3,1.2c-0.2,0.2-0.4,0.3-0.7,0.5c-1,0.6-2.3,0.9-3.8,0.9L229.77,217.61z"/>
		<path class="st0" d="M240.37,200.51c0.6-2.8,2.4-4.5,5.3-5.1c1.6-0.3,3,0.1,4.5,1.4c1.4,1.2,2.4,2.6,2.8,4s0.6,2.8,0.7,4.3
			c0.1,2.5-0.1,4.6-0.5,6.2c-0.3,1.2-0.6,2-0.8,2.7c-0.8,2.1-2.4,3.4-4.8,4c-1.6,0.4-3.1-0.1-4.7-1.3c-1.4-1.1-2.3-2.8-2.7-5.2
			c-0.4-2-0.5-3.7-0.4-5.2C239.87,203.41,240.07,201.51,240.37,200.51z M252.17,204.11c0-1.6-0.4-3.1-1.3-4.5
			c-1.6-2.5-3.6-3.4-6-2.5c-0.7,0.3-1.3,0.6-1.8,1.1c-0.8,0.8-1.4,2-1.6,3.6c-0.4,3-0.5,5.5-0.3,7.7c0.2,1.3,0.5,2.5,0.9,3.6
			c0.6,1.3,1.4,2.3,2.5,2.9c3,1.5,5.1,0.7,6.3-2.5c1-2.5,1.4-4.9,1.3-7.4V204.11z"/>
		<path class="st0" d="M262.77,196.51c1.9-1.3,3.8-1.5,5.8-0.6c0.7,0.3,1.2,0.8,1.5,1.6c0.8,1.9,1.2,3.6,1.3,5.1v3.9
			c0,1.6,0,2.8,0,3.8c0,0.3,0,0.8,0,1.3c0.1,0.7,0.1,1.1,0.1,1.3c0.1,1.9,0.1,2.9,0.2,3.1c0.1,0.4,0.1,0.8,0,1.2
			c0,0.2-0.2,0.5-0.4,0.8c-0.3,0.4-0.6,0.3-0.8-0.2c-0.1-0.3-0.2-0.6-0.2-0.8c-0.1-1.4-0.1-2.7-0.1-3.7s-0.1-2.5-0.1-4.7
			c0-2-0.1-3.5-0.1-4.7c0-2-0.4-3.8-1-5.2c-0.5-1.1-1.2-1.7-2.4-1.8c-0.8-0.1-1.5,0-2.3,0.4c-1.9,0.9-3.1,2.1-3.6,3.8
			c-0.1,0.4-0.2,1-0.2,1.6c0,4.2,0,7.3,0,9.5c0-0.9,0,0.6,0.2,4.6c0,0.4,0,0.9-0.1,1.3c0,0.1-0.2,0.3-0.4,0.4
			c-0.3,0.1-0.5,0-0.6-0.3c-0.2-0.6-0.3-1-0.3-1.4c-0.2-1.5-0.3-4.5-0.3-9.1c0-1.3,0-4.2,0-8.6v-1.6c0-0.7,0-1.2,0-1.6
			c0-0.2,0-0.5,0.1-0.8c0.1-0.4,0.3-0.4,0.6-0.2c0.3,0.2,0.5,0.6,0.5,1.2c0,0.1,0.1,0.9,0.2,2.3
			C261.87,197.21,262.67,196.61,262.77,196.51z"/>
		<path class="st0" d="M281.37,196.51c1.9-1.3,3.8-1.5,5.8-0.6c0.7,0.3,1.2,0.8,1.5,1.6c0.8,1.9,1.2,3.6,1.3,5.1v3.9
			c0,1.6,0,2.8,0,3.8c0,0.3,0,0.8,0,1.3c0.1,0.7,0.1,1.1,0.1,1.3c0.1,1.9,0.1,2.9,0.2,3.1c0.1,0.4,0.1,0.8,0,1.2
			c0,0.2-0.2,0.5-0.4,0.8c-0.3,0.4-0.6,0.3-0.8-0.2c-0.1-0.3-0.2-0.6-0.2-0.8c-0.1-1.4-0.1-2.7-0.1-3.7s-0.1-2.5-0.1-4.7
			c0-2-0.1-3.5-0.1-4.7c0-2-0.4-3.8-1-5.2c-0.5-1.1-1.2-1.7-2.4-1.8c-0.8-0.1-1.5,0-2.3,0.4c-1.9,0.9-3.1,2.1-3.6,3.8
			c-0.1,0.4-0.2,1-0.2,1.6c0,4.2,0,7.3,0,9.5c0-0.9,0,0.6,0.2,4.6c0,0.4,0,0.9-0.1,1.3c0,0.1-0.2,0.3-0.4,0.4
			c-0.3,0.1-0.5,0-0.6-0.3c-0.2-0.6-0.3-1-0.3-1.4c-0.2-1.5-0.3-4.5-0.3-9.1c0-1.3,0-4.2,0-8.6v-1.6c0-0.7,0-1.2,0-1.6
			c0-0.2,0-0.5,0.1-0.8c0.1-0.4,0.3-0.4,0.6-0.2c0.3,0.2,0.5,0.6,0.5,1.2c0,0.1,0.1,0.9,0.2,2.3
			C280.57,197.21,281.27,196.61,281.37,196.51z"/>
		<path class="st0" d="M307.27,199.31c0.6,1.5,0.8,3,0.6,4.4c-0.2,1-0.3,1.6-0.3,1.8c-0.1,0.7-0.6,1.2-1.4,1.2
			c-0.9,0.1-1.6,0.1-1.9,0.1c-0.8,0-1.7,0-3,0c-1.5,0.1-2.5,0.1-3,0.1c-0.1,0-0.5,0.1-1.4,0.2c-0.2,1.3-0.1,2.4,0.3,3.3
			c0.7,1.8,1.3,3,2,3.7c0.6,0.7,1.4,1.2,2.4,1.5c1.7,0.5,3.2,0.3,4.5-0.5c0.5-0.3,0.9-0.1,1.4,0.4c-0.3,0.6-0.8,1-1.4,1.3
			c-4.2,1.8-7.3,0.6-9.3-3.7c-0.8-1.6-1.2-3.3-1.2-5c0-0.1,0-0.4-0.1-0.8l0,0c0,0.8,0.1,0.2,0.2-1.9c0.1-0.4,0.1-0.6,0.1-0.8
			c0-1.8,0.5-3.6,1.7-5.3c1.1-2,2.8-3,5-3.2c0.3,0,0.6,0,0.8,0.1c1.3,0.4,2.3,0.9,3,1.5C306.67,198.31,307.07,198.81,307.27,199.31z
			 M306.37,205.11c0.5-1.7,0.5-3.4-0.2-5.1c-0.1-0.4-0.3-0.7-0.6-0.8c-1-0.9-2.2-1.4-3.3-1.4c-1.6,0-2.8,0.7-3.7,2.1
			c-0.7,1.1-1.2,2.3-1.4,3.6c-0.2,1.1-0.3,1.8-0.2,2.1c2.9-0.1,4.4-0.1,4.7-0.2C305.57,205.01,307.07,204.91,306.37,205.11z"/>
		<path class="st0" d="M323.27,197.41c-0.2-0.1-0.3-0.1-0.4-0.1c-1.6-0.7-3.5-0.5-5.6,0.5c-0.3,0.1-0.7,0.4-1.1,0.8
			c-0.9,1-1.5,2.3-1.8,4c-0.3,1.8-0.5,3.2-0.5,4c0,2.5,0.4,4.6,1.3,6.2c1,1.8,2.6,3,4.8,3.6c1.3,0.4,2.4,0.3,3.5,0
			c0.5-0.2,0.9-0.1,1.3,0.2c0.1,0.5-0.1,0.9-0.5,1.1c-0.5,0.2-0.9,0.4-1.2,0.4c-3.5,0.4-6.4-0.9-8.6-3.7c-0.6-0.7-1-1.8-1.4-3.2
			c-0.7-3-0.7-6,0.1-9.1c0.4-1.5,0.9-2.6,1.5-3.5c0.6-0.8,1.2-1.4,1.9-1.8c2.6-1.5,5.2-1.5,7.6,0
			C323.97,197.21,323.77,197.51,323.27,197.41z"/>
		<path class="st0" d="M334.17,195.91c0.8,0,1.3,0,1.4,0c0.3,0.1,0.5,0.2,0.7,0.4s0.3,0.4,0.2,0.7c-0.1,0.3-0.3,0.4-0.5,0.4
			c-0.1,0-0.7,0-2,0c-0.1,0-0.6,0-1.4,0c-0.3,0.9-0.4,2.2-0.3,4c0.1,4,0.2,6.2,0.2,6.5c0,2.6,0.1,4.4,0.3,5.5
			c0.1,0.8,0.3,1.4,0.4,1.9c0.3,0.8,0.9,1.2,1.7,1.1c0.7-0.1,0.9-0.1,0.7-0.1c0.3,0,0.4,0.1,0.5,0.2c0.1,0.3,0.1,0.5,0,0.7
			c-0.3,0.3-0.5,0.5-0.8,0.6c-1.6,0.4-2.7-0.2-3.4-1.6c-0.4-0.8-0.6-1.7-0.7-2.7c-0.1-1.1-0.2-3.6-0.3-7.6c0-0.6-0.1-1.5-0.1-2.6
			c-0.1-1.2-0.1-2.1-0.1-2.6c0-0.1,0-1.1,0-3c-0.5-0.1-0.7-0.2-0.7-0.2c-0.2,0-0.6-0.1-1.1-0.1s-0.9-0.1-1.1-0.1
			c-0.7-0.1-0.8-0.5-0.5-1.4c3-0.2,4.1-0.2,3.5,0c0.3-0.7,0.4-1.7,0.3-3.1c-0.1-0.5-0.1-1.1-0.1-1.7c0-0.4,0.2-0.5,0.6-0.3
			s0.6,0.6,0.6,1.1c0,0.3,0.1,1.5,0.3,3.8C332.87,195.81,333.37,195.91,334.17,195.91z"/>
		<path class="st0" d="M368.37,212.01c0,0,0-0.1,0.1-0.2c0.2-0.9,0.5-2.1,0.8-3.6c0.4-1.8,0.7-3,0.8-3.6c0.6-2.6,1-4.3,1.3-5.2
			c0.1-0.6,0.5-1.8,1.1-3.6c0.1-0.4,0.4-0.5,0.8-0.4c0.5,0.1,0.6,0.4,0.6,0.9c0,0,0,0.1-0.1,0.4c-0.5,1.4-0.9,3.3-1.4,5.6
			c-0.1,0.6-0.3,1.4-0.6,2.3c-0.3,1.1-0.5,1.9-0.6,2.3c-0.2,0.7-0.4,1.7-0.7,3c-0.3,1.4-0.5,2.4-0.7,3c-0.3,1.4-0.6,2.7-1,3.9
			c-0.2,0.7-0.8,1.2-1.7,1.3c-0.3-0.5-0.5-0.8-0.5-0.8c-0.6-1.4-1.1-2.8-1.4-4.3c-0.1-0.3-0.9-3.3-2.5-9c-0.3-0.9-0.5-1.7-0.6-2.3
			c-0.2-0.7-0.6-1.9-1.3-3.6l-0.3,0.6c-0.5,3-0.7,4.5-0.6,4.4c0-0.1-0.5,2.4-1.4,7.4c-0.1,0.8-0.5,2.6-1.1,5.4
			c-0.1,0.4-0.2,0.7-0.4,1.1c-0.2,0.5-0.5,0.7-1,0.6c-0.9-0.2-1.4-0.6-1.6-1.2c-0.2-0.7-0.5-1.9-1-3.6c-0.6-2.1-1.2-3.8-1.6-5.1
			c-0.1-0.3-1.1-4-3-11.3c-0.1-0.4-0.1-0.8,0.2-1h0.4c0.1,0,0.3,0.1,0.7,0.3c1.1,4.4,1.6,6.7,1.7,7c0.3,1,1,3.4,2.2,7.2
			c-0.1-0.4,0.3,0.8,1.3,3.8c0,0.1,0.1,0.5,0.4,1.4c0.2-0.1,0.3-0.1,0.3-0.2c0.1-0.1,0.1-0.3,0.2-0.4c0.6-3.2,1.1-5.4,1.3-6.7
			c0.1-0.5,0.2-1.2,0.3-2c0.2-1,0.3-1.7,0.4-2c0-0.2,0.2-1.1,0.5-2.6c0.5-2.4,0.8-4,0.9-4.6c0,0,0.1-0.2,0.2-0.5
			c0.3-0.1,0.4-0.1,0.5-0.1c0.9,0,1.5,0.4,1.7,1.2c0.3,0.9,0.7,1.8,1.1,2.7c0.3,0.6,0.6,1.5,0.9,2.8c-0.1-0.4,0.8,3,2.7,10.3
			c0.2,0.7,0.3,1.3,0.5,1.8c0,0,0.2,0.2,0.4,0.6C368.07,213.11,368.37,212.01,368.37,212.01z"/>
		<path class="st0" d="M378.87,190.31c-0.3,0-0.5-0.1-0.8-0.3c-1.2-1-1.2-2.1,0.2-3.4c0.1-0.1,0.3-0.1,0.4-0.1
			c1.2,0.1,1.8,0.7,1.9,1.9C380.67,189.71,380.07,190.31,378.87,190.31z M379.67,207.01c0,0.7,0,1.8-0.1,3.2c-0.1,1.2,0,3.2,0.2,6.2
			c0,0,0.1,0.3,0.2,1c0.1,0.4-0.1,0.7-0.5,0.9s-0.7,0-0.9-0.4c-0.1-0.4-0.2-0.8-0.3-1.2c-0.1-3.1-0.1-5.2-0.1-6.4c0-5.5,0-8.5,0-8.8
			c-0.1-1.1-0.1-2.6-0.2-4.6c0-0.5,0-1,0-1.6c0.1-0.8,0.5-0.9,1.3-0.4C379.47,201.91,379.67,205.91,379.67,207.01z"/>
		<path class="st0" d="M390.57,195.91c0.8,0,1.3,0,1.4,0c0.3,0.1,0.5,0.2,0.7,0.4s0.3,0.4,0.2,0.7c-0.1,0.3-0.3,0.4-0.5,0.4
			c-0.1,0-0.7,0-2,0c-0.1,0-0.5,0-1.4,0c-0.3,0.9-0.4,2.2-0.3,4c0.1,4,0.2,6.2,0.2,6.5c0,2.6,0.1,4.4,0.3,5.5
			c0.1,0.8,0.3,1.4,0.4,1.9c0.3,0.8,0.9,1.2,1.7,1.1c0.7-0.1,0.9-0.1,0.7-0.1c0.3,0,0.4,0.1,0.5,0.2c0.1,0.3,0.1,0.5,0,0.7
			c-0.3,0.3-0.5,0.5-0.8,0.6c-1.6,0.4-2.7-0.2-3.4-1.6c-0.4-0.8-0.6-1.7-0.7-2.7c-0.1-1.1-0.2-3.6-0.3-7.6c0-0.6-0.1-1.5-0.1-2.6
			c-0.1-1.2-0.1-2.1-0.1-2.6c0-0.1,0-1.1,0-3c-0.5-0.1-0.7-0.2-0.7-0.2c-0.2,0-0.6-0.1-1.1-0.1s-0.9-0.1-1.1-0.1
			c-0.7-0.1-0.8-0.5-0.5-1.4c3-0.2,4.1-0.2,3.5,0c0.3-0.7,0.4-1.7,0.3-3.1c-0.1-0.5-0.1-1.1-0.1-1.7c0-0.4,0.2-0.5,0.5-0.3
			c0.4,0.2,0.6,0.6,0.6,1.1c0,0.3,0.1,1.5,0.3,3.8C389.27,195.81,389.77,195.91,390.57,195.91z"/>
		<path class="st0" d="M399.47,199.01L399.47,199.01c0.2-0.3,0.6-0.6,1-1s0.8-0.8,1-1c0.8-0.8,1.8-1.3,3-1.6c1-0.2,2,0,3,0.6
			c0,0,0.1,0.1,0.2,0.1c0.1,0.1,0.1,0.1,0.2,0.1c1.7,1,2.6,2.8,2.7,5.3c0.1,1,0.1,2.3,0,3.7c0,0.6-0.1,1.4-0.1,2.4
			c-0.1,1.2-0.1,2-0.2,2.4v2c-0.1,3.7-0.1,5.4-0.1,4.9c0,0.4-0.2,0.8-0.5,0.9c-0.4,0.2-0.6,0.1-0.7-0.3c-0.1-0.5-0.2-1-0.2-1.3
			s0-0.8,0-1.6c0-0.7,0-1.2,0-1.6c0,0.2,0.1-1.9,0.3-6.5c0.1-0.9,0.1-2.7,0-5.5c0-0.1-0.1-0.5-0.2-1.2c-0.2-1.5-1.1-2.5-2.5-3.2
			c-1.1-0.5-2.2-0.3-3.3,0.5c-1.3,1-2.5,2.3-3.6,3.9c-0.3,0.4-0.4,0.9-0.5,1.4c0,0.2,0,0.5,0,1c0,0.4,0,0.7,0,1c0,0.7,0,1.7,0,3
			c0.1,1.4,0.1,2.4,0.1,3.1c0,1,0,2.9,0,5.9c0,0.2,0,0.4,0,0.6c-0.1,0.4-0.4,0.6-0.8,0.6c-0.3,0-0.5-0.2-0.6-0.5
			c-0.1-0.4-0.1-0.8-0.1-1.2c-0.1-3.2-0.1-5.7-0.1-7.6c0-0.6,0-1.6,0-3v-3.1c0-3.4-0.1-5.6-0.2-6.7c-0.1-1.5-0.1-3.9,0-7.3
			c0-1.2,0.1-2,0.1-2.4s0.1-0.7,0.1-1c0.1-0.3,0.3-0.4,0.6-0.3c0.3,0.1,0.4,0.2,0.5,0.4c0.1,0.1,0.1,0.4,0.1,0.8c0,0.4,0,1.3,0,2.7
			c0,1.2-0.1,2.1-0.1,2.8c0,0.1,0,0.8,0.1,2.1c0.1,2.8,0.1,4.6,0.2,5.2l0.1,0.7C399.27,199.21,399.47,199.01,399.47,199.01z"/>
		<path class="st0" d="M427.07,215.51c0.8,0.4,2,0.7,3.6,0.9c1.5,0.2,2.8-0.1,3.9-0.9c1.2-0.8,1.9-1.9,2-3.5v-0.9
			c0.3-2-0.5-3.8-2.2-5.5c-0.2-0.2-1.2-1-3-2.5c-1.3-1.1-2.4-2.3-3.3-3.4c-0.7-0.9-1.1-1.9-1.3-2.9c-0.6-3-0.1-5.5,1.6-7.7
			c0.7-0.9,1.7-1.5,3-1.6c1.8-0.3,3.7,0,5.7,0.9c0.1,0,0.1,0.1,0.2,0.2c0.3,0.3,0.3,0.5,0.2,0.6c-0.2,0.2-0.4,0.3-0.6,0.3l-0.8-0.2
			c-1.6-0.5-3.2-0.6-4.7-0.4c-0.8,0.1-1.5,0.6-2,1.2c-1.5,1.9-1.8,4.3-0.9,7.2c0.1,0.2,0.3,0.6,0.8,1.2c1.1,1.5,2.6,3,4.6,4.6
			c1.2,1,1.9,1.6,2.1,1.8c1.4,1.5,2.1,3.1,2.2,4.9c0,0.8-0.1,1.8-0.2,2.9c-0.2,1.6-1,3-2.4,4c-1.5,1-3.2,1.4-5.2,1.2
			c-1.3-0.1-2.6-0.5-4.1-1.1c-0.5-0.2-0.8-0.6-0.9-1.3C425.87,215.21,426.47,215.21,427.07,215.51z"/>
		<path class="st0" d="M452.17,208.41c-2.5,0.1-4.4,0.3-5.7,0.4c-0.4,0.5-0.6,1-0.8,1.6c-0.9,3.1-1.3,4.3-1,3.4
			c-0.3,0.8-0.6,1.9-1,3.1c-0.1,0.3-0.3,0.6-0.4,0.9c-0.2,0.3-0.4,0.4-0.7,0.3c-0.3-0.1-0.5-0.4-0.5-0.7c0-0.2,0-0.4,0-0.6
			c0.5-1.5,1-3,1.5-4.6c2-6.2,3.1-9.4,3.2-9.7c0.9-2.8,1.8-5.5,2.8-8.1c0.2-0.4,1.1-2.5,2.7-6.1c0,0,0.2-0.4,0.5-1.2
			c0.4-0.1,0.8,0,1.1,0.4c0.1,0.2,0.3,0.4,0.3,0.6c0.7,1.8,1.2,3.2,1.4,4.2c0,0.1,0.5,2.4,1.6,7.1c0.6,2.5,0.8,3.4,0.6,2.6
			c0.5,1.7,0.9,3.4,1.4,5.2c0.5,1.7,1.1,3.8,1.8,6.2c0.1,0.3,0.4,1,0.8,2.2c0.2,0.6,0.2,1,0.1,1.3c-0.1,0.3-0.3,0.4-0.5,0.5
			c-0.3,0.1-0.5,0-0.6-0.3c-0.2-0.4-0.4-1-0.6-1.5c0.5,1.7-0.2-0.6-2.1-6.9l-0.3-0.8C456.77,208.21,454.87,208.31,452.17,208.41z
			 M454.57,206.81c0,0,0.8-0.1,2.3-0.2l0.6-0.1v-0.2c-1.7-7.2-2.6-10.8-2.6-11c0.3,1.2,0-0.3-1-4.8c0,0-0.2-0.4-0.4-1.2
			c-0.5,0.7-1,1.8-1.6,3.3c-1.5,3.7-2.9,7.8-4.3,12.2c0,0.1-0.3,0.8-0.8,2.4C451.97,207.01,454.57,206.81,454.57,206.81z"/>
		<path class="st0" d="M467.87,186.11c-0.5,1.4-0.9,3.4-1.4,6c-0.1,0.3-0.2,0.7-0.3,1.2c0,0.2-0.1,0.3-0.1,0.4
			c-0.3,0.5-0.6,0.7-1.1,0.4c-0.3-0.2-0.4-0.5-0.3-0.8c0.5-2,0.9-3.7,1.2-5.3c0.1-0.4,0.3-1.2,0.7-2.5c0.1-0.2,0.1-0.5,0.2-0.7
			c0.2-0.4,0.5-0.5,0.8-0.2c0,0,0.2,0.3,0.5,0.7C467.97,185.81,467.87,186.11,467.87,186.11z"/>
		<path class="st0" d="M477.47,195.61c0.7-0.1,1.7,0.2,2.9,0.9c0.4,0.3,0.5,0.6,0.3,0.9c-0.2,0.3-0.5,0.4-0.9,0.1
			c-0.6-0.4-1.5-0.5-2.9-0.5c-1.1,0.1-2.1,0.6-2.9,1.6c-0.5,0.6-0.7,1.6-0.8,3.1c0,0.3,0.2,0.7,0.6,1.2c0.4,0.4,0.9,0.8,1.4,1.1
			c1.3,0.7,2.9,2.1,4.9,4c1.6,1.6,2,3.6,1.2,6c-0.7,2.3-2.4,3.7-4.9,4.3c-0.5,0.1-1,0.1-1.8-0.2c-0.5-0.2-1.6-0.6-3.3-1.3
			c-0.1-0.1-0.3-0.2-0.4-0.4c-0.2-0.2-0.3-0.5-0.1-0.8c0.1-0.2,0.3-0.3,0.6-0.3c0.7,0.2,1.1,0.4,1.4,0.4c0.2,0.1,0.4,0.1,0.7,0.3
			c0.3,0.1,0.5,0.3,0.6,0.3c1.6,0.6,3,0.4,4.4-0.7c1.4-1.1,1.9-2.5,1.7-4.3c-0.1-0.8-0.4-1.6-1.1-2.2c-0.9-0.8-2-1.8-3.3-2.9
			c-0.7-0.6-1.5-1.2-2.3-1.7c-1.2-0.7-1.7-2-1.6-3.8c0.1-3.2,1.8-5,5-5.2L477.47,195.61L477.47,195.61z"/>
		<path class="st0" d="M507.37,199.31c0.6,1.5,0.8,3,0.6,4.4c-0.2,1-0.3,1.6-0.3,1.8c-0.1,0.7-0.6,1.2-1.4,1.2
			c-0.9,0.1-1.6,0.1-1.9,0.1c-0.8,0-1.7,0-3,0c-1.5,0.1-2.5,0.1-3,0.1c-0.1,0-0.5,0.1-1.4,0.2c-0.2,1.3-0.1,2.4,0.3,3.3
			c0.7,1.8,1.3,3,2,3.7c0.6,0.7,1.4,1.2,2.4,1.5c1.7,0.5,3.2,0.3,4.5-0.5c0.5-0.3,0.9-0.1,1.4,0.4c-0.3,0.6-0.8,1-1.4,1.3
			c-4.2,1.8-7.3,0.6-9.3-3.7c-0.8-1.6-1.2-3.3-1.2-5c0-0.1,0-0.4-0.1-0.8l0,0c0,0.8,0.1,0.2,0.2-1.9c0.1-0.4,0.1-0.6,0.1-0.8
			c0-1.8,0.5-3.6,1.7-5.3c1.1-2,2.8-3,5-3.2c0.3,0,0.6,0,0.8,0.1c1.3,0.4,2.3,0.9,3,1.5C506.87,198.31,507.17,198.81,507.37,199.31z
			 M506.47,205.11c0.5-1.7,0.5-3.4-0.2-5.1c-0.1-0.4-0.3-0.7-0.5-0.8c-1-0.9-2.2-1.4-3.3-1.4c-1.6,0-2.8,0.7-3.7,2.1
			c-0.7,1.1-1.2,2.3-1.4,3.6c-0.2,1.1-0.3,1.8-0.2,2.1c2.9-0.1,4.4-0.1,4.7-0.2C505.77,205.01,507.27,204.91,506.47,205.11z"/>
		<path class="st0" d="M517.07,196.51c1.9-1.3,3.8-1.5,5.8-0.6c0.7,0.3,1.2,0.8,1.5,1.6c0.8,1.9,1.2,3.6,1.3,5.1v3.9
			c0,1.6,0,2.8,0,3.8c0,0.3,0,0.8,0,1.3c0.1,0.7,0.1,1.1,0.1,1.3c0.1,1.9,0.1,2.9,0.2,3.1c0.1,0.4,0.1,0.8,0,1.2
			c0,0.2-0.2,0.5-0.4,0.8c-0.3,0.4-0.6,0.3-0.8-0.2c-0.1-0.3-0.2-0.6-0.2-0.8c-0.1-1.4-0.1-2.7-0.1-3.7s-0.1-2.5-0.1-4.7
			c0-2-0.1-3.5-0.1-4.7c0-2-0.4-3.8-1-5.2c-0.5-1.1-1.2-1.7-2.4-1.8c-0.8-0.1-1.5,0-2.3,0.4c-1.9,0.9-3.1,2.1-3.6,3.8
			c-0.1,0.4-0.2,1-0.2,1.6c0,4.2,0,7.3,0,9.5c0-0.9,0,0.6,0.2,4.6c0,0.4,0,0.9-0.1,1.3c0,0.1-0.2,0.3-0.4,0.4
			c-0.3,0.1-0.5,0-0.6-0.3c-0.2-0.6-0.3-1-0.3-1.4c-0.2-1.5-0.3-4.5-0.3-9.1c0-1.3,0-4.2,0-8.6v-1.6c0-0.7,0-1.2,0-1.6
			c0-0.2,0-0.5,0.1-0.8c0.1-0.4,0.3-0.4,0.6-0.2s0.5,0.6,0.5,1.2c0,0.1,0.1,0.9,0.2,2.3C516.27,197.21,516.97,196.61,517.07,196.51z
			"/>
		<path class="st0" d="M537.47,213.51c0.2-0.5,0.3-1.1,0.5-1.9c0.4-1.8,0.9-3.8,1.6-6.2c0.1-0.1,0.9-3.1,2.7-8.9
			c0.2-0.6,0.3-1,0.4-1.3c0.2-0.4,0.5-0.5,0.8-0.2c0.1,0.1,0.1,0.1,0.2,0.2c0,0,0.1,0.1,0.3,0.4c-0.1,0.4-0.3,0.8-0.3,1.1
			c-1.1,3.8-1.7,6-1.9,6.5c-0.5,1.9-0.7,2.5-0.5,1.8c-1.5,5.8-2.2,8.3-2,7.7c-0.1,0.3-0.5,1.5-1.1,3.5c-0.1,0.1-0.2,0.3-0.3,0.7
			c-0.2,0.4-0.5,0.5-0.9,0.5c-0.5,0-0.7-0.2-0.9-0.6c-1.1-3.2-1.7-5-1.9-5.3c0,0.1-1-3.7-3.1-11.4c-0.1-0.3-0.3-0.8-0.4-1.3
			c-0.2-0.7-0.3-1.1-0.4-1.4c-0.2-0.5-0.3-1-0.4-1.4c-0.1-0.5,0-0.8,0.3-0.8c0.3-0.1,0.6,0.1,0.8,0.5c0.4,1,0.6,1.6,0.8,2
			c0.1,0.3,0.5,2,1.4,5.3c0.1,0.3,0.1,0.5,0.2,0.6c0.4,1,0.8,2.4,1.3,4.2c0.5,2,0.9,3.4,1.2,4.2c0.8,2.4,1.2,3.4,1,2.9l0.2,0.2
			C536.97,214.91,537.17,214.41,537.47,213.51z"/>
		<path class="st0" d="M548.87,190.31c-0.3,0-0.5-0.1-0.8-0.3c-1.2-1-1.2-2.1,0.2-3.4c0.1-0.1,0.3-0.1,0.4-0.1
			c1.2,0.1,1.8,0.7,1.9,1.9C550.67,189.71,550.07,190.31,548.87,190.31z M549.67,207.01c0,0.7,0,1.8-0.1,3.2c-0.1,1.2,0,3.2,0.2,6.2
			c0,0,0.1,0.3,0.2,1c0.1,0.4-0.1,0.7-0.5,0.9s-0.7,0-0.9-0.4c-0.1-0.4-0.2-0.8-0.3-1.2c-0.1-3.1-0.1-5.2-0.1-6.4c0-5.5,0-8.5,0-8.8
			c-0.1-1.1-0.1-2.6-0.2-4.6c0-0.5,0-1,0-1.6c0.1-0.8,0.5-0.9,1.3-0.4C549.47,201.91,549.67,205.91,549.67,207.01z"/>
		<path class="st0" d="M557.07,198.31c0.2,0.1,0.4,0,0.6-0.2c0.6-0.8,0.9-1.2,0.9-1.1c1.2-1.3,2.6-1.8,4.2-1.4
			c0.4,0.1,0.6,0.3,0.5,0.6c0,0.2-0.1,0.4-0.3,0.7c-0.1,0.1-0.2,0.1-0.4,0.2c-0.2,0-0.4,0-0.5,0c-1-0.1-1.9,0.3-2.7,1.2
			c-0.5,0.6-1.2,1.8-2,3.4c-0.1,0.1-0.1,0.5,0,1.2c0.2,4.4,0.3,6.2,0.3,5.2c0,0.7,0,1.5,0,2.7v2.7c0,1.1,0,2.4,0.1,3.7
			c0,0.4-0.1,0.6-0.3,0.8c-0.3,0.4-0.6,0.4-0.9,0.3c-0.3-0.1-0.4-0.4-0.4-0.7c-0.1-1.6-0.1-3,0-4.3c0.1-3.6,0-7.5-0.4-11.7
			c0-0.3-0.1-1.8-0.2-4.6c0-0.2,0-0.4,0-0.6c0.1-0.4,0.3-0.6,0.7-0.5c0,0,0.2,0.1,0.5,0.3
			C556.97,196.61,556.97,197.51,557.07,198.31z"/>
		<path class="st0" d="M566.77,200.51c0.6-2.8,2.4-4.5,5.3-5.1c1.6-0.3,3,0.1,4.5,1.4c1.4,1.2,2.4,2.6,2.8,4
			c0.4,1.4,0.6,2.8,0.7,4.3c0.1,2.5-0.1,4.6-0.5,6.2c-0.3,1.2-0.6,2-0.8,2.7c-0.8,2.1-2.4,3.4-4.8,4c-1.5,0.4-3.1-0.1-4.7-1.3
			c-1.4-1.1-2.3-2.8-2.7-5.2c-0.4-2-0.5-3.7-0.4-5.2C566.27,203.41,566.57,201.51,566.77,200.51z M578.57,204.11
			c0-1.6-0.4-3.1-1.3-4.5c-1.6-2.5-3.6-3.4-6-2.5c-0.7,0.3-1.3,0.6-1.8,1.1c-0.8,0.8-1.4,2-1.6,3.6c-0.4,3-0.5,5.5-0.3,7.7
			c0.2,1.3,0.5,2.5,0.9,3.6c0.6,1.3,1.4,2.3,2.5,2.9c3,1.5,5.1,0.7,6.3-2.5c1-2.5,1.4-4.9,1.3-7.4L578.57,204.11z"/>
		<path class="st0" d="M589.17,196.51c1.9-1.3,3.8-1.5,5.8-0.6c0.7,0.3,1.2,0.8,1.5,1.6c0.8,1.9,1.2,3.6,1.3,5.1v3.9
			c0,1.6,0,2.8,0,3.8c0,0.3,0,0.8,0,1.3c0.1,0.7,0.1,1.1,0.1,1.3c0.1,1.9,0.1,2.9,0.2,3.1c0.1,0.4,0.1,0.8,0,1.2
			c0,0.2-0.2,0.5-0.4,0.8c-0.3,0.4-0.6,0.3-0.8-0.2c-0.1-0.3-0.2-0.6-0.2-0.8c-0.1-1.4-0.1-2.7-0.1-3.7s-0.1-2.5-0.1-4.7
			c0-2-0.1-3.5-0.1-4.7c0-2-0.4-3.8-1-5.2c-0.5-1.1-1.2-1.7-2.4-1.8c-0.8-0.1-1.5,0-2.3,0.4c-1.9,0.9-3.1,2.1-3.6,3.8
			c-0.1,0.4-0.2,1-0.2,1.6c0,4.2,0,7.3,0,9.5c0-0.9,0,0.6,0.2,4.6c0,0.4,0,0.9-0.1,1.3c0,0.1-0.2,0.3-0.4,0.4
			c-0.3,0.1-0.5,0-0.6-0.3c-0.2-0.6-0.3-1-0.3-1.4c-0.2-1.5-0.3-4.5-0.3-9.1c0-1.3,0-4.2,0-8.6v-1.6c0-0.7,0-1.2,0-1.6
			c0-0.2,0-0.5,0.1-0.8c0.1-0.4,0.3-0.4,0.6-0.2s0.5,0.6,0.5,1.2c0,0.1,0.1,0.9,0.2,2.3C588.37,197.21,589.07,196.61,589.17,196.51z
			"/>
		<path class="st0" d="M614.67,207.21c0.1-2.7,0-5.3-0.3-7.6c-0.2-1.5-0.9-2.4-2.2-2.8c-1.4-0.3-2.5-0.1-3.4,0.7
			c-1.4,1.2-2.4,2.7-3,4.6c-0.1,0.3-0.1,1-0.1,2c0,4,0.1,7.5,0.1,10.4c0,0.3,0,0.7,0.1,1.2c0.1,0.6,0.1,1,0.1,1.2
			c0,0.4-0.1,0.7-0.2,1c-0.1,0.2-0.3,0.3-0.5,0.4c-0.3,0-0.5-0.2-0.6-0.5c0-0.1,0-0.3,0-0.4c-0.1-2.1-0.1-3.4-0.1-4
			c-0.1-6.5-0.2-11.2-0.2-14.2c0-0.6,0-1.8,0.1-3.6c0-0.3,0.1-0.5,0.4-0.4c0.2,0,0.4,0.1,0.6,0.3c0.1,0.1,0.1,0.2,0.1,0.4
			c0-0.4,0-0.1,0,0.9c0,0.9,0.1,1.5,0.3,2c1-1.2,1.5-1.8,1.6-1.9c0.5-0.5,1-0.9,1.6-1.3c0.7-0.4,1.5-0.6,2.6-0.5
			c2,0.1,3.4,1.3,4.2,3.7c0.9-1.1,1.3-1.7,1.4-1.7c0.6-0.8,1.4-1.4,2.5-1.7c2.5-0.9,4.5-0.2,5.8,2c0.8,1.4,1.2,2.8,1.2,4.3v3.6
			c0,1,0,2.5,0,4.3c0,2-0.1,3.4-0.1,4.3c0,2.8,0,3.8,0,3c0,0.8-0.3,1.1-0.8,1c-0.4-0.1-0.6-0.4-0.6-1c0-0.2,0-0.5,0-0.8
			c0-0.4,0-0.7,0-0.8c0.1-5.2,0.2-9.8,0.2-13.7c0-1.8-0.6-3.3-1.9-4.4c-0.4-0.4-1-0.6-1.7-0.7c-1.6-0.1-3,0.5-4.2,2
			c-0.2,0.2-0.7,1.2-1.6,3c-0.1,0.1-0.1,0.5-0.1,1c0.1,3,0.1,4.4,0.1,4c0,0.8,0,1.9,0,3.3c-0.1,1.7-0.1,2.8-0.1,3.3
			c0-0.3,0,0.6,0,2.8c0,0.1,0,0.5,0,1.2c0,0.4-0.2,0.7-0.5,0.8c-0.2,0.1-0.5,0-0.8-0.4C614.37,217.01,614.47,213.51,614.67,207.21z"
			/>
		<path class="st0" d="M643.37,199.31c0.6,1.5,0.8,3,0.6,4.4c-0.2,1-0.3,1.6-0.3,1.8c-0.1,0.7-0.6,1.2-1.4,1.2
			c-0.9,0.1-1.5,0.1-1.9,0.1c-0.8,0-1.7,0-3,0c-1.5,0.1-2.5,0.1-3,0.1c-0.1,0-0.5,0.1-1.4,0.2c-0.2,1.3-0.1,2.4,0.3,3.3
			c0.7,1.8,1.3,3,2,3.7c0.6,0.7,1.4,1.2,2.4,1.5c1.7,0.5,3.2,0.3,4.5-0.5c0.5-0.3,0.9-0.1,1.4,0.4c-0.3,0.6-0.8,1-1.4,1.3
			c-4.2,1.8-7.3,0.6-9.3-3.7c-0.8-1.6-1.2-3.3-1.2-5c0-0.1,0-0.4-0.1-0.8l0,0c0,0.8,0.1,0.2,0.2-1.9c0.1-0.4,0.1-0.6,0.1-0.8
			c0-1.8,0.5-3.6,1.7-5.3c1.1-2,2.8-3,5-3.2c0.3,0,0.6,0,0.8,0.1c1.3,0.4,2.3,0.9,3,1.5C642.87,198.31,643.17,198.81,643.37,199.31z
			 M642.47,205.11c0.5-1.7,0.5-3.4-0.2-5.1c-0.1-0.4-0.3-0.7-0.5-0.8c-1-0.9-2.2-1.4-3.3-1.4c-1.6,0-2.8,0.7-3.7,2.1
			c-0.7,1.1-1.2,2.3-1.4,3.6c-0.2,1.1-0.3,1.8-0.2,2.1c2.9-0.1,4.4-0.1,4.7-0.2C641.67,205.01,643.27,204.91,642.47,205.11z"/>
		<path class="st0" d="M653.07,196.51c1.9-1.3,3.8-1.5,5.8-0.6c0.7,0.3,1.2,0.8,1.5,1.6c0.8,1.9,1.2,3.6,1.3,5.1v3.9
			c0,1.6,0,2.8,0,3.8c0,0.3,0,0.8,0,1.3c0.1,0.7,0.1,1.1,0.1,1.3c0.1,1.9,0.1,2.9,0.2,3.1c0.1,0.4,0.1,0.8,0,1.2
			c0,0.2-0.2,0.5-0.4,0.8c-0.3,0.4-0.6,0.3-0.8-0.2c-0.1-0.3-0.2-0.6-0.2-0.8c-0.1-1.4-0.1-2.7-0.1-3.7s-0.1-2.5-0.1-4.7
			c0-2-0.1-3.5-0.1-4.7c0-2-0.4-3.8-1-5.2c-0.5-1.1-1.2-1.7-2.4-1.8c-0.8-0.1-1.5,0-2.3,0.4c-1.9,0.9-3.1,2.1-3.6,3.8
			c-0.1,0.4-0.2,1-0.2,1.6c0,4.2,0,7.3,0,9.5c0-0.9,0,0.6,0.2,4.6c0,0.4,0,0.9-0.1,1.3c0,0.1-0.2,0.3-0.4,0.4
			c-0.3,0.1-0.5,0-0.6-0.3c-0.2-0.6-0.3-1-0.3-1.4c-0.2-1.5-0.3-4.5-0.3-9.1c0-1.3,0-4.2,0-8.6v-1.6c0-0.7,0-1.2,0-1.6
			c0-0.2,0-0.5,0.1-0.8c0.1-0.4,0.3-0.4,0.6-0.2s0.5,0.6,0.5,1.2c0,0.1,0.1,0.9,0.2,2.3C652.27,197.21,652.97,196.61,653.07,196.51z
			"/>
	</g>
	<g>
		<path class="st0" d="M671.27,194.91c0.9,0,1.3,0,1.5,0c0.3,0.1,0.5,0.2,0.8,0.4c0.2,0.2,0.3,0.5,0.2,0.7c-0.1,0.3-0.3,0.4-0.5,0.4
			c-0.1,0-0.8,0-2.1,0c-0.1,0-0.6,0-1.5,0c-0.3,0.9-0.4,2.3-0.3,4.2c0.1,4.2,0.2,6.5,0.2,6.8c0,2.7,0.1,4.6,0.3,5.7
			c0.1,0.8,0.3,1.5,0.4,2c0.3,0.8,0.9,1.2,1.8,1.2c0.7-0.1,1-0.1,0.8-0.1c0.3,0,0.4,0.1,0.5,0.2c0.1,0.3,0.1,0.6,0,0.7
			c-0.3,0.3-0.5,0.5-0.8,0.6c-1.7,0.4-2.9-0.2-3.5-1.7c-0.4-0.8-0.6-1.8-0.8-2.8c-0.1-1.2-0.2-3.8-0.3-7.9c0-0.6-0.1-1.5-0.1-2.7
			c-0.1-1.2-0.1-2.2-0.1-2.7c0-0.1,0-1.2,0-3.2c-0.5-0.1-0.7-0.2-0.8-0.2c-0.2,0-0.6-0.1-1.2-0.1c-0.5,0-0.9-0.1-1.2-0.1
			c-0.7-0.1-0.9-0.6-0.5-1.4c3.1-0.2,4.3-0.2,3.7,0c0.3-0.7,0.4-1.8,0.3-3.2c-0.1-0.5-0.1-1.1-0.1-1.8c0-0.4,0.2-0.5,0.6-0.3
			c0.4,0.2,0.6,0.6,0.7,1.1c0,0.3,0.1,1.6,0.3,4C669.87,194.81,670.37,194.91,671.27,194.91z"/>
	</g>
</g>
</svg>
