<?xml version="1.0" encoding="utf-8"?>
<!-- Generator: Adobe Illustrator 19.0.0, SVG Export Plug-In . SVG Version: 6.00 Build 0)  -->
<svg version="1.1" id="Layer_1" xmlns="http://www.w3.org/2000/svg" xmlns:xlink="http://www.w3.org/1999/xlink" x="0px" y="0px"
	 width="27px" height="27px" viewBox="-11 12 27 27" style="enable-background:new -11 12 27 27;" xml:space="preserve">
<style type="text/css">
	.st0{fill:#FFFFFF;}
</style>
<path class="st0" d="M11,31.4l-4.3-4.3c0.8-1.3,1.3-2.7,1.3-4.3c0-4.5-3.7-8.1-8.2-8.1s-8.1,3.6-8.1,8.1s3.6,8.1,8.1,8.1
	c1.7,0,3.2-0.5,4.6-1.4l3.8,3.8l0.5,0.5l2.3,2.3l2.3-2.3L11,31.4z M-0.2,28.8c-3.4,0-6.1-2.7-6.1-6.1c0.1-3.3,2.8-6,6.1-6
	c3.4,0,6.1,2.7,6.1,6.1C5.9,26.1,3.1,28.8-0.2,28.8z"/>
</svg>
